<?xml version="1.0" encoding="UTF-8" standalone="no"?>
<!-- Created with Inkscape (http://www.inkscape.org/) -->

<svg
   xmlns:dc="http://purl.org/dc/elements/1.1/"
   xmlns:cc="http://creativecommons.org/ns#"
   xmlns:rdf="http://www.w3.org/1999/02/22-rdf-syntax-ns#"
   xmlns:svg="http://www.w3.org/2000/svg"
   xmlns="http://www.w3.org/2000/svg"
   xmlns:sodipodi="http://sodipodi.sourceforge.net/DTD/sodipodi-0.dtd"
   xmlns:inkscape="http://www.inkscape.org/namespaces/inkscape"
   width="210mm"
   height="297mm"
   viewBox="0 0 210 297"
   version="1.1"
   id="svg8"
   inkscape:version="0.92.2 (5c3e80d, 2017-08-06)"
   sodipodi:docname="bookface_logo_black.svg">
  <defs
     id="defs2" />
  <sodipodi:namedview
     id="base"
     pagecolor="#ffffff"
     bordercolor="#666666"
     borderopacity="1.0"
     inkscape:pageopacity="0.0"
     inkscape:pageshadow="2"
     inkscape:zoom="0.70710678"
     inkscape:cx="513.9369"
     inkscape:cy="786.81696"
     inkscape:document-units="mm"
     inkscape:current-layer="layer1"
     showgrid="false"
     inkscape:window-width="1920"
     inkscape:window-height="1001"
     inkscape:window-x="-9"
     inkscape:window-y="-9"
     inkscape:window-maximized="1" />
  <metadata
     id="metadata5">
    <rdf:RDF>
      <cc:Work
         rdf:about="">
        <dc:format>image/svg+xml</dc:format>
        <dc:type
           rdf:resource="http://purl.org/dc/dcmitype/StillImage" />
        <dc:title></dc:title>
      </cc:Work>
    </rdf:RDF>
  </metadata>
  <g
     inkscape:label="Layer 1"
     inkscape:groupmode="layer"
     id="layer1">
    <path
       style="opacity:1;fill:#000000;fill-opacity:1;stroke:#000000;stroke-width:0.96499997;stroke-linecap:butt;stroke-linejoin:miter;stroke-miterlimit:4;stroke-dasharray:none;stroke-opacity:1;paint-order:normal"
       id="path865"
       d="m 171.79139,56.571853 c 0.50827,3.174944 1.2838,6.302229 2.02662,9.42885 0.79917,3.596511 1.84386,7.129103 2.79863,10.685164 0.82414,3.109624 1.72855,6.190903 2.94868,9.169336 0.41729,1.210604 1.18936,2.26903 1.5642,3.490989 0.0921,0.452088 0.1563,0.609875 0.0966,1.107967 -0.0693,0.578141 -0.33925,1.359424 -0.53314,1.875567 -0.52296,1.392148 -0.91902,2.190883 -1.56286,3.613838 -2.78514,6.019616 -5.51722,12.063126 -8.3337,18.068276 -2.3841,4.80438 -4.662,9.65352 -6.74993,14.59385 -1.68646,4.12523 -3.63302,8.13349 -5.69185,12.0836 -2.58987,4.4462 -4.71645,9.12949 -6.82254,13.81724 -2.04653,4.46578 -3.94053,9.00103 -5.67971,13.59493 -1.28889,3.46289 -2.35568,6.99973 -3.32984,10.56204 -0.57384,1.89751 -0.94137,3.84591 -1.36821,5.77954 -0.77063,3.31062 -1.66636,6.59409 -2.63484,9.85219 -0.88159,3.01205 -1.8021,6.01244 -2.69459,9.02124 -0.5281,1.93925 -1.2152,3.82785 -1.89233,5.71823 -0.3273,0.83713 -0.47488,1.74268 -0.87515,2.55053 -1.94317,2.33712 -3.57854,2.51383 -5.93309,2.21776 -1.51612,-0.15773 -3.02352,-0.37801 -4.53114,-0.60063 -1.4934,-0.1992 -2.99921,-0.27001 -4.50007,-0.39262 -1.54613,-0.175 -3.07163,-0.51697 -4.57777,-0.90245 -1.46674,-0.36878 -2.87664,-0.91723 -4.29319,-1.43903 -1.61207,-0.6097 -3.22449,-1.21654 -4.85824,-1.76624 -1.7907,-0.61003 -3.59257,-1.19551 -5.364877,-1.85866 -1.571199,-0.61895 -3.202779,-1.05239 -4.774362,-1.67074 -2.688269,-1.02872 -5.478965,-1.76045 -8.260529,-2.48757 -3.636812,-0.99137 -7.321598,-1.78365 -11.001851,-2.59266 -2.625667,-0.56605 -5.275035,-0.97494 -7.938371,-1.30732 -2.566434,-0.28881 -5.093139,-0.7921 -7.5947,-1.42442 -3.082325,-0.79641 -6.139752,-1.68366 -9.215311,-2.50763 -2.088427,-0.54711 -4.159408,-1.1562 -6.253697,-1.68038 -1.612672,-0.38795 -3.200712,-0.86962 -4.760859,-1.43136 -1.506056,-0.53511 -2.995607,-1.11497 -4.509603,-1.62731 -1.575999,-0.52661 -3.168449,-1.0004 -4.781471,-1.39941 -1.059505,-0.25095 -2.143516,-0.36034 -3.229321,-0.40164 -0.617017,-0.0165 -1.234209,-0.002 -1.851314,-0.004 -0.931719,-0.002 -1.863454,-0.003 -2.795176,-0.006 -1.070349,0.0608 -2.101279,-0.16632 -3.128811,-0.42671 -0.820345,-0.15283 -1.585041,-0.44043 -2.331793,-0.80117 -0.705335,-0.32613 -1.151398,-0.85679 -1.523607,-1.5197 -0.381016,-0.549 -0.597464,-1.14672 -0.704118,-1.80046 -0.07697,-0.59221 -0.07911,-1.19038 -0.08113,-1.78651 -0.01366,-0.86066 0.03276,-1.71783 0.101365,-2.57528 0.08351,-1.02995 0.384406,-2.02218 0.563733,-3.03623 0.125801,-0.66378 0.364436,-1.29947 0.564385,-1.94365 0.13279,-0.50988 0.406809,-0.95975 0.632572,-1.42993 0.243446,-0.6836 0.389474,-1.39639 0.604506,-2.08933 0.226331,-0.58724 0.340769,-1.20561 0.499286,-1.81204 0.119976,-0.51668 0.390189,-0.97391 0.584741,-1.46145 0.15752,-0.46387 0.432903,-0.86944 0.767446,-1.22233 0.359271,-0.26308 0.579341,-0.6398 0.808192,-1.01122 0.257415,-0.31093 0.38666,-0.695 0.561253,-1.05351 0.03418,-0.0542 0.06836,-0.10843 0.102542,-0.16264 0,0 3.637132,-1.60853 3.637132,-1.60853 v 0 c -0.03327,0.0562 -0.06655,0.11238 -0.09983,0.16857 -0.267321,0.3209 -0.322758,0.7364 -0.550876,1.08084 -0.303405,0.33711 -0.426929,0.79841 -0.780758,1.09507 -0.380829,0.26207 -0.640766,0.621 -0.850612,1.02971 -0.149442,0.50646 -0.440757,0.9372 -0.604256,1.43857 -0.16376,0.61557 -0.278993,1.24331 -0.502384,1.84199 -0.247725,0.68743 -0.402854,1.4 -0.571749,2.1097 -0.185382,0.4858 -0.499528,0.9064 -0.65221,1.40432 -0.227324,0.62224 -0.413531,1.26526 -0.608249,1.89733 -0.171684,1.01377 -0.493523,1.99401 -0.611889,3.01659 -0.05408,0.84179 -0.08526,1.68068 -0.06335,2.52432 -0.002,0.57913 -0.008,1.15986 0.04934,1.73688 0.08208,0.61149 0.273226,1.16564 0.624734,1.68031 0.335907,0.59868 0.765026,1.03243 1.403825,1.31128 0.720756,0.3498 1.481409,0.57639 2.263642,0.74936 1.006564,0.24861 2.02326,0.40377 3.065128,0.35365 0.941594,-0.004 1.883197,-0.007 2.824743,-0.0177 0.619199,-0.008 1.239009,-0.008 1.857401,0.029 1.086541,0.0779 2.168374,0.22668 3.224824,0.49873 1.610257,0.42744 3.206147,0.90596 4.787122,1.43165 1.516377,0.51836 3.013144,1.09313 4.524806,1.62515 1.545741,0.55512 3.120226,1.02609 4.715746,1.4168 2.076712,0.53389 4.125036,1.17005 6.19484,1.73002 3.057758,0.8618 6.106599,1.76283 9.194763,2.5099 2.516121,0.60752 5.058219,1.06634 7.633332,1.34389 2.639049,0.34339 5.245764,0.85846 7.848335,1.41286 3.682265,0.82978 7.373337,1.62293 11.022108,2.59363 2.822456,0.7169 5.649526,1.44981 8.386768,2.45172 1.589085,0.57705 3.225584,1.01547 4.790934,1.65878 1.76304,0.66701 3.55764,1.25477 5.34338,1.85671 1.6426,0.55232 3.27055,1.14687 4.89313,1.75526 1.40766,0.51394 2.80922,1.05448 4.26908,1.40613 1.49354,0.36937 3.00267,0.7079 4.53685,0.85216 1.50777,0.11819 3.0216,0.18493 4.51853,0.41225 1.50839,0.22908 3.02006,0.43209 4.53959,0.57262 0.53387,0.0426 1.0892,0.11026 1.62222,0.009 0.12025,-0.0228 0.45496,-0.17216 0.35121,-0.10721 -2.75214,1.72259 -4.28095,2.26264 -2.85032,1.7403 0.57057,-0.70359 0.60535,-1.70707 0.98641,-2.50932 0.71222,-1.89115 1.43028,-3.7825 1.97274,-5.73148 0.93492,-3.01826 1.90543,-6.02555 2.78327,-9.06119 0.9644,-3.23031 1.83819,-6.49136 2.56397,-9.78388 0.38785,-1.95146 0.68545,-3.92524 1.35909,-5.80583 1.07505,-3.57561 2.17147,-7.14589 3.45378,-10.65396 1.75024,-4.62867 3.70402,-9.17575 5.78321,-13.66634 2.08493,-4.65287 4.10212,-9.35147 6.66307,-13.76899 2.08775,-3.96106 4.10027,-7.96407 5.81148,-12.10494 2.09357,-4.95927 4.33354,-9.84784 6.80071,-14.63414 2.86067,-5.94572 5.62953,-11.9348 8.22051,-18.003704 0.61769,-1.477606 0.90322,-2.088674 1.40067,-3.500049 0.088,-0.24956 0.45418,-1.367441 0.51156,-1.733084 0.0681,-0.434002 0.009,-0.589944 -0.0648,-0.992341 -0.34648,-1.220261 -1.06219,-2.306638 -1.44642,-3.517387 -1.14379,-3.02832 -1.99825,-6.146795 -2.85704,-9.265801 -0.99451,-3.552938 -2.02984,-7.095479 -2.77655,-10.711828 -0.73139,-3.101861 -1.49723,-6.194123 -2.29242,-9.279879 0,0 3.48807,-1.886281 3.48807,-1.886281 z"
       inkscape:connector-curvature="0" />
    <path
       style="opacity:1;fill:#000000;fill-opacity:1;stroke:#000000;stroke-width:0.96499997;stroke-linecap:butt;stroke-linejoin:miter;stroke-miterlimit:4;stroke-dasharray:none;stroke-opacity:1;paint-order:normal"
       id="path871"
       d="m 72.067492,78.42463 c 1.740957,-1.840341 3.431143,-3.738112 5.483097,-5.233006 0.948987,-0.669717 2.038162,-1.046259 3.135466,-1.38858 1.286746,-0.432727 2.594632,-0.704785 3.944786,-0.821884 1.450675,-0.149831 2.869223,0.120388 4.294695,0.3289 1.363065,0.162336 2.660659,0.57857 3.940163,1.056244 1.461479,0.687244 2.732218,1.658016 3.999574,2.640659 1.08383,0.834667 2.03776,1.840846 2.7823,2.987805 0.620107,1.088075 1.009047,2.284129 1.385237,3.472746 0,0 -2.895197,2.651292 -2.895197,2.651292 v 0 c -0.336917,-1.168744 -0.698575,-2.34136 -1.295132,-3.408352 -0.710392,-1.117483 -1.627635,-2.098184 -2.672655,-2.911997 -1.230168,-0.966288 -2.475258,-1.916638 -3.920869,-2.547297 -1.263887,-0.453038 -2.542812,-0.853984 -3.88439,-1.001875 -1.396596,-0.220877 -2.79296,-0.438555 -4.212761,-0.274314 -1.332305,0.152395 -2.626493,0.458902 -3.896398,0.893429 -1.069836,0.35663 -2.119797,0.773267 -3.027952,1.459575 -0.168302,0.128612 -0.339747,0.253221 -0.504911,0.385843 -0.1764,0.141647 -0.349895,0.287025 -0.519501,0.436736 -0.162698,0.143614 -0.627792,0.59913 -0.477108,0.442964 0.743399,-0.770443 1.503023,-1.525064 2.255793,-2.286355 0.136974,-0.138531 -0.273227,0.277783 -0.408414,0.418057 -0.10916,0.113267 -0.216405,0.228365 -0.32461,0.342547 0,0 -3.181213,2.356863 -3.181213,2.356863 z"
       inkscape:connector-curvature="0" />
    <path
       style="opacity:1;fill:#000000;fill-opacity:1;stroke:#000000;stroke-width:0.96499997;stroke-linecap:butt;stroke-linejoin:miter;stroke-miterlimit:4;stroke-dasharray:none;stroke-opacity:1;paint-order:normal"
       id="path873"
       d="m 118.67044,79.775445 c 2.02751,-0.385585 4.08433,-0.460884 6.14256,-0.487846 4.30677,0.02727 8.54704,0.941839 12.6461,2.223774 2.09641,0.681667 3.96729,1.838752 5.62363,3.274771 1.24991,1.228611 2.00642,2.788118 2.54306,4.431275 0.17518,0.853348 0.46168,1.68784 0.56539,2.554524 0,0 -3.88881,-0.771667 -3.88881,-0.771667 v 0 c -0.10854,-0.832284 -0.32217,-1.648192 -0.50638,-2.465746 -0.52688,-1.583496 -1.28001,-3.072665 -2.53244,-4.214254 -1.66444,-1.37053 -3.51039,-2.482752 -5.58664,-3.11539 -0.41085,-0.122451 -1.657,-0.427721 -1.23256,-0.367355 0.76749,0.109147 1.52161,0.305184 2.26799,0.514613 0.49085,0.137724 -0.99713,-0.214649 -1.49989,-0.299087 -0.96251,-0.161664 -2.28449,-0.312475 -3.25545,-0.373604 -0.5453,-0.03433 -1.09213,-0.03704 -1.6382,-0.05556 -1.98464,0.0219 -3.99541,0.05545 -5.93453,0.526849 0,0 -3.71383,-1.375295 -3.71383,-1.375295 z"
       inkscape:connector-curvature="0" />
    <path
       style="opacity:1;fill:#000000;fill-opacity:1;stroke:#000000;stroke-width:0.96499997;stroke-linecap:butt;stroke-linejoin:miter;stroke-miterlimit:4;stroke-dasharray:none;stroke-opacity:1;paint-order:normal"
       id="path895"
       d="m 90.396527,84.285742 c -1.465757,2.063324 -2.700282,4.281313 -4.017732,6.440734 -1.282941,2.066531 -2.486451,4.187682 -3.923723,6.153025 -0.618948,0.873726 -1.335014,1.669839 -1.999004,2.507327 -0.252444,0.282501 -0.129916,0.134919 -0.366715,0.443471 0,0 -13.175401,-1.020906 -13.175401,-1.020906 v 0 c 0.286777,-0.220697 0.143518,-0.08788 0.415711,-0.413115 0.542012,-0.484992 -0.0273,0.04457 0.562038,-0.580988 0.569868,-0.604885 1.21175,-1.146011 1.696686,-1.828585 0.443055,-0.471827 0.825683,-0.858848 1.225378,-1.377083 1.124797,-1.458383 2.11758,-3.025163 3.128169,-4.562004 1.244737,-2.06367 2.469904,-4.156313 3.251038,-6.447948 0,0 13.203555,0.686072 13.203555,0.686072 z"
       inkscape:connector-curvature="0" />
    <path
       style="opacity:1;fill:#000000;fill-opacity:1;stroke:#000000;stroke-width:0.96499997;stroke-linecap:butt;stroke-linejoin:miter;stroke-miterlimit:4;stroke-dasharray:none;stroke-opacity:1;paint-order:normal"
       id="path897"
       d="m 134.209,92.040005 c -1.63782,2.725304 -2.54391,5.801233 -3.40703,8.838055 -0.3911,1.39826 -0.76535,2.80122 -1.13657,4.20487 0,0 -12.92614,-0.42264 -12.92614,-0.42264 v 0 c 0.57058,-1.37903 1.12208,-2.76457 1.64405,-4.16297 1.02662,-2.94379 1.98164,-5.912502 2.66159,-8.95846 0,0 13.1641,0.501145 13.1641,0.501145 z"
       inkscape:connector-curvature="0" />
    <path
       style="opacity:1;fill:#000000;fill-opacity:1;stroke:#000000;stroke-width:0.96499997;stroke-linecap:butt;stroke-linejoin:miter;stroke-miterlimit:4;stroke-dasharray:none;stroke-opacity:1;paint-order:normal"
       id="path905"
       d="m 58.067978,123.83311 c 1.883047,2.34387 4.320022,4.18379 6.869351,5.74803 1.322517,0.81149 2.667326,1.59439 4.06577,2.26664 1.626212,0.78173 3.329293,1.3923 4.993939,2.08845 1.925224,0.5746 3.817727,1.27312 5.775651,1.72388 1.156312,0.26617 -4.538458,-1.01042 -3.362462,-1.16832 1.917785,-0.25751 3.822234,0.6113 5.742608,0.84873 2.71479,0.33565 6.699698,0.65072 9.496027,0.74102 1.214113,0.0392 2.429478,0.007 3.644221,0.0106 3.738164,-0.0658 7.481097,-0.38561 11.110417,-1.30921 1.14248,-0.31258 2.21255,-0.81528 3.26539,-1.34632 0.0934,-0.0564 0.18675,-0.11267 0.28011,-0.169 0,0 12.42972,4.39124 12.42972,4.39124 v 0 c -0.10147,0.0431 -0.20286,0.0862 -0.30429,0.12933 -1.17482,0.66629 -2.47919,1.0909 -3.75158,1.52856 -4.1403,0.92319 -8.3914,1.10404 -12.62397,1.03382 -1.34841,-0.0386 -2.69827,-0.0424 -4.04524,-0.11577 -2.893733,-0.15763 -7.397503,-0.5892 -10.198604,-0.94624 -1.988523,-0.25345 -3.99094,-0.44737 -5.950736,-0.86888 -5.240031,-1.12703 -10.442661,-2.4266 -15.63069,-3.77287 -2.049527,-0.53169 -4.049256,-1.23958 -6.073881,-1.85937 -1.796396,-0.74846 -3.628694,-1.41599 -5.389189,-2.24538 -2.799792,-1.31903 -5.572851,-2.99837 -8.139144,-4.73314 -1.51859,-1.02654 -3.079471,-2.18464 -4.457056,-3.41888 -0.269817,-0.24173 -0.506135,-0.51844 -0.759202,-0.77767 0,0 13.01284,2.22071 13.01284,2.22071 z"
       inkscape:connector-curvature="0" />
    <path
       style="opacity:1;fill:#000000;fill-opacity:1;stroke:#000000;stroke-width:0.96499997;stroke-linecap:butt;stroke-linejoin:miter;stroke-miterlimit:4;stroke-dasharray:none;stroke-opacity:1;paint-order:normal"
       id="path907"
       d="m 100.46701,102.03847 c -0.13112,0.14576 -0.26828,0.28631 -0.39337,0.43728 -0.532671,0.64284 -0.370392,0.52652 -0.926924,1.22983 -0.693222,0.87604 -1.45098,1.7059 -2.188329,2.54438 -1.34275,1.40829 -2.601166,2.89305 -3.932087,4.31194 -0.468577,0.53195 -0.930436,1.05786 -1.482611,1.5031 -0.393242,0.48368 -0.300818,1.7848 -0.298529,2.39884 0.01484,0.63155 0.006,0.32354 0.02619,0.92405 0,0 -13.119954,0.004 -13.119954,0.004 v 0 c 0.01619,-0.60942 0.0081,-0.29637 0.02421,-0.93916 0.02085,-1.05616 -0.03677,-2.13125 0.161232,-3.1719 0.129635,-0.26223 0.151001,-0.35649 0.356547,-0.57014 0.412586,-0.42885 1.067218,-0.65492 1.402588,-1.18208 1.471536,-1.32146 2.828886,-2.74678 4.169561,-4.20029 1.140418,-1.27987 2.246053,-2.61083 3.041544,-4.13828 0,0 13.159922,0.84801 13.159922,0.84801 z"
       inkscape:connector-curvature="0" />
    <path
       style="opacity:1;fill:#000000;fill-opacity:1;stroke:#000000;stroke-width:0.96499997;stroke-linecap:butt;stroke-linejoin:miter;stroke-miterlimit:4;stroke-dasharray:none;stroke-opacity:1;paint-order:normal"
       id="path921"
       d="m 37.183306,175.34369 c 0.595243,0.85772 4.233653,-0.71176 5.257958,0.73115 0.197358,0.27801 -0.194196,0.74931 -0.504999,0.88946 -0.42159,0.1901 -0.95499,0.1289 -1.38693,-0.0363 -0.207606,-0.0794 0.392969,-0.27861 0.614402,-0.2592 0.744233,0.0652 1.455846,0.33623 2.183768,0.50435 15.151991,0.92315 -7.989888,-0.70901 7.226694,1.11753 0.610277,0.0733 1.21879,-0.16063 1.827543,-0.24563 0.09498,-0.0132 0.188518,-0.0626 0.283472,-0.0491 0.962123,0.13615 1.164188,0.30794 2.079003,0.71374 8.090202,-0.0941 -1.889014,-0.42857 5.20831,1.16221 0.793771,0.17791 1.62756,-0.2102 2.436979,-0.12916 1.888066,0.18905 2.449467,0.75542 4.08614,1.45288 0.406654,0.17329 0.832078,0.29873 1.248114,0.4481 0.674179,0.0852 1.348356,0.17041 2.022533,0.25562 0.998254,0.1776 1.989238,0.40249 2.99476,0.5328 1.121643,0.14535 2.274676,0.0553 3.380365,0.29335 2.905479,0.62554 1.672539,1.03307 4.191915,2.32748 0.896059,0.46039 1.890085,0.6979 2.835129,1.04684 11.546311,1.97877 -2.680311,-0.22369 11.19201,1.01154 1.483556,0.1321 2.944551,0.4617 4.400135,0.77739 0.419687,0.091 0.990216,0.0713 1.211022,0.43959 -0.361559,1.20903 -0.56746,0.78797 0.01709,1.40602 1.061161,0.24986 2.128601,0.47444 3.183491,0.74959 1.34503,0.35082 2.65007,0.86317 4.01466,1.12788 1.08107,0.20971 2.19001,0.26515 3.29096,0.28929 0.093,0.002 0.26775,-0.18252 0.17996,-0.21319 -0.25645,-0.0896 -0.90578,0.24734 -0.81489,-0.009 0.1152,-0.32445 0.63761,-0.25998 0.95642,-0.38997 5.73067,3.32732 -3.08206,-1.53127 4.97707,1.76551 0.64024,0.2619 1.02138,0.96498 1.64399,1.26639 0.15095,0.0731 0.0832,-0.41217 -0.06,-0.49956 -4.34239,-2.65069 1.25769,1.80994 -2.21222,-1.08646 0.1521,0.10377 0.3042,0.20753 0.4563,0.3113 0.68448,0.18412 1.43372,0.20834 2.05344,0.55237 0.46742,0.2595 0.69528,0.8144 1.07905,1.18662 0.0744,0.0721 -0.0391,-0.25935 -0.14117,-0.27697 -0.36707,-0.0633 -0.74391,0.04 -1.11587,0.06 -0.0479,-0.0955 1.30236,-0.77262 1.35025,-0.67715 v 0 c 0.0114,0.38064 0.45181,2.13259 -0.90745,1.77279 -0.52682,-0.13945 -0.8327,-0.70339 -1.24126,-1.06405 -0.52612,-0.46446 -1.281,-0.76825 -1.56255,-1.4111 -0.15518,-0.35434 0.3215,-0.7037 0.48225,-1.05555 0.49641,0.12552 1.10253,0.041 1.48923,0.37657 0.48708,0.42274 1.70518,2.11691 0.10066,2.24634 -2.75005,0.22181 -4.55733,-1.69581 -6.89509,-2.73272 0.0355,-0.31231 -0.18494,-1.05437 0.10661,-0.93692 0.54825,0.22088 1.17884,0.83055 1.07265,1.41201 -0.0919,0.50343 -0.91998,0.55283 -1.43173,0.55425 -1.12104,0.003 -2.2282,-0.28377 -3.31933,-0.54104 -3.57871,-0.84382 -4.05772,-1.19841 -7.23584,-2.56437 -0.208925,-0.46042 -0.663638,-0.877 -0.626774,-1.38126 0.02492,-0.34076 0.972497,0.6138 0.671116,0.77475 -0.349798,0.18681 -0.644221,-0.55194 -1.039935,-0.57779 -1.568471,-0.10243 -3.139294,0.19732 -4.711102,0.20219 -7.887242,0.0244 -5.047069,0.75121 -10.905198,-2.49658 -0.932284,-0.37584 -1.877978,-0.71999 -2.796847,-1.12754 -0.690589,-0.30629 -1.315765,-0.75973 -2.027759,-1.0123 -1.953083,-0.69284 -3.628366,-0.54933 -5.693749,-0.90578 -1.017235,-0.17556 -2.00852,-0.47772 -3.011603,-0.72147 -0.644623,-0.15663 -1.287651,-0.31977 -1.931475,-0.47966 -2.814997,-0.40631 0.164082,0.0875 -3.296845,-0.74817 -1.491668,-0.36018 -2.965141,-0.57191 -4.477512,-0.81914 -7.354737,-1.75146 2.569239,0.15077 -5.273159,-1.2644 -0.393338,-0.17281 -0.800685,-0.31672 -1.180018,-0.51843 -0.02833,-0.0151 0.02997,-0.0567 0.04496,-0.0851 -0.205282,-0.0142 -0.410564,-0.0285 -0.615847,-0.0427 -0.786696,0.091 -1.553009,0.41471 -2.344396,0.38513 -0.540015,-0.0202 -6.641195,-1.12737 -7.284373,-1.24217 -0.795785,-0.21799 -1.697413,-0.20144 -2.387349,-0.65396 -0.321979,-0.21119 -0.621644,-0.89095 -0.307425,-1.11351 0.399072,-0.28267 0.965791,0.17066 1.432555,0.31657 0.158726,0.0496 0.589349,0.27665 0.423558,0.26363 -0.546277,-0.0429 -1.056933,-0.34514 -1.604777,-0.3564 -1.276858,-0.0263 -2.549035,0.16324 -3.823554,0.24486 -0.088,-0.0327 0.374475,-1.27727 0.462481,-1.24457 z"
       inkscape:connector-curvature="0" />
    <path
       style="opacity:1;fill:#000000;fill-opacity:1;stroke:#000000;stroke-width:0.96499997;stroke-linecap:butt;stroke-linejoin:miter;stroke-miterlimit:4;stroke-dasharray:none;stroke-opacity:1;paint-order:normal"
       id="path923"
       d="m 127.98769,189.30603 c 1.62958,-2.9727 2.98307,-6.72386 5.42998,-9.16288 0.3691,-0.36791 0.91016,-0.52475 1.29448,-0.87671 0.51242,-0.46928 1.63598,-2.87137 1.67373,-2.94453 2.75847,-5.38628 0.16897,0.0676 1.89742,-4.61467 0.23876,-0.64679 0.57995,-1.25107 0.862,-1.8802 0.34155,-0.76187 0.83063,-1.47697 1.00877,-2.29267 1.29987,-5.95201 -1.83809,1.31095 1.31209,-5.03165 0.12508,-0.82673 0.11684,-1.68499 0.37526,-2.4802 0.25582,-0.78725 0.73806,-1.48283 1.14652,-2.20282 0.93483,-1.64779 2.39755,-3.64562 3.11926,-5.33101 3.98165,-9.29829 -1.15988,-0.0123 3.64168,-8.13286 0.11522,-0.68334 0.23043,-1.36666 0.34563,-2.05 0.0666,-0.24215 0.14905,-0.4805 0.19975,-0.72648 0.13458,-0.65306 0.0997,-1.35277 0.35564,-1.96847 0.52207,-1.2559 1.36046,-2.35833 1.95206,-3.58301 1.81019,-3.74726 1.81132,-4.23349 3.00665,-8.08132 0.2939,-1.3708 1.17539,-2.52798 1.56906,-3.85988 0.89115,-3.01509 -0.3274,-1.02626 1.26839,-3.97548 0.45984,-0.84984 1.03308,-1.63386 1.51654,-2.47049 0.61517,-1.06454 1.18562,-2.15427 1.77843,-3.2314 0.2431,-0.56005 1.96833,-3.99778 1.79056,-5.15344 -0.0771,-0.50141 -0.95011,-0.67247 -0.96161,-1.17965 -0.013,-0.5626 0.61106,-0.94536 0.90246,-1.42677 1.49754,-2.47403 0.0991,-0.52524 2.46228,-3.45829 0.1834,-1.39761 1.51336,-2.50077 1.74979,-3.908486 0.0453,-0.269255 -0.32825,-0.53919 -0.21879,-0.789313 0.11255,-0.257181 0.49654,-0.262316 0.74011,-0.401904 0.86572,-0.496129 0.53621,-0.190212 0.72618,-1.427651 0.36866,-0.538374 0.85607,-1.012378 1.10598,-1.615123 0.19905,-0.480089 -0.10897,-1.131194 0.20454,-1.545683 0.18696,-0.247159 0.79189,-0.230335 0.9285,0.04784 0.19046,0.387844 -0.20947,0.839157 -0.2839,1.264785 -0.049,0.280116 0.18259,0.754415 -0.0856,0.848781 -0.28781,0.101246 -0.47982,-0.376974 -0.71972,-0.565459 0.33347,-1.725944 -0.0347,-0.961824 1.09909,-2.294941 0.0391,-0.0609 0.90049,0.493071 0.86131,0.553974 v 0 c -1.47896,0.801425 -1.03651,0.195496 -1.39901,1.763255 -0.77272,0.230854 -0.49104,0.255802 -0.12944,-0.357394 0.12636,-0.214291 0.14,-0.50878 0.32996,-0.669415 0.17584,-0.148691 0.72993,-0.396679 0.66836,-0.174782 -0.14339,0.516852 -0.69311,0.823769 -0.97501,1.280091 -0.33539,0.542901 -0.57963,1.137064 -0.86944,1.705597 -0.0378,0.160333 -0.25771,1.699946 -0.68695,1.988574 -0.58828,0.395569 -0.57645,-0.807612 -0.91264,0.504883 -0.95662,3.734681 1.41515,-0.798726 -1.65187,4.016041 -0.34785,0.83456 -0.56413,1.73708 -1.04355,2.50367 -0.29234,0.46745 -0.81547,0.74226 -1.22043,1.11641 -0.32817,0.30321 -0.93773,0.47076 -0.97892,0.91567 -0.0476,0.51379 0.66443,0.83788 0.7698,1.34301 0.48047,2.30327 -0.47363,3.26103 -1.44898,5.39298 -0.0641,0.15723 -2.09071,5.32817 -2.61895,5.99884 -0.50376,0.63957 -1.5502,0.78426 -1.9201,1.50953 -0.30173,0.59159 0.19617,1.3262 0.13646,1.98761 -0.13269,1.46966 -1.02265,2.80961 -0.99713,4.31313 -2.30634,5.20177 -0.94177,2.64067 -4.14578,7.65535 -0.5714,1.16058 -0.80943,2.45768 -1.24611,3.67537 -0.19617,0.54701 -0.47214,1.06429 -0.65179,1.61697 -0.3301,1.01553 -0.19444,2.15675 -0.79812,3.10249 -0.58842,1.26099 -1.29733,2.47247 -1.76526,3.78295 -0.53747,1.50526 -0.51125,3.20924 -1.23946,4.63205 -0.58834,1.14954 -1.97466,1.74188 -2.60079,2.87129 -0.39803,0.71794 -0.10994,1.65157 -0.34303,2.43867 -2.45509,8.2902 0.56104,-5.66904 -1.48376,4.59888 -2.55404,8.77968 0.94519,-2.04617 -2.24917,4.83403 -0.33471,0.72091 -0.31866,1.56135 -0.57055,2.3152 -0.2278,0.68178 -0.52722,1.34074 -0.86333,1.97616 -1.91525,3.62088 -0.7006,-0.025 -1.87012,4.64292 -0.0404,0.0944 -1.20077,2.98498 -1.61782,3.48531 -1.35674,1.62776 -1.29549,0.0591 -2.79493,2.43417 -1.42681,2.25996 -1.6887,5.14058 -3.50483,7.21146 -0.0327,0.0963 -1.3945,-0.36661 -1.36177,-0.46291 z"
       inkscape:connector-curvature="0" />
    <path
       style="opacity:1;fill:#000000;fill-opacity:1;stroke:#000000;stroke-width:0.96499997;stroke-linecap:butt;stroke-linejoin:miter;stroke-miterlimit:4;stroke-dasharray:none;stroke-opacity:1;paint-order:normal"
       id="path925"
       d="m 36.294676,183.95458 c 2.051092,0.73143 12.653793,4.48578 14.602563,5.28937 1.639541,0.67608 3.220117,1.48999 4.794562,2.30627 0.466183,0.24169 1.054436,0.40866 1.318033,0.86282 0.169383,0.29183 -1.219589,-0.0394 -0.97508,-0.27195 0.445236,-0.42343 1.184563,-0.32704 1.776844,-0.49057 2.142604,0.37462 4.168508,0.59234 6.172594,1.56358 0.779817,0.37793 1.463707,0.94757 2.088711,1.54783 0.13046,0.1253 0.254746,0.48439 0.08153,0.53649 -1.497266,0.4504 -1.312566,-0.14516 -1.44355,-1.00468 0.268716,-0.19123 0.481279,-0.63056 0.806145,-0.57367 0.740985,0.12975 1.328886,0.70546 1.99053,1.0634 0.625525,0.3384 2.412415,1.44425 3.367709,1.64051 0.163293,0.0335 -0.258154,-0.21159 -0.395412,-0.30619 -0.22516,-0.1552 -0.46055,-0.29501 -0.690824,-0.44251 0.36327,-0.23376 0.662487,-0.63803 1.089813,-0.70128 1.979536,-0.29303 4.163496,1.0301 5.943288,1.71548 0.02736,0.0105 -0.0306,-0.0508 -0.05178,-0.0711 -0.125193,-0.11979 -0.25745,-0.23197 -0.386173,-0.34796 0.08925,-0.30508 -0.02535,-0.79219 0.267748,-0.91524 1.872154,-0.78601 2.838042,0.11641 4.550103,0.58079 0.602554,0.16344 1.244309,0.15955 1.841669,0.34106 0.105151,0.032 0.275418,0.21458 0.183092,0.27419 -0.110157,0.0711 -0.239416,-0.10702 -0.359124,-0.16053 0.177935,-0.52746 0.235254,-1.088 1.146077,-0.99866 0.50034,0.0491 0.841875,0.58324 1.326076,0.71851 0.542417,0.15152 1.126005,0.0549 1.685094,0.12267 1.781648,0.21611 0.66399,0.3841 2.05649,0.0219 0.298169,-0.2046 0.533098,-0.60168 0.894511,-0.61379 0.653433,-0.0219 1.266428,0.32745 1.891101,0.52043 0.782841,0.24184 1.546797,0.54225 2.329815,0.78351 0.721093,0.22219 1.466046,0.3649 2.180926,0.60634 0.516811,0.17453 0.962012,0.60678 1.506548,0.63901 0.183833,0.0109 -0.02019,-0.36775 -0.03028,-0.55163 0.500097,0.81728 0.168658,0.44578 1.821492,0.95224 4.824743,1.4784 0.302228,-0.2341 5.599033,1.85842 0.58803,0.2323 1.13241,0.60767 1.75446,0.72082 0.13004,0.0237 0.026,-0.26307 0.0389,-0.3946 -0.1618,0.002 -0.6459,0.0256 -0.48541,0.005 1.07771,-0.13858 2.53394,-0.3168 3.54356,0.23004 0.14333,0.0776 1.90926,2.69407 2.76598,1.51422 0.40464,0.0764 -0.26918,-0.096 0.15177,0.49499 0.25637,0.3599 0.77353,0.4025 1.09459,0.11196 0.12478,-0.11292 0.11346,-0.31688 0.17018,-0.47533 0.0609,-0.0451 0.69808,0.8155 0.63723,0.86056 v 0 c -0.43915,0.0734 -1.34419,0.31051 -1.82153,0.0885 -0.77916,-0.36234 -0.81681,-1.00955 0.28244,-1.17578 0.18217,-0.0276 -0.14593,0.33835 -0.21889,0.50753 -0.71329,0.30966 -1.36061,0.71139 -2.23116,0.25247 -0.57245,-0.30177 -0.8703,-0.95794 -1.30546,-1.43691 -0.57704,-0.18174 -1.19284,-0.26908 -1.73113,-0.54522 -0.1232,-0.0632 0.005,-0.47444 -0.11162,-0.40013 -0.21321,0.1356 -0.22085,0.45454 -0.33127,0.68181 -1.4871,0.20707 -0.0275,0.11398 -2.45808,-0.53042 -1.88773,-0.50046 -4.05325,-0.63797 -5.803944,-1.65251 -0.382177,-0.22147 -0.470802,-0.81466 -0.873257,-0.9967 -0.167654,-0.0758 -0.111319,0.35078 -0.166979,0.52617 -0.194453,-0.0475 -0.394684,-0.0756 -0.583364,-0.14237 -0.506029,-0.17921 -0.973108,-0.47633 -1.496809,-0.5943 -0.795612,-0.17923 -1.647113,-0.0595 -2.429377,-0.29013 -0.216784,-0.0639 -2.629668,-1.47177 -3.326138,-1.45165 -0.35859,0.0104 -0.640678,0.32297 -0.961017,0.48445 -0.412909,0.0304 -0.826212,0.0559 -1.238729,0.0912 -0.497816,0.0426 -0.996225,0.20377 -1.492112,0.14265 -0.532514,-0.0656 -1.006282,-0.37804 -1.525175,-0.51452 -0.444489,-0.1169 -0.926428,-0.0832 -1.35713,-0.24355 -0.07766,-0.0289 0.201967,-0.19138 0.122878,-0.21611 -0.09545,-0.0299 -0.160375,0.11953 -0.240565,0.1793 -0.07117,0.27331 -0.0016,0.63328 -0.213497,0.81993 -0.44554,0.39235 -2.052439,-0.25682 -2.617169,-0.38389 -0.734232,-0.16522 -1.483378,-0.25903 -2.217229,-0.42592 -0.354081,-0.0805 -0.685258,-0.25144 -1.042699,-0.31541 -0.113144,-0.0202 -0.225325,0.0455 -0.337989,0.0683 0.02392,0.37495 0.255082,0.79689 0.07177,1.12486 -0.127818,0.22867 -0.513874,0.15773 -0.77465,0.13267 -0.615627,-0.0591 -3.58626,-0.76566 -4.07748,-0.94902 -0.467201,-0.17438 -0.840907,-0.54947 -1.305557,-0.73054 -0.286076,-0.11148 -0.607584,-0.0889 -0.911376,-0.13336 0.198858,0.11395 2.339713,0.93271 0.303345,1.58322 -0.67899,0.21691 -3.449924,-1.33014 -3.622548,-1.40867 -0.573112,-0.26072 -1.271702,-0.30739 -1.745359,-0.72221 -0.218461,-0.19133 -0.04716,-0.57888 -0.07074,-0.86832 0.179192,0.13173 0.424042,0.20394 0.537575,0.39518 0.305544,0.51467 0.73537,1.46997 -0.331155,1.09981 -0.771451,-0.26774 -1.513758,-0.62741 -2.216523,-1.04328 -4.100076,-2.42621 -1.00825,-1.51715 -4.869849,-2.26583 -0.381839,-0.003 -0.763678,-0.007 -1.145514,-0.01 -0.189182,0.30166 -0.21432,0.85998 -0.567542,0.90499 -0.555506,0.0708 -1.055746,-0.38195 -1.555599,-0.63443 -1.538454,-0.77711 -2.997605,-1.70824 -4.552894,-2.45108 -7.449886,-3.55824 -6.667392,-2.98875 -14.564331,-5.33006 -0.0554,-0.0335 0.418846,-0.81705 0.474247,-0.78351 z"
       inkscape:connector-curvature="0" />
    <path
       style="opacity:1;fill:#000000;fill-opacity:1;stroke:#000000;stroke-width:0.96499997;stroke-linecap:butt;stroke-linejoin:miter;stroke-miterlimit:4;stroke-dasharray:none;stroke-opacity:1;paint-order:normal"
       id="path931"
       d="m 126.52914,185.19291 c 1.85851,-3.60698 2.18284,-7.72661 3.63393,-11.46322 0.29836,-0.76825 0.70359,-1.5552 1.34172,-2.07677 0.30725,-0.25112 0.90203,-0.26539 1.19044,0.007 0.27971,0.26436 0.25335,1.47306 0.0382,1.15397 -0.3117,-0.46221 -0.24082,-1.08867 -0.36123,-1.633 0.43988,-1.39063 0.87975,-2.78125 1.31963,-4.17187 0.61676,-1.47482 1.34499,-2.90785 1.85029,-4.42448 0.31292,-0.93919 0.46675,-1.92814 0.59337,-2.90995 0.0343,-0.26581 -0.30712,-0.60837 -0.11545,-0.79569 0.16662,-0.16285 0.49645,0.0999 0.63835,0.28466 0.0841,0.10953 -0.0759,0.26554 -0.11389,0.39831 -0.0907,-0.23528 -0.30944,-0.45647 -0.27212,-0.70586 0.13514,-0.90292 1.18625,-2.45485 1.58299,-3.15633 0.15166,-0.26815 0.14595,-0.69247 0.4264,-0.81994 0.17324,-0.0787 0.39167,0.6477 0.26505,0.50564 -0.34611,-0.38837 -0.62054,-0.83511 -0.93082,-1.25266 1.06115,-0.27496 0.31574,-1.51572 0.82305,-2.04901 0.19493,-0.2049 0.58029,-0.11188 0.79525,-0.29569 0.17444,-0.14913 0.0795,-0.52325 0.28413,-0.62711 0.51835,-0.26308 0.21759,0.97662 0.38271,-0.0282 -0.73931,-0.7519 -1.11111,-0.68659 -0.40906,-1.79392 0.1364,-0.21513 0.45435,-0.25524 0.61624,-0.45191 0.79009,-0.95993 -0.27864,-0.049 -0.22332,-0.47118 0.035,-0.2669 0.27798,-0.46103 0.41697,-0.69155 -0.57017,-1.47227 -0.49455,-0.46504 0.12999,-1.56149 0.0773,-0.13561 0.004,-0.34206 0.11266,-0.45445 0.13584,-0.14099 0.5136,-0.0322 0.54234,-0.22541 0.0331,-0.22313 -0.28774,-0.34747 -0.43161,-0.5212 0.12689,-0.41908 0.25376,-0.83815 0.38064,-1.25723 0.0835,-0.35472 0.55295,-2.39681 0.66914,-2.69072 0.74257,-1.87834 0.7391,-0.5163 0.94532,-2.61245 0.0837,-0.85079 0.19179,-0.76963 -0.19002,-0.89247 0.0257,-0.14779 0.006,-0.31136 0.0772,-0.44338 0.13094,-0.24267 0.4238,-0.38829 0.51242,-0.64941 0.31255,-0.92098 0.181,-1.40802 0.0481,-2.2669 -0.003,-0.017 -0.0155,0.0439 -2.7e-4,0.0517 0.19876,0.10075 0.41049,0.17356 0.61573,0.26035 0.35574,-0.0238 0.11794,0.0289 0.17885,-0.74413 0.0504,-0.63862 0.29431,-1.29451 0.14139,-1.91659 -0.14874,-0.60504 -0.85027,-0.97414 -1.00064,-1.57878 -0.38753,-1.55823 1.4326,-0.55999 1.669,-0.48992 1.01575,-0.19931 1.49961,-0.41467 1.43337,-1.69082 -0.0169,-0.32405 -0.31856,-0.58238 -0.36083,-0.9041 -0.0997,-0.75882 0.25729,-0.42595 0.48388,-0.29835 0.31676,-0.42254 1.13327,-0.31146 1.37916,-0.77863 0.24892,-0.47293 -0.0394,-1.10347 0.17279,-1.59397 0.17726,-0.40976 0.72002,-0.56873 0.93264,-0.96131 0.0822,-0.1518 -0.30733,-0.44731 -0.1423,-0.49795 0.2324,-0.0713 0.42856,0.22958 0.64285,0.34437 -0.23858,0.0938 -1.43152,0.65233 -0.71012,-0.79709 0.22917,-0.46048 1.0285,-0.37693 1.31837,-0.80181 0.33618,-0.49277 0.25447,-1.16631 0.41608,-1.74052 0.53797,-1.91147 0.54416,-1.74951 1.35056,-3.48257 -0.0683,-0.10561 -0.28987,-0.2243 -0.20473,-0.31684 0.53334,-0.57975 1.45897,-0.71602 1.95471,-1.32824 0.71833,-0.88712 1.3345,-1.92139 0.97572,-3.10517 0.0285,1.04137 -0.69358,-0.40473 -0.5836,-0.68337 0.29855,-0.75643 1.08347,-1.213 1.6252,-1.8195 0.66152,-1.13148 1.56889,-2.15144 1.98457,-3.39446 0.5435,-1.62522 0.47217,-3.39858 0.84639,-5.07092 0.35673,-1.594224 0.89535,-3.142214 1.34303,-4.713323 0.3179,-1.181896 0.50884,-2.405514 0.95369,-3.545716 0.51329,-2.967129 0.84948,0.122125 1.05532,-0.168624 0.25806,-0.364506 0.0948,-0.888944 0.17387,-1.32848 0.34247,-1.902848 0.54274,-2.33673 1.14021,-4.335888 0.10853,-0.542717 -0.058,-1.229204 0.32558,-1.628143 0.20659,-0.214839 0.62525,0.306114 0.66114,0.601996 0.085,0.700498 -0.9018,1.717899 -1.23072,1.479537 -1.25498,-0.90946 -0.038,-2.652316 0.26719,-3.44677 -0.10056,-0.648249 -0.1386,-1.309337 -0.30167,-1.944748 -0.0444,-0.173007 -0.4637,-0.52775 -0.30968,-0.437289 0.13708,0.08052 1.35477,0.93369 0.62193,1.424242 -0.15931,0.106647 -0.21633,-0.352387 -0.19118,-0.542447 0.0556,-0.420054 0.28111,-0.799446 0.42167,-1.199172 0.14713,-0.342493 0.32612,-0.672986 0.44137,-1.027482 0.0245,-0.07521 -0.0999,-0.273766 -0.0308,-0.235211 0.25383,0.141757 0.55906,0.305151 0.65038,0.58118 0.0555,0.167808 -0.21177,0.283057 -0.31766,0.424585 -0.003,0.04218 -0.60013,-0.0039 -0.59686,-0.04615 v 0 c 0.0586,-0.394972 0.004,-1.0543 0.66111,-1.095812 0.62335,-0.03936 -3.56024,3.221763 0.2028,1.862759 -0.23022,0.387576 -0.31171,0.918551 -0.69064,1.162728 -0.0771,0.04969 -2.59384,0.541066 -1.18081,-1.004615 2.04551,-2.237541 1.39105,1.998019 1.28006,2.195019 -0.19108,0.670708 -0.26684,1.385633 -0.57322,2.012121 -0.17877,0.365558 -0.5459,0.604892 -0.84275,0.883239 -0.14289,0.133998 0.31943,-0.262304 0.37944,-0.448783 0.13928,-0.432881 -0.17088,-1.085368 0.19922,-1.349589 0.34234,-0.244408 0.99257,-0.01711 1.21534,0.339707 0.30724,0.492157 0.0553,1.159061 0.0819,1.738647 -0.38953,0.798933 -0.83754,1.571913 -1.16857,2.396801 -0.25091,0.625232 -0.20576,1.372765 -0.5713,1.938684 -0.20213,0.312924 -0.714,0.259195 -1.00143,0.496183 -0.12173,0.100365 0.4107,-0.204128 0.46978,-0.05787 0.13131,0.325182 -1.4e-4,0.705978 -0.0692,1.04981 -0.23905,1.19055 -0.56847,2.361152 -0.85272,3.541734 -0.305,1.625986 -0.42849,3.296783 -0.91503,4.877987 -0.59327,1.92806 -2.81219,6.38411 -3.85993,8.37708 -0.3686,0.70113 -0.55691,1.56755 -1.17113,2.06773 -0.28638,0.23321 -0.89598,0.0865 -1.08347,-0.23169 -0.16786,-0.28488 0.65957,0.048 0.98936,0.072 0.0932,0.1834 0.28164,0.34446 0.27974,0.55019 -0.0146,1.57541 -0.47857,1.79556 -1.44774,3.01782 -0.41736,0.52634 -0.6994,1.21479 -1.27556,1.56014 -0.20731,0.12424 -0.37893,-0.75182 -0.14067,-0.7113 0.27675,0.0471 0.2529,0.50125 0.37934,0.75188 -0.21221,3.29049 0.2765,0.53141 -1.39449,3.78478 -0.51652,1.00563 -0.3334,2.22061 -1.63539,2.63619 -0.42854,0.13677 -0.89861,-0.0781 -1.34812,-0.0609 -0.14633,0.006 0.28582,0.064 0.42873,0.096 0.17177,-0.0771 0.36605,-0.34581 0.51533,-0.2311 0.17676,0.13581 0.0413,0.44406 0.0516,0.66673 0.025,0.54831 0.30964,1.15936 0.0551,1.64568 -0.26934,0.51476 -0.97975,0.62834 -1.43431,0.99013 -1.40577,1.11885 -0.24187,0.84653 -2.01113,0.86805 0.18413,-0.24581 0.2486,-0.6923 0.55239,-0.73743 0.21548,-0.032 0.12254,0.41819 0.1773,0.62904 0.10913,0.42023 0.35415,0.83169 0.31427,1.26401 -0.106,1.14904 -0.62232,1.79759 -1.75304,1.96622 -0.24378,0.0363 -0.46176,-0.17256 -0.69265,-0.25883 0.083,-0.0658 0.25615,-0.303 0.2489,-0.19737 -0.0107,0.15651 -0.17477,0.26056 -0.26216,0.39085 -0.0161,0.54377 -0.0323,1.08756 -0.0485,1.63134 0.11434,0.80483 0.81124,1.57077 0.61552,2.35976 -0.5778,2.32923 -1.30643,0.63073 -1.47714,0.28672 0.0761,-0.3139 0.28571,-0.62383 0.22846,-0.94173 -0.0391,-0.21737 -0.35272,0.38337 -0.29084,0.5954 0.12948,0.44354 0.77661,0.67322 0.79592,1.13487 0.009,0.23076 -1.00944,2.18338 -1.38315,2.41224 -0.13057,0.0799 -0.19945,-0.23236 -0.29917,-0.34852 0.63107,0.18804 1.33014,0.20731 1.13239,1.32965 -0.0912,0.51749 -0.62275,0.84855 -0.89147,1.3001 -0.23053,0.38735 -0.49328,0.77327 -0.60267,1.21055 -0.1127,0.45058 -0.0323,0.92837 -0.0485,1.39255 -0.12536,0.39838 -0.25073,0.79676 -0.37611,1.19513 -0.007,0.49211 0.0513,0.98961 -0.0221,1.47634 -0.24143,1.60781 -0.10318,0.35674 -0.68278,0.8486 -0.0674,0.0571 -0.0171,0.1772 -0.044,0.26134 -0.3097,0.96781 -0.0894,-0.62508 -0.2159,1.4049 0.11789,1.50503 0.23308,0.61384 -0.21956,1.67185 -0.0271,0.0633 0.18135,-0.19555 0.11733,-0.1701 -0.14433,0.0574 -0.35708,0.11945 -0.37729,0.27345 -0.0306,0.23278 0.1702,0.43761 0.25531,0.65641 -0.0581,0.30609 -0.11624,0.61218 -0.17436,0.91827 -0.0259,0.25031 -0.0205,0.8143 -0.27844,1.00819 -0.13309,0.10006 -0.33838,0.0199 -0.49265,0.0823 -0.80381,0.32647 -0.50761,1.57884 -0.582,2.17449 -0.35411,0.21055 -0.75317,0.35936 -1.06233,0.63167 -0.0996,0.0878 0.31475,-0.14972 0.39577,-0.0446 0.23329,0.30278 0.49163,0.70458 0.39837,1.07526 -0.16207,0.64417 -0.78703,1.07722 -1.08881,1.66896 -1.03097,2.02149 0.19381,1.488 -1.72418,1.78898 0.081,-0.15313 0.10015,-0.3617 0.24325,-0.45939 0.821,-0.56049 0.93016,0.0646 0.83513,0.8645 -0.50362,4.23884 -2.93723,7.48656 -4.20322,11.49126 -0.34738,0.48562 -0.62019,1.03443 -1.04217,1.45686 -0.69913,0.69989 1.13268,-2.64693 0.6732,-0.80948 -0.18806,0.75205 -0.8155,1.33343 -1.06527,2.06729 -5.96482,17.52638 3.56286,-7.51718 -3.79912,11.36648 -0.0167,0.0757 -1.08687,-0.16079 -1.07015,-0.23646 z"
       inkscape:connector-curvature="0" />
    <path
       style="opacity:1;fill:#000000;fill-opacity:1;stroke:#000000;stroke-width:0.96499997;stroke-linecap:butt;stroke-linejoin:miter;stroke-miterlimit:4;stroke-dasharray:none;stroke-opacity:1;paint-order:normal"
       id="path861"
       d="m 73.760221,61.936698 c -2.41544,4.631232 -5.004613,9.16387 -7.682087,13.647735 -7.801211,12.217434 -14.610273,25.034497 -21.354185,37.855337 -4.291695,8.06155 -8.205835,16.31495 -11.856119,24.68427 -1.834073,4.01356 -3.360552,8.15239 -4.942001,12.26843 -1.167414,2.93905 -2.394213,5.85298 -3.536189,8.8025 -0.4888,1.27714 -0.897143,2.58314 -1.302833,3.8885 -0.01778,0.089 -0.06103,0.1765 -0.05334,0.26689 0.03777,0.44363 1.333242,0.83117 1.455958,0.87984 2.369553,0.93995 2.017514,0.74008 4.992336,1.55894 9.620297,2.48237 19.500958,3.68281 29.311353,5.12376 9.59189,1.40885 9.461214,1.43422 18.963812,3.01946 7.916423,1.3833 15.813783,2.91348 23.613404,4.8602 4.90443,1.22411 9.73513,2.67937 14.5477,4.21744 1.88312,0.47545 3.62984,1.41953 5.51341,1.89991 0.58076,0.14812 1.18975,0.36077 1.7798,0.2556 0.49826,-0.0888 1.58125,-0.38942 1.2889,-0.80255 -2.11844,-2.99361 -4.00611,5.5632 -0.73797,-3.46664 0.41022,-1.5449 0.84377,-3.08378 1.23065,-4.63468 1.15675,-4.63701 2.11057,-9.03278 3.14684,-13.71488 1.67026,-7.54662 3.31277,-15.09883 5.00654,-22.64024 2.2545,-9.8547 4.93587,-19.60127 7.95023,-29.2484 0.35769,-1.07846 0.70496,-2.16043 1.07308,-3.23537 0.72206,-2.10848 1.28551,-3.65635 2.11724,-5.71187 1.17771,-2.910578 2.51053,-5.756037 3.79795,-8.618804 2.44439,-5.367153 4.99256,-10.683656 7.66453,-15.940879 1.03025,-2.226013 2.30027,-4.319164 3.57675,-6.408134 1.04615,-1.652143 1.85645,-3.433773 2.7283,-5.179719 0.97313,-1.810334 1.80539,-3.684156 2.61088,-5.57276 0.33313,-0.861033 0.8255,-1.647351 1.19684,-2.489387 0.0187,-0.06312 0.0592,-0.123606 0.0561,-0.189365 -0.001,-0.02252 -0.0438,-0.01069 -0.0658,-0.01566 -0.1281,-0.0291 -0.25713,-0.05432 -0.38447,-0.08659 -1.45271,-0.368147 -2.90572,-0.720879 -4.3657,-1.061104 -5.92099,-1.359143 -11.85981,-2.651281 -17.7161,-4.27523 -1.61721,-0.448453 -3.22316,-0.936548 -4.83474,-1.404823 -9.38647,-2.686 -18.7752,-5.381861 -28.23448,-7.80188 -6.19132,-1.437783 -12.395741,-2.817858 -18.651295,-3.947568 -3.113534,-0.527515 -6.228686,-1.055957 -9.360982,-1.46105 -0.738955,-0.09061 -1.480801,-0.156906 -2.224254,-0.19608 -0.278035,-0.01466 -0.673759,-0.06334 -0.949844,0.05491 -0.138154,0.05917 -0.244268,0.175168 -0.366402,0.26275 0.983697,-0.503989 1.891897,-1.196094 2.951088,-1.511967 0.291198,-0.08684 -0.335227,0.507842 -0.479957,0.775031 -0.200509,0.370157 -0.383283,0.750104 -0.554503,1.134689 -0.679876,1.527104 -1.178515,3.11793 -1.692738,4.705507 -0.848696,2.865829 -1.759215,5.712256 -2.664862,8.560503 -0.554112,1.808303 -1.13393,3.606247 -1.783107,5.382533 -0.310049,0.837382 -0.610944,1.677212 -0.915818,2.516425 -0.593881,1.446977 -1.167693,2.902127 -1.726782,4.362876 -0.608912,1.591517 -1.38788,3.107357 -2.051182,4.675476 -0.696714,1.689671 -1.380916,3.384013 -2.12466,5.053735 -0.270719,0.566134 -0.539514,1.13276 -0.795626,1.705628 0,0 -3.565265,1.63072 -3.565265,1.63072 v 0 c 0.263575,-0.582962 0.542785,-1.157862 0.83752,-1.725872 0.763767,-1.660477 1.467114,-3.346992 2.137658,-5.047091 0.64738,-1.571254 1.42426,-3.080874 2.049833,-4.661331 0.548791,-1.449271 1.123202,-2.888594 1.677594,-4.335738 0.14729,-0.391869 0.245647,-0.79774 0.394438,-1.187926 0.05903,-0.154789 0.296632,-0.657146 0.348906,-0.787953 0.07331,-0.183433 0.134752,-0.371385 0.202128,-0.557077 0.690174,-1.780451 1.315194,-3.580985 1.876245,-5.406949 0.952379,-2.852081 1.868295,-5.715981 2.740433,-8.5936 0.498149,-1.5822 0.981228,-3.169132 1.596538,-4.711121 0.153315,-0.384214 0.315997,-0.764889 0.489791,-1.140285 0.12714,-0.274622 0.17611,-0.619823 0.412531,-0.808728 1.16291,-0.929182 2.473399,-1.656876 3.710098,-2.485313 0.15186,-0.05069 0.298188,-0.122778 0.455581,-0.152083 0.258762,-0.04818 0.719749,-2.3e-4 0.968298,0.02061 0.730713,0.06125 1.459519,0.145455 2.18462,0.254913 3.070042,0.480386 6.127345,1.03836 9.182047,1.60727 6.17741,1.22515 12.31234,2.649225 18.43366,4.127404 9.40229,2.512941 18.72288,5.326298 28.11019,7.895355 1.63086,0.451548 3.25592,0.924642 4.8926,1.35464 5.96415,1.566937 12.00467,2.825557 18.05065,4.028593 1.20959,0.2432 2.42195,0.472848 3.6293,0.726938 0.47605,0.100187 1.53537,0.172106 1.74995,0.793866 0.0286,0.08283 -0.0226,0.173787 -0.0339,0.260681 -0.32957,0.888921 -0.92356,1.652246 -1.2715,2.536267 -0.84744,1.885294 -1.66243,3.78433 -2.64182,5.607513 -0.86672,1.74853 -1.65382,3.541093 -2.68921,5.200062 -1.31442,2.122631 -2.67548,4.219009 -3.77348,6.46688 -2.80433,5.240123 -5.42534,10.571382 -7.84739,15.999952 -2.55581,5.774573 -5.16922,11.53413 -7.07758,17.56624 -3.19364,9.71278 -6.0677,19.52804 -8.4722,29.46838 -1.79056,7.53393 -3.50383,15.07759 -5.06563,22.66293 -0.40053,1.94528 -2.21316,11.14651 -2.71778,13.51924 -0.32502,1.52822 -0.69043,3.04756 -1.03565,4.57134 -1.41612,4.68472 -0.40775,3.38263 -5.29766,7.27572 -0.39531,0.31473 -0.89593,0.54736 -1.4001,0.58106 -0.58501,0.0391 -1.15959,-0.19713 -1.71906,-0.37257 -1.80326,-0.56548 -3.47144,-1.51716 -5.28932,-2.04126 -3.68986,-1.28986 -4.54681,-1.62833 -8.47969,-2.82239 -9.479463,-2.87806 -19.163327,-5.01831 -28.918263,-6.72691 -9.119113,-1.54227 -9.741395,-1.71442 -18.973882,-3.00316 -10.065276,-1.405 -20.19219,-2.48286 -30.148212,-4.57969 -2.689334,-0.61569 -3.070506,-0.6048 -5.329918,-1.39684 -0.583947,-0.2047 -1.647623,-0.50066 -1.829756,-1.25739 -0.02564,-0.10655 0.02375,-0.21789 0.03562,-0.32683 0.427515,-1.34394 0.943881,-2.66172 1.438118,-3.98194 1.181361,-2.94523 2.416173,-5.86869 3.578875,-8.82112 1.657115,-4.16678 3.280142,-8.34912 5.20012,-12.40486 3.807502,-8.46991 7.908581,-16.80473 12.378645,-24.94656 3.607146,-6.68091 7.233888,-13.35098 10.888913,-20.005854 2.020488,-3.678796 5.130287,-9.341009 7.276005,-13.0575 0.893572,-1.547711 1.828326,-3.07128 2.742488,-4.606919 2.541821,-4.374576 5.042617,-8.776208 7.16361,-13.374407 0,0 3.57854,-1.632532 3.57854,-1.632532 z"
       inkscape:connector-curvature="0" />
  </g>
</svg>
