<?xml version="1.0" encoding="UTF-8" standalone="no"?>
<!-- Created with Inkscape (http://www.inkscape.org/) -->

<svg
   xmlns:dc="http://purl.org/dc/elements/1.1/"
   xmlns:cc="http://creativecommons.org/ns#"
   xmlns:rdf="http://www.w3.org/1999/02/22-rdf-syntax-ns#"
   xmlns:svg="http://www.w3.org/2000/svg"
   xmlns="http://www.w3.org/2000/svg"
   xmlns:sodipodi="http://sodipodi.sourceforge.net/DTD/sodipodi-0.dtd"
   xmlns:inkscape="http://www.inkscape.org/namespaces/inkscape"
   width="210mm"
   height="297mm"
   viewBox="0 0 210 297"
   version="1.1"
   id="svg8"
   inkscape:version="0.92.2 (5c3e80d, 2017-08-06)"
   sodipodi:docname="bookface_logo_white.svg">
  <defs
     id="defs2" />
  <sodipodi:namedview
     id="base"
     pagecolor="#ffffff"
     bordercolor="#666666"
     borderopacity="1.0"
     inkscape:pageopacity="0.0"
     inkscape:pageshadow="2"
     inkscape:zoom="0.70710678"
     inkscape:cx="579.57807"
     inkscape:cy="448.74945"
     inkscape:document-units="mm"
     inkscape:current-layer="layer1"
     showgrid="false"
     inkscape:window-width="1920"
     inkscape:window-height="1001"
     inkscape:window-x="-9"
     inkscape:window-y="-9"
     inkscape:window-maximized="1" />
  <metadata
     id="metadata5">
    <rdf:RDF>
      <cc:Work
         rdf:about="">
        <dc:format>image/svg+xml</dc:format>
        <dc:type
           rdf:resource="http://purl.org/dc/dcmitype/StillImage" />
        <dc:title></dc:title>
      </cc:Work>
    </rdf:RDF>
  </metadata>
  <g
     inkscape:label="Layer 1"
     inkscape:groupmode="layer"
     id="layer1">
    <path
       style="opacity:1;fill:#ffffff;fill-opacity:1;stroke:#ffffff;stroke-width:0.96499997;stroke-linecap:butt;stroke-linejoin:miter;stroke-miterlimit:4;stroke-dasharray:none;stroke-opacity:1;paint-order:normal"
       id="path865-1"
       d="m 188.21036,51.884449 c 0.50827,3.17495 1.28381,6.30223 2.02663,9.42885 0.79917,3.59652 1.84386,7.12911 2.79863,10.68517 0.82414,3.10962 1.72855,6.1909 2.94868,9.16933 0.41729,1.21061 1.18936,2.26903 1.56419,3.49099 0.0921,0.45209 0.1563,0.60988 0.0966,1.10797 -0.0693,0.57814 -0.33925,1.35942 -0.53314,1.87557 -0.52296,1.39214 -0.91902,2.19088 -1.56286,3.61383 -2.78515,6.01962 -5.51722,12.063131 -8.3337,18.068281 -2.3841,4.80438 -4.662,9.65352 -6.74993,14.59385 -1.68646,4.12523 -3.63302,8.1335 -5.69185,12.08361 -2.58988,4.4462 -4.71646,9.12949 -6.82254,13.81724 -2.04654,4.46578 -3.94053,9.00103 -5.67971,13.59493 -1.2889,3.46289 -2.35568,6.99973 -3.32984,10.56203 -0.57385,1.89752 -0.94138,3.84592 -1.36821,5.77955 -0.77063,3.31062 -1.66637,6.59409 -2.63484,9.85219 -0.8816,3.01205 -1.80211,6.01244 -2.69459,9.02124 -0.52811,1.93925 -1.2152,3.82785 -1.89233,5.71823 -0.3273,0.83713 -0.47488,1.74268 -0.87516,2.55053 -1.94316,2.33712 -3.57854,2.51383 -5.93308,2.21776 -1.51612,-0.15773 -3.02352,-0.37801 -4.53114,-0.60063 -1.49341,-0.1992 -2.99922,-0.27001 -4.50007,-0.39262 -1.54613,-0.175 -3.07163,-0.51697 -4.57777,-0.90245 -1.46674,-0.36878 -2.87664,-0.91723 -4.29319,-1.43903 -1.61207,-0.6097 -3.22449,-1.21654 -4.85824,-1.76624 -1.7907,-0.61003 -3.59257,-1.19551 -5.36488,-1.85866 -1.5712,-0.61896 -3.20278,-1.05239 -4.77436,-1.67074 -2.68827,-1.02872 -5.47897,-1.76045 -8.26053,-2.48757 -3.636801,-0.99137 -7.321579,-1.78365 -11.001832,-2.59266 -2.625668,-0.56605 -5.275038,-0.97494 -7.938368,-1.30732 -2.56644,-0.28881 -5.09314,-0.7921 -7.5947,-1.42442 -3.08233,-0.79641 -6.13975,-1.68366 -9.21531,-2.50763 -2.08843,-0.54711 -4.15941,-1.1562 -6.2537,-1.68038 -1.61267,-0.38795 -3.20071,-0.86962 -4.76086,-1.43136 -1.50606,-0.53511 -2.99561,-1.11497 -4.5096,-1.62731 -1.576,-0.52661 -3.16845,-1.0004 -4.78148,-1.39941 -1.0595,-0.25095 -2.14351,-0.36034 -3.22932,-0.40165 -0.61701,-0.0165 -1.23421,-0.002 -1.85131,-0.004 -0.93172,-0.002 -1.86345,-0.003 -2.79518,-0.006 -1.07035,0.0608 -2.10128,-0.16632 -3.12881,-0.42671 -0.82034,-0.15283 -1.58504,-0.44043 -2.33179,-0.80117 -0.70534,-0.32613 -1.1514,-0.85679 -1.52361,-1.5197 -0.38101,-0.549 -0.59746,-1.14672 -0.70412,-1.80046 -0.077,-0.59221 -0.0791,-1.19038 -0.0811,-1.78651 -0.0137,-0.86066 0.0328,-1.71783 0.10137,-2.57528 0.0835,-1.02995 0.38441,-2.02218 0.56373,-3.03623 0.1258,-0.66378 0.36444,-1.29947 0.56439,-1.94365 0.13279,-0.50988 0.40681,-0.95975 0.63257,-1.42993 0.24345,-0.6836 0.38947,-1.39639 0.60451,-2.08933 0.22633,-0.58724 0.34076,-1.20561 0.49928,-1.81204 0.11998,-0.51668 0.39019,-0.97391 0.58474,-1.46145 0.15752,-0.46387 0.43291,-0.86944 0.76745,-1.22233 0.35927,-0.26308 0.57934,-0.6398 0.80819,-1.01122 0.25742,-0.31093 0.38666,-0.695 0.56125,-1.05351 0.0342,-0.0542 0.0684,-0.10843 0.10255,-0.16264 0,0 3.63713,-1.60853 3.63713,-1.60853 v 0 c -0.0333,0.0562 -0.0665,0.11238 -0.0998,0.16857 -0.26732,0.3209 -0.32276,0.7364 -0.55088,1.08084 -0.3034,0.33711 -0.42693,0.79841 -0.78076,1.09507 -0.38083,0.26207 -0.64076,0.621 -0.85061,1.02971 -0.14944,0.50646 -0.44076,0.9372 -0.60425,1.43857 -0.16377,0.61557 -0.279,1.24331 -0.50239,1.84199 -0.24772,0.68743 -0.40285,1.4 -0.57175,2.1097 -0.18538,0.4858 -0.49953,0.9064 -0.65221,1.40432 -0.22732,0.62224 -0.41353,1.26526 -0.60825,1.89733 -0.17168,1.01377 -0.49352,1.99401 -0.61189,3.01659 -0.0541,0.84179 -0.0853,1.68068 -0.0633,2.52432 -0.002,0.57913 -0.008,1.15986 0.0493,1.73688 0.0821,0.61149 0.27323,1.16564 0.62474,1.68031 0.33591,0.59868 0.76502,1.03243 1.40382,1.31128 0.72076,0.3498 1.48141,0.57639 2.26365,0.74936 1.00656,0.24861 2.02326,0.40377 3.06512,0.35365 0.9416,-0.004 1.8832,-0.007 2.82475,-0.0177 0.6192,-0.008 1.23901,-0.008 1.8574,0.029 1.08654,0.0779 2.16837,0.22668 3.22482,0.49873 1.61026,0.42744 3.20615,0.90596 4.78712,1.43165 1.51638,0.51836 3.01315,1.09313 4.52481,1.62515 1.54574,0.55512 3.12022,1.02609 4.71575,1.4168 2.07671,0.53389 4.12503,1.17005 6.19483,1.73002 3.05776,0.8618 6.1066,1.76283 9.19477,2.5099 2.51612,0.60752 5.05822,1.06634 7.63333,1.34389 2.63905,0.34339 5.245758,0.85846 7.848338,1.41286 3.682254,0.82978 7.373312,1.62293 11.022082,2.59363 2.82246,0.7169 5.64953,1.44981 8.38677,2.45172 1.58909,0.57705 3.22559,1.01547 4.79094,1.65878 1.76304,0.66701 3.55764,1.25477 5.34338,1.85671 1.6426,0.55232 3.27055,1.14687 4.89313,1.75526 1.40765,0.51394 2.80922,1.05448 4.26908,1.40613 1.49354,0.36937 3.00266,0.7079 4.53685,0.85216 1.50777,0.11819 3.0216,0.18493 4.51853,0.41225 1.50839,0.22908 3.02006,0.43209 4.53958,0.57262 0.53388,0.0426 1.08921,0.11026 1.62223,0.009 0.12025,-0.0228 0.45495,-0.17216 0.35121,-0.10721 -2.75214,1.72259 -4.28095,2.26264 -2.85033,1.7403 0.57058,-0.70359 0.60535,-1.70707 0.98642,-2.50932 0.71221,-1.89115 1.43028,-3.7825 1.97273,-5.73148 0.93493,-3.01826 1.90544,-6.02555 2.78328,-9.06119 0.9644,-3.23031 1.83819,-6.49136 2.56396,-9.78388 0.38785,-1.95146 0.68545,-3.92524 1.35909,-5.80583 1.07505,-3.57561 2.17147,-7.14589 3.45379,-10.65396 1.75024,-4.62867 3.70402,-9.17575 5.78321,-13.66634 2.08492,-4.65287 4.10212,-9.35147 6.66307,-13.76899 2.08775,-3.96106 4.10027,-7.96408 5.81148,-12.10495 2.09356,-4.95927 4.33354,-9.84784 6.80071,-14.63414 2.86067,-5.94572 5.62953,-11.934801 8.2205,-18.003701 0.6177,-1.47761 0.90323,-2.08867 1.40067,-3.50005 0.088,-0.24956 0.45419,-1.36744 0.51157,-1.73308 0.0681,-0.43401 0.009,-0.58995 -0.0648,-0.99234 -0.34649,-1.22027 -1.06219,-2.30664 -1.44642,-3.51739 -1.14379,-3.02832 -1.99825,-6.1468 -2.85704,-9.2658 -0.99451,-3.55294 -2.02985,-7.09548 -2.77655,-10.71183 -0.7314,-3.10186 -1.49723,-6.19412 -2.29242,-9.27988 0,0 3.48806,-1.88628 3.48806,-1.88628 z"
       inkscape:connector-curvature="0" />
    <path
       style="opacity:1;fill:#ffffff;fill-opacity:1;stroke:#ffffff;stroke-width:0.96499997;stroke-linecap:butt;stroke-linejoin:miter;stroke-miterlimit:4;stroke-dasharray:none;stroke-opacity:1;paint-order:normal"
       id="path871-7"
       d="m 88.48649,73.737229 c 1.740951,-1.84034 3.431138,-3.73811 5.483098,-5.23301 0.948983,-0.66971 2.038166,-1.04626 3.13546,-1.38858 1.286744,-0.43272 2.594615,-0.70478 3.944772,-0.82188 1.45067,-0.14983 2.86922,0.12039 4.29469,0.3289 1.36307,0.16234 2.66066,0.57857 3.94017,1.05624 1.46148,0.68725 2.73221,1.65802 3.99957,2.64066 1.08383,0.83467 2.03776,1.84085 2.7823,2.98781 0.62011,1.08807 1.00905,2.28413 1.38524,3.47274 0,0 -2.8952,2.6513 -2.8952,2.6513 v 0 c -0.33692,-1.16875 -0.69858,-2.34136 -1.29513,-3.40836 -0.71039,-1.11748 -1.62764,-2.09818 -2.67266,-2.91199 -1.23016,-0.96629 -2.47525,-1.91664 -3.92087,-2.5473 -1.26388,-0.45304 -2.54281,-0.85398 -3.88439,-1.00187 -1.39659,-0.22088 -2.792957,-0.43856 -4.212751,-0.27432 -1.332291,0.1524 -2.626475,0.4589 -3.896391,0.89343 -1.069827,0.35663 -2.11979,0.77327 -3.02795,1.45957 -0.1683,0.12862 -0.33974,0.25323 -0.50491,0.38585 -0.1764,0.14165 -0.34989,0.28702 -0.5195,0.43673 -0.162697,0.14362 -0.627787,0.59913 -0.477107,0.44297 0.743397,-0.77044 1.503017,-1.52506 2.255797,-2.28636 0.13697,-0.13853 -0.27323,0.27779 -0.40842,0.41806 -0.10916,0.11327 -0.2164,0.22837 -0.32461,0.34255 0,0 -3.181208,2.35686 -3.181208,2.35686 z"
       inkscape:connector-curvature="0" />
    <path
       style="opacity:1;fill:#ffffff;fill-opacity:1;stroke:#ffffff;stroke-width:0.96499997;stroke-linecap:butt;stroke-linejoin:miter;stroke-miterlimit:4;stroke-dasharray:none;stroke-opacity:1;paint-order:normal"
       id="path873-9"
       d="m 135.08942,75.088039 c 2.02751,-0.38558 4.08433,-0.46088 6.14255,-0.48784 4.30678,0.0273 8.54705,0.94184 12.64611,2.22377 2.09641,0.68167 3.96729,1.83875 5.62362,3.27478 1.24992,1.22861 2.00642,2.78811 2.54307,4.43127 0.17517,0.85335 0.46168,1.68784 0.56538,2.55452 0,0 -3.8888,-0.77166 -3.8888,-0.77166 v 0 c -0.10854,-0.83229 -0.32217,-1.6482 -0.50639,-2.46575 -0.52688,-1.5835 -1.28,-3.07267 -2.53243,-4.21425 -1.66444,-1.37053 -3.51039,-2.48275 -5.58664,-3.11539 -0.41085,-0.12245 -1.657,-0.42772 -1.23256,-0.36736 0.76749,0.10915 1.52161,0.30519 2.26798,0.51461 0.49085,0.13773 -0.99713,-0.21464 -1.49988,-0.29908 -0.96252,-0.16167 -2.2845,-0.31248 -3.25546,-0.37361 -0.54529,-0.0343 -1.09212,-0.037 -1.6382,-0.0556 -1.98463,0.0219 -3.9954,0.0555 -5.93453,0.52685 0,0 -3.71382,-1.37529 -3.71382,-1.37529 z"
       inkscape:connector-curvature="0" />
    <path
       style="opacity:1;fill:#ffffff;fill-opacity:1;stroke:#ffffff;stroke-width:0.96499997;stroke-linecap:butt;stroke-linejoin:miter;stroke-miterlimit:4;stroke-dasharray:none;stroke-opacity:1;paint-order:normal"
       id="path895-1"
       d="m 106.8155,79.598339 c -1.46575,2.06333 -2.70028,4.28131 -4.01773,6.44074 -1.28294,2.06653 -2.48645,4.18768 -3.923711,6.15302 -0.618947,0.87373 -1.335014,1.66984 -1.999001,2.50733 -0.252437,0.2825 -0.129907,0.13492 -0.366707,0.44347 0,0 -13.175401,-1.02091 -13.175401,-1.02091 v 0 c 0.28677,-0.22069 0.14352,-0.0879 0.41571,-0.41311 0.54201,-0.48499 -0.0273,0.0446 0.56204,-0.58099 0.56986,-0.60489 1.21175,-1.14601 1.69668,-1.82858 0.44306,-0.47183 0.82569,-0.85885 1.22538,-1.37709 1.1248,-1.45838 2.11758,-3.02516 3.128171,-4.562 1.244737,-2.06367 2.469907,-4.15632 3.25104,-6.44795 0,0 13.203529,0.68607 13.203529,0.68607 z"
       inkscape:connector-curvature="0" />
    <path
       style="opacity:1;fill:#ffffff;fill-opacity:1;stroke:#ffffff;stroke-width:0.96499997;stroke-linecap:butt;stroke-linejoin:miter;stroke-miterlimit:4;stroke-dasharray:none;stroke-opacity:1;paint-order:normal"
       id="path897-3"
       d="m 150.62797,87.352599 c -1.63781,2.72531 -2.5439,5.80124 -3.40702,8.83806 -0.3911,1.39826 -0.76535,2.80122 -1.13658,4.204871 0,0 -12.92613,-0.422641 -12.92613,-0.422641 v 0 c 0.57057,-1.37903 1.12207,-2.76457 1.64404,-4.16297 1.02662,-2.94379 1.98165,-5.9125 2.66159,-8.95846 0,0 13.1641,0.50114 13.1641,0.50114 z"
       inkscape:connector-curvature="0" />
    <path
       style="opacity:1;fill:#ffffff;fill-opacity:1;stroke:#ffffff;stroke-width:0.96499997;stroke-linecap:butt;stroke-linejoin:miter;stroke-miterlimit:4;stroke-dasharray:none;stroke-opacity:1;paint-order:normal"
       id="path905-9"
       d="m 74.48697,119.14571 c 1.88305,2.34387 4.32003,4.18379 6.86935,5.74803 1.32252,0.81149 2.66733,1.59439 4.06577,2.26664 1.62622,0.78173 3.3293,1.3923 4.993941,2.08845 1.925227,0.57461 3.817727,1.27313 5.775653,1.72389 1.156314,0.26616 -4.538456,-1.01042 -3.362466,-1.16832 1.917793,-0.25752 3.822243,0.61129 5.742601,0.84873 2.714781,0.33564 6.699691,0.65072 9.496021,0.74102 1.21411,0.0392 2.42948,0.007 3.64422,0.0106 3.73816,-0.0658 7.4811,-0.3856 11.11042,-1.3092 1.14248,-0.31259 2.21255,-0.81529 3.26539,-1.34633 0.0934,-0.0564 0.18675,-0.11267 0.28011,-0.169 0,0 12.42971,4.39125 12.42971,4.39125 v 0 c -0.10146,0.0431 -0.20285,0.0862 -0.30429,0.12932 -1.17481,0.6663 -2.47919,1.09091 -3.75158,1.52857 -4.1403,0.92319 -8.39139,1.10404 -12.62396,1.03382 -1.34841,-0.0386 -2.69827,-0.0424 -4.04524,-0.11578 -2.89374,-0.15762 -7.39751,-0.58919 -10.19861,-0.94624 -1.98852,-0.25344 -3.99094,-0.44736 -5.95073,-0.86887 -5.240019,-1.12703 -10.442652,-2.4266 -15.63067,-3.77287 -2.04953,-0.5317 -4.04926,-1.23959 -6.07389,-1.85938 -1.79639,-0.74846 -3.62869,-1.41599 -5.38918,-2.24538 -2.7998,-1.31903 -5.57285,-2.99837 -8.13915,-4.73314 -1.51859,-1.02654 -3.07947,-2.18464 -4.45705,-3.41888 -0.26982,-0.24173 -0.50614,-0.51844 -0.75921,-0.77767 0,0 13.01284,2.22071 13.01284,2.22071 z"
       inkscape:connector-curvature="0" />
    <path
       style="opacity:1;fill:#ffffff;fill-opacity:1;stroke:#ffffff;stroke-width:0.96499997;stroke-linecap:butt;stroke-linejoin:miter;stroke-miterlimit:4;stroke-dasharray:none;stroke-opacity:1;paint-order:normal"
       id="path907-5"
       d="m 116.88599,97.351069 c -0.13112,0.14576 -0.26828,0.28631 -0.39337,0.43728 -0.53268,0.64284 -0.3704,0.52652 -0.92693,1.22983 -0.69322,0.87604 -1.45098,1.705901 -2.18833,2.544381 -1.34275,1.40829 -2.60116,2.89305 -3.93208,4.31194 -0.46858,0.53195 -0.93044,1.05786 -1.48262,1.5031 -0.39324,0.48368 -0.30081,1.7848 -0.29852,2.39884 0.0148,0.63155 0.006,0.32354 0.0262,0.92405 0,0 -13.119942,0.004 -13.119942,0.004 v 0 c 0.0162,-0.60942 0.008,-0.29637 0.0242,-0.93916 0.0208,-1.05616 -0.0368,-2.13125 0.161233,-3.1719 0.12964,-0.26223 0.151,-0.35649 0.35655,-0.57014 0.41259,-0.42885 1.067223,-0.65492 1.40259,-1.18208 1.471521,-1.32146 2.828865,-2.74678 4.169539,-4.20029 1.14042,-1.279871 2.24605,-2.610831 3.04154,-4.138281 0,0 13.15992,0.84801 13.15992,0.84801 z"
       inkscape:connector-curvature="0" />
    <path
       style="opacity:1;fill:#ffffff;fill-opacity:1;stroke:#ffffff;stroke-width:0.96499997;stroke-linecap:butt;stroke-linejoin:miter;stroke-miterlimit:4;stroke-dasharray:none;stroke-opacity:1;paint-order:normal"
       id="path921-4"
       d="m 53.6023,170.6563 c 0.59524,0.85772 4.23365,-0.71177 5.25796,0.73115 0.19736,0.27801 -0.1942,0.74931 -0.505,0.88946 -0.42159,0.1901 -0.95499,0.1289 -1.38693,-0.0363 -0.20761,-0.0794 0.39297,-0.2786 0.6144,-0.25919 0.74423,0.0652 1.45585,0.33623 2.18377,0.50435 15.15199,0.92315 -7.98989,-0.70901 7.2267,1.11753 0.61027,0.0733 1.21879,-0.16063 1.82754,-0.24563 0.095,-0.0132 0.18851,-0.0626 0.28347,-0.0491 0.96212,0.13614 1.16419,0.30794 2.079,0.71374 8.09021,-0.0941 -1.88901,-0.42857 5.20831,1.16221 0.79377,0.17791 1.62756,-0.2102 2.43698,-0.12916 1.88807,0.18905 2.44947,0.75542 4.08614,1.45288 0.40665,0.17329 0.83208,0.29873 1.24812,0.4481 0.67417,0.0852 1.34835,0.17041 2.02253,0.25562 0.99825,0.1776 1.98924,0.40249 2.99476,0.5328 1.121641,0.14535 2.274668,0.0553 3.380368,0.29335 2.905473,0.62554 1.67253,1.03306 4.191913,2.32748 0.896054,0.46039 1.890068,0.6979 2.835112,1.04684 11.546307,1.97877 -2.680295,-0.22369 11.192007,1.01154 1.48355,0.1321 2.94455,0.46169 4.40013,0.77739 0.41969,0.091 0.99022,0.0713 1.21103,0.43959 -0.36156,1.20903 -0.56747,0.78797 0.0171,1.40602 1.06116,0.24986 2.1286,0.47444 3.18349,0.74959 1.34503,0.35082 2.65007,0.86317 4.01466,1.12788 1.08107,0.20971 2.19001,0.26515 3.29096,0.28929 0.093,0.002 0.26775,-0.18252 0.17996,-0.21319 -0.25645,-0.0896 -0.90578,0.24734 -0.81489,-0.009 0.1152,-0.32445 0.63761,-0.25998 0.95642,-0.38997 5.73067,3.32732 -3.08206,-1.53127 4.97707,1.76551 0.64024,0.2619 1.02138,0.96498 1.64399,1.26639 0.15095,0.0731 0.0832,-0.41217 -0.06,-0.49956 -4.34239,-2.65069 1.25769,1.80994 -2.21222,-1.08646 0.1521,0.10377 0.3042,0.20753 0.4563,0.3113 0.68448,0.18412 1.43372,0.20834 2.05344,0.55237 0.46742,0.2595 0.69528,0.8144 1.07905,1.18662 0.0744,0.0721 -0.0391,-0.25935 -0.14117,-0.27697 -0.36707,-0.0633 -0.74391,0.04 -1.11587,0.06 -0.0479,-0.0955 1.30236,-0.77262 1.35025,-0.67715 v 0 c 0.0114,0.38064 0.45181,2.13259 -0.90745,1.77279 -0.52682,-0.13945 -0.8327,-0.70339 -1.24126,-1.06405 -0.52612,-0.46446 -1.281,-0.76825 -1.56255,-1.4111 -0.15518,-0.35434 0.3215,-0.7037 0.48225,-1.05555 0.49641,0.12552 1.10253,0.041 1.48923,0.37657 0.48708,0.42274 1.70518,2.11691 0.10066,2.24634 -2.75005,0.22181 -4.55733,-1.69581 -6.89509,-2.73272 0.0355,-0.31231 -0.18494,-1.05437 0.10661,-0.93692 0.54825,0.22088 1.17884,0.83055 1.07265,1.41201 -0.0919,0.50343 -0.91998,0.55283 -1.43173,0.55425 -1.12104,0.003 -2.2282,-0.28377 -3.31933,-0.54104 -3.57871,-0.84382 -4.05772,-1.19841 -7.23584,-2.56437 -0.20893,-0.46042 -0.66364,-0.877 -0.62678,-1.38126 0.0249,-0.34076 0.9725,0.6138 0.67112,0.77475 -0.3498,0.18681 -0.64422,-0.55194 -1.03994,-0.57779 -1.56847,-0.10243 -3.13929,0.19732 -4.7111,0.20219 -7.88724,0.0244 -5.04707,0.75121 -10.905194,-2.49658 -0.932274,-0.37584 -1.877961,-0.71999 -2.796825,-1.12754 -0.690587,-0.30629 -1.31577,-0.75973 -2.027763,-1.0123 -1.95308,-0.69284 -3.62837,-0.54933 -5.693748,-0.90578 -1.01724,-0.17556 -2.00852,-0.47772 -3.0116,-0.72147 -0.64463,-0.15663 -1.28765,-0.31977 -1.93148,-0.47966 -2.815,-0.40631 0.16408,0.0875 -3.29684,-0.74817 -1.49167,-0.36018 -2.96514,-0.57191 -4.47752,-0.81914 -7.35473,-1.75146 2.56924,0.15077 -5.27316,-1.2644 -0.39333,-0.17281 -0.80068,-0.31672 -1.18001,-0.51843 -0.0283,-0.0151 0.03,-0.0567 0.045,-0.0851 -0.20529,-0.0142 -0.41057,-0.0285 -0.61585,-0.0427 -0.7867,0.091 -1.55301,0.41471 -2.3444,0.38513 -0.54001,-0.0202 -6.64119,-1.12737 -7.28437,-1.24217 -0.79578,-0.21799 -1.69741,-0.20144 -2.38735,-0.65396 -0.32198,-0.21119 -0.62164,-0.89095 -0.30742,-1.11351 0.39907,-0.28267 0.96579,0.17066 1.43255,0.31657 0.15873,0.0496 0.58935,0.27665 0.42356,0.26363 -0.54628,-0.0429 -1.05693,-0.34514 -1.60478,-0.3564 -1.27686,-0.0263 -2.54903,0.16324 -3.82355,0.24486 -0.088,-0.0327 0.37447,-1.27727 0.46248,-1.24457 z"
       inkscape:connector-curvature="0" />
    <path
       style="opacity:1;fill:#ffffff;fill-opacity:1;stroke:#ffffff;stroke-width:0.96499997;stroke-linecap:butt;stroke-linejoin:miter;stroke-miterlimit:4;stroke-dasharray:none;stroke-opacity:1;paint-order:normal"
       id="path923-7"
       d="m 144.40666,184.61864 c 1.62958,-2.9727 2.98308,-6.72386 5.42999,-9.16288 0.36909,-0.36791 0.91016,-0.52475 1.29447,-0.87671 0.51243,-0.46928 1.63599,-2.87137 1.67373,-2.94453 2.75848,-5.38628 0.16898,0.0676 1.89742,-4.61467 0.23876,-0.64679 0.57996,-1.25108 0.86201,-1.8802 0.34154,-0.76187 0.83063,-1.47697 1.00877,-2.29267 1.29986,-5.95202 -1.83809,1.31095 1.31209,-5.03165 0.12507,-0.82673 0.11684,-1.685 0.37526,-2.4802 0.25581,-0.78726 0.73805,-1.48283 1.14652,-2.20282 0.93483,-1.64779 2.39755,-3.64562 3.11926,-5.33101 3.98165,-9.2983 -1.15988,-0.0123 3.64168,-8.13286 0.11522,-0.68334 0.23043,-1.36666 0.34563,-2.05 0.0666,-0.24216 0.14905,-0.48051 0.19975,-0.72648 0.13458,-0.65306 0.0997,-1.35278 0.35564,-1.96847 0.52207,-1.2559 1.36046,-2.35833 1.95205,-3.58302 1.8102,-3.74726 1.81133,-4.23349 3.00666,-8.08132 0.29389,-1.3708 1.17539,-2.52798 1.56906,-3.85988 0.89114,-3.01509 -0.3274,-1.02626 1.26839,-3.97548 0.45984,-0.84984 1.03308,-1.63386 1.51654,-2.47049 0.61517,-1.06454 1.18562,-2.15427 1.77843,-3.2314 0.24309,-0.56005 1.96833,-3.99778 1.79055,-5.15344 -0.0771,-0.50141 -0.9501,-0.67247 -0.9616,-1.17965 -0.013,-0.5626 0.61106,-0.94536 0.90245,-1.42677 1.49755,-2.474031 0.0991,-0.52524 2.46229,-3.458291 0.18339,-1.39761 1.51335,-2.50077 1.74979,-3.90849 0.0453,-0.26925 -0.32825,-0.53919 -0.21879,-0.78931 0.11255,-0.25718 0.49654,-0.26232 0.74011,-0.4019 0.86571,-0.49613 0.53621,-0.19021 0.72618,-1.42765 0.36866,-0.53838 0.85607,-1.01238 1.10598,-1.61513 0.19905,-0.48009 -0.10897,-1.13119 0.20454,-1.54568 0.18696,-0.24716 0.79189,-0.23033 0.9285,0.0478 0.19046,0.38785 -0.20947,0.83916 -0.2839,1.26479 -0.049,0.28011 0.18258,0.75441 -0.0856,0.84878 -0.28781,0.10124 -0.47982,-0.37698 -0.71972,-0.56546 0.33347,-1.72595 -0.0347,-0.96183 1.09909,-2.29494 0.0391,-0.0609 0.90049,0.49307 0.86131,0.55397 v 0 c -1.47896,0.80143 -1.03651,0.1955 -1.39901,1.76326 -0.77272,0.23085 -0.49104,0.2558 -0.12944,-0.3574 0.12636,-0.21429 0.14,-0.50878 0.32996,-0.66941 0.17584,-0.14869 0.72993,-0.39668 0.66835,-0.17479 -0.14338,0.51686 -0.6931,0.82377 -0.975,1.2801 -0.33539,0.5429 -0.57963,1.13706 -0.86945,1.70559 -0.0378,0.16034 -0.25771,1.69995 -0.68694,1.98858 -0.58828,0.39557 -0.57645,-0.80762 -0.91264,0.50488 -0.95662,3.73468 1.41515,-0.79872 -1.65187,4.01604 -0.34786,0.83456 -0.56413,1.737081 -1.04355,2.503671 -0.29234,0.46745 -0.81548,0.74226 -1.22043,1.11641 -0.32817,0.30321 -0.93773,0.47076 -0.97892,0.91567 -0.0476,0.51379 0.66442,0.83788 0.76979,1.34301 0.48048,2.30327 -0.47363,3.26103 -1.44898,5.39298 -0.0641,0.15723 -2.0907,5.32817 -2.61894,5.99884 -0.50377,0.63957 -1.5502,0.78426 -1.9201,1.50953 -0.30173,0.59159 0.19617,1.3262 0.13645,1.98761 -0.13268,1.46966 -1.02264,2.80961 -0.99712,4.31313 -2.30634,5.20177 -0.94177,2.64067 -4.14579,7.65535 -0.57139,1.16059 -0.80942,2.45768 -1.24611,3.67538 -0.19617,0.54701 -0.47213,1.06429 -0.65178,1.61697 -0.33011,1.01553 -0.19444,2.15674 -0.79812,3.10249 -0.58842,1.26099 -1.29733,2.47246 -1.76526,3.78295 -0.53747,1.50526 -0.51125,3.20924 -1.23946,4.63205 -0.58834,1.14954 -1.97466,1.74187 -2.60079,2.87129 -0.39804,0.71793 -0.10994,1.65156 -0.34303,2.43867 -2.45509,8.2902 0.56103,-5.66904 -1.48376,4.59887 -2.55405,8.77969 0.94519,-2.04616 -2.24917,4.83403 -0.33471,0.72092 -0.31867,1.56136 -0.57055,2.31521 -0.2278,0.68178 -0.52723,1.34074 -0.86333,1.97616 -1.91525,3.62088 -0.7006,-0.025 -1.87012,4.64292 -0.0404,0.0944 -1.20078,2.98498 -1.61783,3.48531 -1.35673,1.62776 -1.29549,0.0591 -2.79492,2.43417 -1.42681,2.25996 -1.6887,5.14058 -3.50483,7.21146 -0.0327,0.0963 -1.39451,-0.36661 -1.36177,-0.46291 z"
       inkscape:connector-curvature="0" />
    <path
       style="opacity:1;fill:#ffffff;fill-opacity:1;stroke:#ffffff;stroke-width:0.96499997;stroke-linecap:butt;stroke-linejoin:miter;stroke-miterlimit:4;stroke-dasharray:none;stroke-opacity:1;paint-order:normal"
       id="path925-5"
       d="m 52.71367,179.26719 c 2.05109,0.73143 12.65379,4.48578 14.60256,5.28937 1.63954,0.67608 3.22012,1.48999 4.79457,2.30627 0.46618,0.24169 1.05443,0.40866 1.31803,0.86282 0.16938,0.29183 -1.21959,-0.0394 -0.97508,-0.27195 0.44524,-0.42343 1.18456,-0.32704 1.77684,-0.49057 2.14261,0.37462 4.16851,0.59234 6.1726,1.56358 0.77981,0.37793 1.46371,0.94757 2.08871,1.54783 0.13046,0.1253 0.25474,0.48439 0.0815,0.53649 -1.49727,0.4504 -1.31257,-0.14516 -1.44355,-1.00468 0.26872,-0.19123 0.48128,-0.63056 0.80614,-0.57367 0.74099,0.12975 1.32889,0.70546 1.99053,1.0634 0.62553,0.3384 2.41242,1.44425 3.36771,1.64051 0.1633,0.0335 -0.25815,-0.21159 -0.39541,-0.30619 -0.22516,-0.1552 -0.46055,-0.29501 -0.69082,-0.44251 0.36327,-0.23377 0.66248,-0.63804 1.08981,-0.70128 1.97954,-0.29304 4.163498,1.0301 5.943291,1.71548 0.0274,0.0105 -0.0306,-0.0508 -0.0518,-0.0711 -0.125193,-0.11979 -0.257453,-0.23197 -0.386173,-0.34797 0.0893,-0.30507 -0.0254,-0.79218 0.26774,-0.91523 1.872163,-0.78601 2.838056,0.1164 4.550107,0.58079 0.602547,0.16344 1.244304,0.15955 1.841661,0.34106 0.105147,0.032 0.275407,0.21458 0.183087,0.27419 -0.11016,0.0711 -0.239417,-0.10702 -0.359127,-0.16053 0.17794,-0.52746 0.235257,-1.088 1.146074,-0.99866 0.50034,0.0491 0.84188,0.58324 1.32608,0.71851 0.54241,0.15152 1.126,0.0549 1.68509,0.12267 1.78165,0.21611 0.66399,0.3841 2.05649,0.0219 0.29817,-0.2046 0.5331,-0.60168 0.89451,-0.61379 0.65344,-0.0219 1.26643,0.32745 1.8911,0.52043 0.78284,0.24184 1.5468,0.54225 2.32982,0.78351 0.72109,0.22219 1.46604,0.3649 2.18092,0.60634 0.51681,0.17453 0.96202,0.60678 1.50655,0.63902 0.18383,0.0109 -0.0202,-0.36776 -0.0303,-0.55163 0.5001,0.81727 0.16866,0.44577 1.82149,0.95223 4.82475,1.47841 0.30223,-0.23409 5.59904,1.85842 0.58803,0.23231 1.13241,0.60767 1.75446,0.72082 0.13004,0.0237 0.026,-0.26307 0.0389,-0.3946 -0.1618,0.002 -0.6459,0.0256 -0.48541,0.005 1.07771,-0.13858 2.53394,-0.3168 3.54356,0.23004 0.14333,0.0776 1.90926,2.69407 2.76598,1.51423 0.40464,0.0764 -0.26918,-0.096 0.15177,0.49498 0.25637,0.35991 0.77352,0.4025 1.09459,0.11196 0.12478,-0.11291 0.11345,-0.31688 0.17018,-0.47533 0.0609,-0.0451 0.69807,0.8155 0.63723,0.86056 v 0 c -0.43915,0.0734 -1.34419,0.31051 -1.82153,0.0885 -0.77916,-0.36235 -0.81681,-1.00956 0.28244,-1.17579 0.18217,-0.0276 -0.14593,0.33836 -0.21889,0.50754 -0.71329,0.30966 -1.36061,0.71138 -2.23116,0.25246 -0.57245,-0.30176 -0.8703,-0.95794 -1.30546,-1.43691 -0.57704,-0.18174 -1.19284,-0.26908 -1.73113,-0.54522 -0.1232,-0.0632 0.005,-0.47444 -0.11162,-0.40012 -0.21321,0.13559 -0.22085,0.45453 -0.33127,0.68181 -1.4871,0.20706 -0.0275,0.11397 -2.45808,-0.53043 -1.88773,-0.50046 -4.05325,-0.63797 -5.80395,-1.65251 -0.38218,-0.22147 -0.4708,-0.81466 -0.87326,-0.9967 -0.16765,-0.0758 -0.11131,0.35078 -0.16697,0.52617 -0.19446,-0.0475 -0.39469,-0.0756 -0.58337,-0.14237 -0.50603,-0.17921 -0.97311,-0.47633 -1.49681,-0.59429 -0.79561,-0.17924 -1.64711,-0.0595 -2.42937,-0.29014 -0.21679,-0.0639 -2.62967,-1.47177 -3.32614,-1.45165 -0.35859,0.0104 -0.64068,0.32297 -0.96102,0.48445 -0.41291,0.0304 -0.82621,0.0559 -1.23873,0.0912 -0.49781,0.0426 -0.99622,0.20376 -1.49211,0.14265 -0.53251,-0.0656 -1.00628,-0.37805 -1.52518,-0.51453 -0.44448,-0.11689 -0.92642,-0.0832 -1.35713,-0.24355 -0.0777,-0.0289 0.20197,-0.19138 0.12288,-0.2161 -0.0954,-0.0299 -0.16037,0.11952 -0.24056,0.17929 -0.0712,0.27331 -0.002,0.63328 -0.213497,0.81993 -0.445537,0.39235 -2.052428,-0.25682 -2.617155,-0.38389 -0.734227,-0.16521 -1.483377,-0.25903 -2.217227,-0.42592 -0.354083,-0.0805 -0.685263,-0.25144 -1.042703,-0.31541 -0.11314,-0.0202 -0.22532,0.0455 -0.337987,0.0683 0.0239,0.37495 0.255087,0.79689 0.0718,1.12486 -0.127807,0.22867 -0.513867,0.15773 -0.77465,0.13267 -0.61562,-0.0591 -3.586258,-0.76566 -4.077478,-0.94901 -0.4672,-0.17439 -0.8409,-0.54948 -1.30555,-0.73055 -0.28608,-0.11148 -0.60759,-0.0889 -0.91138,-0.13336 0.19886,0.11395 2.33971,0.93272 0.30335,1.58323 -0.67899,0.2169 -3.44993,-1.33014 -3.62255,-1.40868 -0.57311,-0.26072 -1.2717,-0.30739 -1.74536,-0.72221 -0.21846,-0.19133 -0.0472,-0.57888 -0.0707,-0.86832 0.17919,0.13173 0.42404,0.20394 0.53757,0.39518 0.30555,0.51467 0.73537,1.46997 -0.33115,1.09981 -0.77145,-0.26774 -1.51376,-0.62741 -2.21652,-1.04328 -4.10008,-2.42621 -1.00825,-1.51715 -4.86985,-2.26583 -0.38184,-0.003 -0.76368,-0.007 -1.14552,-0.01 -0.18918,0.30166 -0.21432,0.85998 -0.56754,0.90499 -0.5555,0.0708 -1.05575,-0.38195 -1.5556,-0.63443 -1.53845,-0.77711 -2.9976,-1.70824 -4.55289,-2.45108 -7.44989,-3.55824 -6.66739,-2.98875 -14.56433,-5.33006 -0.0554,-0.0335 0.41884,-0.81705 0.47424,-0.78351 z"
       inkscape:connector-curvature="0" />
    <path
       style="opacity:1;fill:#ffffff;fill-opacity:1;stroke:#ffffff;stroke-width:0.96499997;stroke-linecap:butt;stroke-linejoin:miter;stroke-miterlimit:4;stroke-dasharray:none;stroke-opacity:1;paint-order:normal"
       id="path931-8"
       d="m 142.94811,180.50552 c 1.85851,-3.60698 2.18285,-7.72662 3.63394,-11.46323 0.29836,-0.76824 0.70359,-1.55519 1.34172,-2.07677 0.30725,-0.25111 0.90203,-0.26538 1.19044,0.007 0.27971,0.26436 0.25334,1.47306 0.0382,1.15397 -0.3117,-0.46221 -0.24082,-1.08867 -0.36123,-1.633 0.43988,-1.39063 0.87975,-2.78125 1.31963,-4.17187 0.61676,-1.47482 1.34498,-2.90785 1.85029,-4.42448 0.31292,-0.93919 0.46674,-1.92814 0.59337,-2.90995 0.0343,-0.26581 -0.30712,-0.60837 -0.11545,-0.79569 0.16661,-0.16285 0.49645,0.0999 0.63834,0.28466 0.0841,0.10953 -0.0759,0.26554 -0.11388,0.39831 -0.0907,-0.23528 -0.30945,-0.45647 -0.27212,-0.70586 0.13513,-0.90292 1.18625,-2.45485 1.58299,-3.15633 0.15165,-0.26815 0.14594,-0.69247 0.4264,-0.81994 0.17324,-0.0787 0.39167,0.6477 0.26504,0.50564 -0.34611,-0.38837 -0.62053,-0.83511 -0.93082,-1.25266 1.06116,-0.27496 0.31574,-1.51572 0.82305,-2.04902 0.19494,-0.20489 0.5803,-0.11187 0.79525,-0.29568 0.17445,-0.14913 0.0795,-0.52325 0.28413,-0.62711 0.51836,-0.26308 0.2176,0.97662 0.38271,-0.0282 -0.73931,-0.7519 -1.11111,-0.68659 -0.40905,-1.79392 0.1364,-0.21513 0.45435,-0.25524 0.61624,-0.45191 0.79008,-0.95993 -0.27864,-0.049 -0.22333,-0.47118 0.035,-0.2669 0.27799,-0.46103 0.41697,-0.69155 -0.57016,-1.47227 -0.49454,-0.46504 0.12999,-1.56149 0.0773,-0.13561 0.004,-0.34206 0.11266,-0.45445 0.13585,-0.14099 0.51361,-0.0322 0.54234,-0.22541 0.0331,-0.22313 -0.28774,-0.34747 -0.43161,-0.5212 0.1269,-0.41908 0.25376,-0.83815 0.38064,-1.25723 0.0835,-0.35472 0.55296,-2.39681 0.66914,-2.69072 0.74258,-1.87834 0.7391,-0.5163 0.94533,-2.61245 0.0837,-0.85079 0.19178,-0.76963 -0.19003,-0.89247 0.0257,-0.14779 0.006,-0.31136 0.0772,-0.44338 0.13093,-0.24267 0.42379,-0.38829 0.51242,-0.64941 0.31255,-0.92098 0.181,-1.40802 0.0481,-2.26691 -0.003,-0.017 -0.0155,0.0439 -2.6e-4,0.0517 0.19876,0.10076 0.41049,0.17357 0.61573,0.26036 0.35574,-0.0238 0.11794,0.0289 0.17885,-0.74414 0.0504,-0.63862 0.29431,-1.29451 0.14139,-1.91659 -0.14874,-0.60504 -0.85027,-0.97414 -1.00064,-1.57878 -0.38753,-1.55823 1.4326,-0.55999 1.669,-0.48992 1.01575,-0.19931 1.49961,-0.41467 1.43337,-1.69082 -0.0169,-0.32405 -0.31856,-0.58238 -0.36083,-0.9041 -0.0997,-0.75882 0.25729,-0.42595 0.48388,-0.29835 0.31676,-0.42254 1.13327,-0.31146 1.37916,-0.77863 0.24892,-0.47293 -0.0394,-1.10347 0.17279,-1.59397 0.17726,-0.40976 0.72002,-0.56873 0.93264,-0.96131 0.0822,-0.1518 -0.30733,-0.44731 -0.1423,-0.49795 0.2324,-0.0713 0.42856,0.22958 0.64285,0.34437 -0.23858,0.0938 -1.43152,0.65233 -0.71012,-0.79709 0.22917,-0.46048 1.0285,-0.37693 1.31837,-0.80181 0.33618,-0.49277 0.25447,-1.16631 0.41608,-1.74052 0.53797,-1.91147 0.54416,-1.74951 1.35056,-3.48257 -0.0683,-0.10561 -0.28987,-0.2243 -0.20473,-0.31684 0.53334,-0.57975 1.45897,-0.71602 1.95471,-1.32824 0.71833,-0.88712 1.3345,-1.92139 0.97572,-3.10517 0.0285,1.04137 -0.69358,-0.40473 -0.5836,-0.68337 0.29855,-0.75643 1.08347,-1.213 1.6252,-1.8195 0.66152,-1.13148 1.56889,-2.15144 1.98457,-3.39446 0.5435,-1.625221 0.47217,-3.398581 0.84639,-5.070921 0.35673,-1.59422 0.89535,-3.14221 1.34303,-4.71332 0.3179,-1.1819 0.50884,-2.40552 0.95369,-3.54572 0.51329,-2.96713 0.84948,0.12213 1.05532,-0.16862 0.25806,-0.36451 0.0948,-0.88895 0.17387,-1.32848 0.34247,-1.90285 0.54274,-2.33673 1.14021,-4.33589 0.10853,-0.54272 -0.058,-1.22921 0.32558,-1.62814 0.20659,-0.21484 0.62525,0.30611 0.66114,0.60199 0.085,0.7005 -0.9018,1.7179 -1.23072,1.47954 -1.25498,-0.90946 -0.038,-2.65232 0.26719,-3.44677 -0.10056,-0.64825 -0.1386,-1.30934 -0.30167,-1.94475 -0.0444,-0.17301 -0.4637,-0.52775 -0.30968,-0.43729 0.13708,0.0805 1.35477,0.93369 0.62193,1.42424 -0.15931,0.10665 -0.21633,-0.35238 -0.19118,-0.54244 0.0556,-0.42006 0.28111,-0.79945 0.42167,-1.19918 0.14713,-0.34249 0.32612,-0.67298 0.44137,-1.02748 0.0245,-0.0752 -0.0999,-0.27376 -0.0308,-0.23521 0.25383,0.14176 0.55906,0.30515 0.65038,0.58118 0.0555,0.16781 -0.21177,0.28306 -0.31766,0.42459 -0.003,0.0422 -0.60013,-0.004 -0.59686,-0.0462 v 0 c 0.0586,-0.39498 0.004,-1.05431 0.66111,-1.09582 0.62335,-0.0394 -3.56024,3.22177 0.2028,1.86276 -0.23022,0.38758 -0.31171,0.91855 -0.69064,1.16273 -0.0771,0.0497 -2.59384,0.54107 -1.18081,-1.00461 2.04551,-2.23755 1.39105,1.99801 1.28006,2.19501 -0.19108,0.67071 -0.26684,1.38564 -0.57322,2.01213 -0.17877,0.36555 -0.5459,0.60489 -0.84275,0.88323 -0.14289,0.134 0.31943,-0.2623 0.37944,-0.44878 0.13928,-0.43288 -0.17088,-1.08537 0.19922,-1.34959 0.34234,-0.24441 0.99257,-0.0171 1.21534,0.33971 0.30724,0.49216 0.0553,1.15906 0.0819,1.73865 -0.38953,0.79893 -0.83754,1.57191 -1.16857,2.3968 -0.25091,0.62523 -0.20576,1.37276 -0.5713,1.93868 -0.20213,0.31292 -0.714,0.2592 -1.00143,0.49619 -0.12173,0.10036 0.4107,-0.20413 0.46978,-0.0579 0.13131,0.32518 -1.4e-4,0.70597 -0.0692,1.0498 -0.23905,1.19055 -0.56847,2.36116 -0.85272,3.54174 -0.305,1.62598 -0.42849,3.29678 -0.91503,4.87799 -0.59327,1.92806 -2.81219,6.384111 -3.85993,8.377081 -0.3686,0.70113 -0.55691,1.56755 -1.17113,2.06773 -0.28638,0.23321 -0.89598,0.0865 -1.08347,-0.23169 -0.16786,-0.28488 0.65957,0.048 0.98936,0.072 0.0932,0.1834 0.28164,0.34446 0.27974,0.55019 -0.0146,1.57541 -0.47857,1.79556 -1.44774,3.01782 -0.41736,0.52634 -0.6994,1.21479 -1.27556,1.56014 -0.20731,0.12424 -0.37893,-0.75182 -0.14067,-0.7113 0.27675,0.0471 0.2529,0.50125 0.37934,0.75188 -0.21221,3.29049 0.2765,0.53141 -1.39449,3.78478 -0.51652,1.00563 -0.3334,2.22061 -1.63539,2.63619 -0.42854,0.13677 -0.89861,-0.0781 -1.34812,-0.0609 -0.14633,0.006 0.28582,0.064 0.42873,0.096 0.17177,-0.0771 0.36605,-0.34581 0.51533,-0.2311 0.17676,0.13581 0.0413,0.44406 0.0516,0.66673 0.025,0.54831 0.30964,1.15936 0.0551,1.64568 -0.26934,0.51476 -0.97975,0.62834 -1.43431,0.99013 -1.40577,1.11885 -0.24187,0.84653 -2.01113,0.86805 0.18413,-0.24581 0.2486,-0.6923 0.55239,-0.73743 0.21548,-0.032 0.12254,0.41819 0.1773,0.62904 0.10913,0.42023 0.35415,0.83169 0.31427,1.26401 -0.106,1.14904 -0.62232,1.79759 -1.75304,1.96622 -0.24378,0.0363 -0.46176,-0.17256 -0.69265,-0.25883 0.083,-0.0658 0.25615,-0.303 0.2489,-0.19737 -0.0107,0.15651 -0.17477,0.26056 -0.26216,0.39085 -0.0161,0.54377 -0.0323,1.08756 -0.0485,1.63134 0.11434,0.80483 0.81124,1.57077 0.61552,2.35976 -0.5778,2.32924 -1.30643,0.63074 -1.47714,0.28673 0.0761,-0.31391 0.28571,-0.62384 0.22846,-0.94174 -0.0391,-0.21737 -0.35272,0.38337 -0.29084,0.5954 0.12948,0.44355 0.77661,0.67323 0.79592,1.13487 0.009,0.23077 -1.00944,2.18339 -1.38315,2.41225 -0.13057,0.0799 -0.19945,-0.23236 -0.29917,-0.34852 0.63107,0.18804 1.33014,0.20731 1.13239,1.32965 -0.0912,0.51749 -0.62275,0.84855 -0.89147,1.3001 -0.23053,0.38735 -0.49328,0.77327 -0.60267,1.21055 -0.1127,0.45058 -0.0323,0.92837 -0.0485,1.39255 -0.12536,0.39838 -0.25073,0.79676 -0.37611,1.19513 -0.007,0.49211 0.0513,0.98961 -0.0221,1.47634 -0.24143,1.60781 -0.10318,0.35674 -0.68278,0.8486 -0.0674,0.0571 -0.0171,0.1772 -0.044,0.26134 -0.3097,0.96781 -0.0894,-0.62508 -0.2159,1.4049 0.11789,1.50503 0.23308,0.61384 -0.21956,1.67185 -0.0271,0.0633 0.18135,-0.19555 0.11733,-0.1701 -0.14433,0.0574 -0.35708,0.11945 -0.37729,0.27345 -0.0306,0.23278 0.1702,0.43761 0.25531,0.65641 -0.0581,0.30609 -0.11624,0.61218 -0.17436,0.91827 -0.0259,0.25031 -0.0205,0.8143 -0.27844,1.00819 -0.13309,0.10006 -0.33838,0.0199 -0.49265,0.0823 -0.80381,0.32647 -0.50761,1.57884 -0.582,2.17449 -0.35411,0.21055 -0.75317,0.35936 -1.06233,0.63167 -0.0996,0.0878 0.31475,-0.14972 0.39577,-0.0446 0.23329,0.30278 0.49163,0.70458 0.39837,1.07526 -0.16207,0.64417 -0.78703,1.07722 -1.08881,1.66896 -1.03097,2.02149 0.19381,1.488 -1.72418,1.78898 0.081,-0.15313 0.10015,-0.3617 0.24325,-0.45939 0.821,-0.56049 0.93016,0.0646 0.83513,0.8645 -0.50362,4.23884 -2.93723,7.48656 -4.20322,11.49126 -0.34738,0.48562 -0.62019,1.03443 -1.04217,1.45686 -0.69913,0.69989 1.13268,-2.64693 0.6732,-0.80948 -0.18806,0.75205 -0.8155,1.33343 -1.06527,2.06729 -5.96482,17.52638 3.56286,-7.51718 -3.79912,11.36648 -0.0167,0.0757 -1.08687,-0.16079 -1.07015,-0.23646 z"
       inkscape:connector-curvature="0" />
    <path
       style="opacity:1;fill:#ffffff;fill-opacity:1;stroke:#ffffff;stroke-width:0.96499997;stroke-linecap:butt;stroke-linejoin:miter;stroke-miterlimit:4;stroke-dasharray:none;stroke-opacity:1;paint-order:normal"
       id="path861-4"
       d="m 90.179221,57.249299 c -2.415441,4.63123 -5.004621,9.16387 -7.682091,13.64773 -7.80121,12.21744 -14.61027,25.0345 -21.35419,37.855341 -4.29169,8.06155 -8.20583,16.31495 -11.85611,24.68428 -1.83408,4.01356 -3.36056,8.15239 -4.94201,12.26843 -1.16741,2.93905 -2.39421,5.85298 -3.53618,8.8025 -0.4888,1.27713 -0.89715,2.58314 -1.30284,3.8885 -0.0178,0.089 -0.061,0.1765 -0.0533,0.26689 0.0378,0.44363 1.33324,0.83117 1.45596,0.87984 2.36955,0.93995 2.01751,0.74008 4.99234,1.55894 9.62029,2.48237 19.50095,3.68281 29.31135,5.12376 9.59189,1.40885 9.46121,1.43422 18.963808,3.01946 7.916402,1.3833 15.813762,2.91348 23.613392,4.8602 4.90443,1.22411 9.73513,2.67937 14.5477,4.21744 1.88311,0.47545 3.62984,1.41952 5.5134,1.89991 0.58076,0.14812 1.18976,0.36076 1.77981,0.2556 0.49825,-0.0888 1.58124,-0.38942 1.2889,-0.80255 -2.11844,-2.99361 -4.00611,5.5632 -0.73798,-3.46664 0.41023,-1.5449 0.84377,-3.08378 1.23066,-4.63468 1.15675,-4.63701 2.11057,-9.03278 3.14684,-13.71488 1.67026,-7.54662 3.31276,-15.09883 5.00653,-22.64024 2.25451,-9.85471 4.93588,-19.60128 7.95024,-29.24841 0.35769,-1.07846 0.70495,-2.16043 1.07307,-3.23537 0.72207,-2.10848 1.28551,-3.656351 2.11725,-5.711871 1.17771,-2.91058 2.51053,-5.75604 3.79795,-8.6188 2.44438,-5.36716 4.99255,-10.68366 7.66453,-15.94088 1.03025,-2.22601 2.30026,-4.31917 3.57674,-6.40814 1.04616,-1.65214 1.85646,-3.43377 2.72831,-5.17972 0.97313,-1.81033 1.80539,-3.68415 2.61088,-5.57276 0.33313,-0.86103 0.8255,-1.64735 1.19684,-2.48938 0.0187,-0.0631 0.0592,-0.12361 0.0561,-0.18937 -0.001,-0.0225 -0.0438,-0.0107 -0.0658,-0.0157 -0.12811,-0.0291 -0.25713,-0.0543 -0.38448,-0.0866 -1.4527,-0.36814 -2.90571,-0.72088 -4.36569,-1.0611 -5.92099,-1.35914 -11.85982,-2.65128 -17.71611,-4.27523 -1.61721,-0.44845 -3.22315,-0.93655 -4.83473,-1.40482 -9.38647,-2.686 -18.77521,-5.38187 -28.23448,-7.80189 -6.19132,-1.43778 -12.39574,-2.81785 -18.6513,-3.94756 -3.11353,-0.52752 -6.22868,-1.05596 -9.360971,-1.46105 -0.738957,-0.0906 -1.480791,-0.15691 -2.224238,-0.19608 -0.278037,-0.0147 -0.673757,-0.0633 -0.94985,0.0549 -0.13815,0.0592 -0.24427,0.17516 -0.3664,0.26275 0.983703,-0.50399 1.891897,-1.1961 2.951081,-1.51197 0.291197,-0.0868 -0.335227,0.50784 -0.479957,0.77503 -0.20051,0.37016 -0.383277,0.7501 -0.554497,1.13469 -0.679877,1.5271 -1.178514,3.11793 -1.692737,4.70551 -0.848703,2.86583 -1.75922,5.71225 -2.664863,8.5605 -0.55411,1.8083 -1.13393,3.60625 -1.78311,5.38253 -0.31005,0.83739 -0.610937,1.67722 -0.915817,2.51643 -0.593881,1.44698 -1.167691,2.90212 -1.726781,4.36287 -0.60891,1.59152 -1.38788,3.10736 -2.05118,4.67548 -0.69672,1.68967 -1.38092,3.38401 -2.12466,5.05373 -0.27072,0.56614 -0.53952,1.13276 -0.79563,1.70563 0,0 -3.56526,1.63072 -3.56526,1.63072 v 0 c 0.26357,-0.58296 0.54278,-1.15786 0.83752,-1.72587 0.76376,-1.66048 1.46711,-3.34699 2.13766,-5.04709 0.64738,-1.57125 1.42426,-3.08087 2.04983,-4.66133 0.54879,-1.44927 1.1232,-2.8886 1.67759,-4.33574 0.14729,-0.39187 0.24565,-0.79774 0.39444,-1.18792 0.059,-0.15479 0.29663,-0.65715 0.34891,-0.78796 0.0733,-0.18343 0.13475,-0.37138 0.20212,-0.55707 0.69018,-1.78046 1.3152,-3.58099 1.87625,-5.40695 0.952381,-2.85208 1.868288,-5.71598 2.740428,-8.5936 0.49815,-1.5822 0.98123,-3.16914 1.596543,-4.71112 0.153317,-0.38422 0.315997,-0.76489 0.489787,-1.14029 0.12714,-0.27462 0.17611,-0.61982 0.41253,-0.80873 1.162913,-0.92918 2.4734,-1.65687 3.710094,-2.48531 0.15186,-0.0507 0.298187,-0.12278 0.455577,-0.15208 0.258757,-0.0482 0.719747,-2.3e-4 0.968294,0.0206 0.730707,0.0613 1.459517,0.14545 2.184617,0.25491 3.07004,0.48038 6.12734,1.03836 9.18205,1.60727 6.17741,1.22515 12.31234,2.64922 18.43366,4.1274 9.40228,2.51294 18.72288,5.3263 28.11019,7.89536 1.63086,0.45155 3.25592,0.92464 4.89259,1.35464 5.96415,1.56694 12.00467,2.82556 18.05065,4.02859 1.2096,0.2432 2.42196,0.47285 3.62931,0.72694 0.47605,0.10019 1.53537,0.17211 1.74995,0.79387 0.0286,0.0828 -0.0226,0.17378 -0.0339,0.26068 -0.32957,0.88892 -0.92356,1.65224 -1.2715,2.53626 -0.84744,1.8853 -1.66243,3.78433 -2.64182,5.60752 -0.86672,1.74853 -1.65382,3.54109 -2.68921,5.20006 -1.31442,2.12263 -2.67548,4.21901 -3.77349,6.46688 -2.80432,5.24012 -5.42534,10.57138 -7.84738,15.99995 -2.55582,5.77457 -5.16922,11.53413 -7.07758,17.566241 -3.19364,9.71278 -6.0677,19.52804 -8.47221,29.46839 -1.79056,7.53393 -3.50383,15.07758 -5.06562,22.66292 -0.40054,1.94528 -2.21316,11.14652 -2.71779,13.51925 -0.32501,1.52822 -0.69043,3.04756 -1.03565,4.57134 -1.41611,4.68472 -0.40775,3.38262 -5.29766,7.27572 -0.3953,0.31473 -0.89592,0.54736 -1.4001,0.58106 -0.58501,0.0391 -1.15959,-0.19713 -1.71905,-0.37257 -1.80326,-0.56548 -3.47144,-1.51716 -5.28932,-2.04126 -3.68986,-1.28986 -4.54681,-1.62833 -8.47969,-2.82239 -9.47947,-2.87806 -19.16333,-5.01831 -28.918252,-6.72691 -9.119108,-1.54227 -9.741388,-1.71442 -18.973878,-3.00316 -10.06528,-1.405 -20.19219,-2.48287 -30.14821,-4.57969 -2.68934,-0.61569 -3.07051,-0.6048 -5.32992,-1.39684 -0.58395,-0.2047 -1.64762,-0.50067 -1.82976,-1.25739 -0.0256,-0.10655 0.0237,-0.21789 0.0356,-0.32683 0.42752,-1.34394 0.94389,-2.66173 1.43812,-3.98194 1.18136,-2.94523 2.41618,-5.86869 3.57888,-8.82112 1.65711,-4.16678 3.28014,-8.34912 5.20012,-12.40486 3.8075,-8.46992 7.90858,-16.80474 12.37864,-24.94657 3.60715,-6.68091 7.23389,-13.350981 10.88892,-20.005851 2.02048,-3.6788 5.13028,-9.34101 7.276,-13.0575 0.89357,-1.54772 1.82833,-3.07128 2.74249,-4.60692 2.54182,-4.37458 5.04261,-8.77621 7.16361,-13.37441 0,0 3.578541,-1.63253 3.578541,-1.63253 z"
       inkscape:connector-curvature="0" />
  </g>
</svg>
