<?xml version="1.0" encoding="UTF-8" standalone="no"?>
<!-- Created with Inkscape (http://www.inkscape.org/) -->

<svg
   xmlns:dc="http://purl.org/dc/elements/1.1/"
   xmlns:cc="http://creativecommons.org/ns#"
   xmlns:rdf="http://www.w3.org/1999/02/22-rdf-syntax-ns#"
   xmlns:svg="http://www.w3.org/2000/svg"
   xmlns="http://www.w3.org/2000/svg"
   xmlns:sodipodi="http://sodipodi.sourceforge.net/DTD/sodipodi-0.dtd"
   xmlns:inkscape="http://www.inkscape.org/namespaces/inkscape"
   width="210mm"
   height="297mm"
   viewBox="0 0 210 297"
   version="1.1"
   id="svg8"
   inkscape:version="0.92.2 (5c3e80d, 2017-08-06)"
   sodipodi:docname="reacations.svg">
  <defs
     id="defs2" />
  <sodipodi:namedview
     id="base"
     pagecolor="#ffffff"
     bordercolor="#666666"
     borderopacity="1.0"
     inkscape:pageopacity="0.0"
     inkscape:pageshadow="2"
     inkscape:zoom="3.959798"
     inkscape:cx="434.50414"
     inkscape:cy="527.7237"
     inkscape:document-units="mm"
     inkscape:current-layer="layer1"
     showgrid="false"
     inkscape:window-width="1920"
     inkscape:window-height="1001"
     inkscape:window-x="-9"
     inkscape:window-y="-9"
     inkscape:window-maximized="1" />
  <metadata
     id="metadata5">
    <rdf:RDF>
      <cc:Work
         rdf:about="">
        <dc:format>image/svg+xml</dc:format>
        <dc:type
           rdf:resource="http://purl.org/dc/dcmitype/StillImage" />
        <dc:title></dc:title>
      </cc:Work>
    </rdf:RDF>
  </metadata>
  <g
     inkscape:label="Layer 1"
     inkscape:groupmode="layer"
     id="layer1">
    <circle
       style="opacity:1;fill:#0000ff;fill-opacity:1;stroke:#ffffff;stroke-width:0.96499997;stroke-linecap:butt;stroke-linejoin:miter;stroke-miterlimit:4;stroke-dasharray:none;stroke-opacity:1;paint-order:normal"
       id="path819"
       cx="63.877975"
       cy="158.66071"
       r="11.150297" />
    <path
       style="opacity:1;fill:#ffffff;fill-opacity:1;stroke:none;stroke-width:0.78994399;stroke-linecap:butt;stroke-linejoin:miter;stroke-miterlimit:4;stroke-dasharray:none;stroke-opacity:1;paint-order:normal"
       id="path853"
       d="m 58.84432,156.95434 c 0.43878,-0.0246 0.88607,0.0398 1.322681,-0.015 0.215057,-0.0551 0.491213,-0.0406 0.676588,-0.12377 0.214403,-0.0682 0.352046,-0.20871 0.52433,-0.34373 0.134829,-0.13159 0.224912,-0.30825 0.308597,-0.4763 0.114436,-0.26938 0.209712,-0.54517 0.323569,-0.81484 0.103683,-0.26159 0.198862,-0.52598 0.294004,-0.79089 0.0903,-0.28059 0.209261,-0.55158 0.316597,-0.82616 0.06947,-0.28319 0.139802,-0.56193 0.248663,-0.83365 0.127449,-0.33635 0.329474,-0.63513 0.527127,-0.93276 0.274926,-0.40425 0.662443,-0.64222 1.121317,-0.78474 0.530971,-0.13991 1.064398,-0.007 1.379221,0.47052 0.05409,0.0819 0.08282,0.17795 0.124224,0.26692 0.118187,0.36991 0.115486,0.75979 0.116933,1.14378 0.01324,0.39175 -0.0016,0.77022 -0.09744,1.1511 -0.118287,0.3318 -0.183384,0.67487 -0.308892,1.00403 -0.101901,0.27392 -0.213038,0.54538 -0.305796,0.82266 -0.05805,0.21141 -0.154768,0.40609 -0.18986,0.62346 -0.01962,0.11334 0.03973,0.24941 0.08552,0.39157 0.04281,0.0929 0.07847,0.18718 0.129795,0.27535 0.02635,0.0453 0.101898,0.17964 0.09035,0.12855 -0.08687,-0.0947 0.245138,-0.0273 0.291502,-0.0254 0.377863,0.007 0.755886,0.003 1.133798,0.002 0.415725,-0.002 0.831454,-0.002 1.247182,-0.002 0.296394,0.0336 0.621924,-0.058 0.91343,0.0251 0.133556,0.0381 0.258121,0.10255 0.38718,0.15382 0.488135,0.35109 0.600566,0.86829 0.63811,1.43061 0.05238,0.5003 -0.154541,0.91639 -0.46478,1.28732 -0.301189,0.3161 -0.698216,0.50195 -1.101769,0.65013 -0.356101,0.15819 -0.733405,0.24031 -1.118219,0.28657 -0.40807,0.0367 -0.818255,0.0355 -1.227604,0.0364 -0.336447,-9e-5 -0.672893,-0.002 -1.009341,-0.002 -0.418464,0.006 0.02002,0.057 0.140931,-0.18242 0.0529,-0.10477 0.06919,-0.2243 0.103778,-0.33645 0.07317,-0.0699 -0.152614,-0.38828 -0.151516,-0.39004 0.02967,-0.0476 0.08469,0.0914 0.140714,0.0919 0.169059,0.0284 0.34023,0.0356 0.51127,0.0413 0.299061,0.007 0.598223,0.004 0.897329,0.003 0.310499,-8.2e-4 0.620999,-0.002 0.9315,-0.002 0.347006,-1.8e-4 0.694012,-1.6e-4 1.041019,-1.6e-4 0.714807,0.0536 1.122315,0.4713 0.92391,1.23999 -0.03513,0.13607 -0.205378,0.29658 -0.318319,0.4091 -0.278856,0.24079 -0.599698,0.42217 -0.945062,0.54715 -0.269105,0.0991 -0.582519,0.0801 -0.845327,0.19738 -0.347494,0.10274 -0.688997,0.21986 -1.043744,0.29575 -0.426653,0.0782 -0.861221,0.0877 -1.293651,0.0951 -0.252003,0.0445 -0.668765,-0.0576 -0.901642,0.0135 0.30785,-0.0155 0.359989,-0.2035 0.359016,-0.46245 -0.105081,-0.35684 -0.403136,-0.35301 -0.01532,-0.32795 0.337087,0.0121 0.674509,0.008 1.011741,0.007 0.313769,-0.0431 0.658577,0.059 0.967221,-0.0154 0.285795,-0.0656 0.576238,-0.10104 0.868209,-0.12315 0.540406,-0.0522 1.025484,0.14867 1.271378,0.65953 0.04737,0.0984 0.05156,0.21229 0.07735,0.31843 0.03021,0.52318 -0.256222,0.89035 -0.612214,1.22632 -0.316478,0.26665 -0.676755,0.41442 -1.079402,0.49693 -0.385994,0.0634 -0.778075,0.0638 -1.168082,0.0665 -0.401339,8.2e-4 -0.802678,-8.2e-4 -1.204015,-0.002 -0.500181,-8.1e-4 -1.000363,-8.1e-4 -1.500544,-8.1e-4 -0.621777,0.007 -1.242239,-0.057 -1.85313,-0.16904 -0.372873,-0.0744 -0.750082,-0.11152 -1.121767,-0.19171 -0.361078,-0.0547 -0.715611,-0.11189 -1.063178,-0.22786 -0.410199,-0.16069 -0.749731,-0.43841 -1.089484,-0.70991 -0.284694,-0.249 -0.519884,-0.54895 -0.71265,-0.8728 -0.258897,-0.35946 -0.321233,-0.80135 -0.365696,-1.22977 -0.03543,-0.47025 -0.03489,-0.9422 -0.03558,-1.41349 0.0025,-0.37457 -0.01208,-0.74869 0.02758,-1.12142 0.102533,-0.45819 0.371086,-0.79404 0.73847,-1.06816 0.298017,-0.20871 0.651473,-0.29818 0.994133,-0.40337 1.045978,-0.32032 1.498982,1.15891 0.453004,1.47924 v 0 c -0.198194,0.0605 -0.409293,0.10098 -0.587078,0.21007 0.006,-0.009 0.01453,-0.0172 0.01787,-0.0276 0.01153,-0.036 -0.04628,0.0608 -0.07573,0.0846 -0.01185,0.01 0.02941,-0.0412 0.01434,-0.0434 -0.03302,-0.005 -0.02827,0.15075 -0.02169,-0.0257 -0.07225,0.23731 0.02701,0.65753 -0.01386,0.91354 6.49e-4,0.42074 -2.17e-4,0.84196 0.02792,1.26196 0.02162,0.2293 0.02407,0.43793 0.174209,0.62424 0.06663,0.1652 0.220451,0.2911 0.332707,0.42526 0.204153,0.16422 0.402097,0.33769 0.636852,0.45804 0.278194,0.11571 0.586802,0.0979 0.875536,0.17461 0.355617,0.0775 0.718467,0.1063 1.074879,0.18231 0.518167,0.0963 1.04494,0.1501 1.572564,0.14334 0.501064,7e-5 1.002128,1.1e-4 1.503193,8.2e-4 0.396905,6.4e-4 0.793813,0.002 1.190721,0.002 0.295505,-0.002 0.592412,-5e-5 0.885971,-0.0386 0.145514,-0.0237 0.233013,-0.0359 0.336351,-0.1271 0.223874,-0.14766 0.06599,-0.22536 0.117336,0.14894 0.06233,0.13346 0.06219,0.15813 0.214062,0.27925 0.08872,0.0708 0.383151,0.0558 0.08138,0.0597 -0.265615,0.0188 -0.527002,0.0607 -0.78771,0.11509 -0.384023,0.0391 -0.769487,0.0232 -1.15524,0.0276 -0.378223,0.002 -0.756762,0.007 -1.134701,-0.0113 -0.584106,-0.0478 -1.096591,-0.19757 -1.353993,-0.78461 -0.01821,-0.12474 -0.05501,-0.24814 -0.05463,-0.3742 0.0017,-0.57533 0.453393,-1.0044 0.98236,-1.12758 0.357494,-0.0365 0.715672,-0.0214 1.074794,-0.0262 0.337009,-0.006 0.675828,-0.01 1.009309,-0.0639 0.295393,-0.0555 0.574582,-0.17083 0.864611,-0.24769 0.274647,-0.0849 0.555601,-0.15154 0.839851,-0.19554 0.13165,-0.0301 0.22948,-0.12456 0.348754,-0.17789 0.02416,-0.024 0.08053,-0.10519 0.07248,-0.0721 -0.01696,0.0697 -0.09446,0.11856 -0.101172,0.19 -0.04212,0.44863 -0.01342,0.58001 0.340773,0.8374 0.04803,0.0349 0.282644,0.08 0.173766,0.0391 -0.346632,0 -0.693266,-2e-5 -1.039898,1.6e-4 -0.309392,2.2e-4 -0.618783,6.5e-4 -0.928175,0.002 -0.318956,8.2e-4 -0.637984,0.003 -0.956884,-0.004 -0.384131,-0.0143 -0.772746,-0.0387 -1.130104,-0.19491 -0.432903,-0.22619 -0.808241,-0.52946 -0.861779,-1.05421 0.03341,-0.15751 0.03751,-0.32423 0.100242,-0.47253 0.19568,-0.46253 0.75519,-0.60829 1.204326,-0.59583 0.334398,6.5e-4 0.668798,0.002 1.003199,0.002 0.352427,-6.5e-4 0.705491,8.2e-4 1.057081,-0.0266 0.269342,-0.0271 0.526547,-0.0949 0.774084,-0.20707 0.167148,-0.0551 0.340214,-0.12397 0.476963,-0.23511 0.02384,-0.0175 0.04212,-0.0915 0.05845,-0.0668 0.02597,0.0392 -0.009,0.17693 0.0051,-0.0823 -0.01421,-0.26401 -0.118306,-0.35183 0.152325,-0.17509 0.0543,0.01 0.108252,0.0214 0.162891,0.0287 0.013,0.002 -0.02444,-0.011 -0.03752,-0.0118 -0.163123,-0.01 -0.330802,2e-5 -0.49422,10e-5 -0.0589,3e-5 -0.1178,7e-5 -0.176698,1e-4 -0.414136,4.3e-4 -0.828272,8.2e-4 -1.242406,0.002 -0.404835,0.002 -0.809828,0.007 -1.214578,-0.003 -0.460396,-0.0238 -0.911253,-0.0868 -1.278402,-0.39448 -0.291662,-0.30478 -0.494554,-0.65602 -0.631603,-1.0563 -0.118877,-0.37109 -0.208259,-0.75248 -0.134197,-1.1438 0.05668,-0.29331 0.157871,-0.56735 0.249343,-0.84967 0.105545,-0.29992 0.21991,-0.59623 0.332293,-0.89364 0.124951,-0.27026 0.133194,-0.58261 0.257744,-0.85513 0.104889,-0.18923 2.17e-4,-0.5066 0.03721,-0.71831 -6.5e-4,-0.19749 -0.0059,-0.3972 -0.01362,-0.59318 0.0861,0.0999 0.173585,0.16578 0.306851,0.19622 0.03782,0.009 0.07776,0.005 0.116376,0.002 0.0074,-6.5e-4 0.02476,-0.0137 0.01733,-0.0141 -0.02539,-0.002 -0.05034,0.007 -0.07551,0.0109 -0.114694,0.0204 -0.186128,0.0513 -0.258301,0.15446 -0.144173,0.21613 -0.298112,0.42931 -0.38881,0.67513 -0.123329,0.25191 -0.119918,0.54355 -0.234892,0.79978 -0.102857,0.26068 -0.217191,0.51744 -0.300963,0.78463 -0.105007,0.29078 -0.210699,0.58085 -0.324279,0.86834 -0.128984,0.30549 -0.232679,0.62042 -0.373458,0.9215 -0.192199,0.36657 -0.406798,0.72752 -0.735166,0.98986 -0.274793,0.21011 -0.538166,0.43006 -0.870416,0.5466 -0.366562,0.13615 -0.744854,0.18822 -1.131771,0.23894 -0.488946,0.0403 -0.979885,0.0156 -1.470172,0.022 -1.093927,0 -1.093927,-1.54705 0,-1.54705 z"
       inkscape:connector-curvature="0" />
    <rect
       style="opacity:1;fill:#ffffff;fill-opacity:1;stroke:none;stroke-width:0.95638847;stroke-linecap:butt;stroke-linejoin:miter;stroke-miterlimit:4;stroke-dasharray:none;stroke-opacity:1;paint-order:normal"
       id="rect855"
       width="9.6426105"
       height="5.5226188"
       x="58.32053"
       y="158.1086"
       ry="0" />
    <rect
       style="opacity:1;fill:#ffffff;fill-opacity:1;stroke:none;stroke-width:0.5679723;stroke-linecap:butt;stroke-linejoin:miter;stroke-miterlimit:4;stroke-dasharray:none;stroke-opacity:1;paint-order:normal"
       id="rect855-8"
       width="8.1370239"
       height="2.3081276"
       x="61.36792"
       y="157.44313"
       ry="0" />
    <rect
       style="opacity:1;fill:#ffffff;fill-opacity:1;stroke:none;stroke-width:0.53772771;stroke-linecap:butt;stroke-linejoin:miter;stroke-miterlimit:4;stroke-dasharray:none;stroke-opacity:1;paint-order:normal"
       id="rect855-8-3"
       width="7.3474283"
       height="2.291187"
       x="-139.40372"
       y="106.63707"
       ry="0"
       transform="matrix(0.30001658,-0.95393399,0.96972376,0.2442045,0,0)" />
    <circle
       style="opacity:1;fill:#ff0000;fill-opacity:1;stroke:#ffffff;stroke-width:0.96499997;stroke-linecap:butt;stroke-linejoin:miter;stroke-miterlimit:4;stroke-dasharray:none;stroke-opacity:1;paint-order:normal"
       id="path819-5"
       cx="90.572548"
       cy="159.08594"
       r="11.150297" />
    <path
       style="opacity:1;fill:#ffffff;fill-opacity:1;stroke:none;stroke-width:0.96499997;stroke-linecap:butt;stroke-linejoin:miter;stroke-miterlimit:4;stroke-dasharray:none;stroke-opacity:1;paint-order:normal"
       id="path912"
       d="m 89.565331,165.74128 c -0.260065,-0.14987 -0.502153,-0.32709 -0.743006,-0.50542 -0.569362,-0.43471 -0.986364,-1.02741 -1.421077,-1.58841 -0.505632,-0.64474 -1.006909,-1.29449 -1.476954,-1.96581 -0.407183,-0.55152 -0.698442,-1.17015 -0.968203,-1.79674 -0.230828,-0.51215 -0.367985,-1.02605 -0.441788,-1.58071 -0.09398,-0.71289 0.131156,-1.29563 0.397269,-1.94386 0.21414,-0.45986 0.447331,-0.91775 0.759063,-1.32065 0.188248,-0.24331 0.236953,-0.27694 0.453435,-0.48946 0.338061,-0.3013 0.734084,-0.54085 1.163169,-0.68865 0.06813,-0.0235 0.138065,-0.0413 0.207097,-0.062 0.283628,-0.0626 0.578985,-0.11565 0.871197,-0.098 0.05549,0.003 0.110453,0.0127 0.165682,0.0191 0.215987,0.0364 0.417798,0.10416 0.58434,0.25188 0.112527,0.0998 0.188285,0.20557 0.282011,0.32278 0.320329,0.45578 0.551032,0.9658 0.767924,1.47661 0.225703,0.53774 0.398915,1.09506 0.584555,1.64732 0.106407,0.33216 0.242194,0.65376 0.370337,0.97784 0.03184,0.0886 0.03017,0.0887 0.06218,0.16385 0.0057,0.0133 -0.0026,-0.0354 -0.01617,-0.0402 -0.08532,-0.0301 -0.174657,-0.053 -0.264936,-0.0591 -0.02373,-0.002 -0.04314,0.0533 -0.06083,0.0374 -0.0191,-0.0172 0.01297,-0.0497 0.01945,-0.0746 0.09073,-0.3588 0.207007,-0.70371 0.359251,-1.04107 0.228351,-0.44597 0.505317,-0.86414 0.810398,-1.26078 0.2604,-0.33585 0.537024,-0.60514 0.894728,-0.83401 0.30081,-0.1748 0.637542,-0.20921 0.977969,-0.21334 0.420184,0.0407 0.82034,0.18722 1.209786,0.34282 0.28458,0.12144 0.526965,0.31559 0.75964,0.51565 0.215408,0.19806 0.397486,0.43188 0.540665,0.68724 0.117173,0.20898 0.197488,0.40425 0.29446,0.62301 0.195509,0.47591 0.378111,0.9584 0.505868,1.45729 0.06416,0.25173 0.08241,0.46308 -0.01175,0.71235 -0.02098,0.0556 -0.04902,0.10823 -0.07353,0.16234 -0.121555,0.26169 -0.284091,0.49802 -0.466873,0.71981 -0.235633,0.24483 -0.529034,0.42401 -0.816033,0.6017 -0.314878,0.19132 -0.623165,0.39426 -0.948743,0.56716 -0.330467,0.1722 -0.68653,0.28555 -1.033063,0.41988 -0.3043,0.11357 -0.60484,0.23561 -0.903282,0.36368 -0.352208,0.14743 -0.693963,0.31571 -1.016741,0.51975 -0.320837,0.21535 -0.603935,0.4809 -0.869252,0.76039 -0.206322,0.23662 -0.4348,0.45178 -0.656875,0.67314 -0.172562,0.16342 -0.346157,0.32574 -0.528281,0.47849 -0.05418,0.0463 -0.101261,0.10003 -0.156083,0.14563 -0.03394,0.0282 -0.07864,0.0529 -0.107008,0.0881 0.01551,0.0145 0.0026,0.0643 0.0016,0.0854 -2.65e-4,0.0129 -5.29e-4,0.0257 -7.94e-4,0.0386 -0.0088,0.33397 -0.481132,0.32149 -0.472308,-0.0125 v 0 c 5.29e-4,-0.0175 0.0011,-0.0351 0.0016,-0.0526 0.0087,-0.14289 0.03421,-0.28084 0.134093,-0.39094 0.095,-0.0918 0.204886,-0.16683 0.295704,-0.26383 0.17181,-0.14393 0.335211,-0.2973 0.498258,-0.45104 0.219125,-0.21839 0.444637,-0.43056 0.648086,-0.66414 0.29287,-0.30727 0.605055,-0.59915 0.9598,-0.83455 0.344326,-0.21612 0.706861,-0.39778 1.082217,-0.55414 0.303604,-0.13024 0.609341,-0.25443 0.918853,-0.37004 0.329422,-0.12762 0.667973,-0.23513 0.982903,-0.39699 0.316815,-0.16675 0.614635,-0.3669 0.921192,-0.55138 0.243679,-0.1504 0.492017,-0.30161 0.699958,-0.50041 0.157538,-0.19089 0.298762,-0.39323 0.403204,-0.61893 0.0385,-0.079 0.09043,-0.17003 0.09889,-0.26029 0.0094,-0.10044 -0.02775,-0.20062 -0.04326,-0.29799 -0.120118,-0.4737 -0.296135,-0.93075 -0.480118,-1.38284 -0.18388,-0.41653 -0.365893,-0.83336 -0.711756,-1.14373 -0.192302,-0.16674 -0.392213,-0.3304 -0.626446,-0.43466 -0.332745,-0.13335 -0.673544,-0.25918 -1.030203,-0.30903 -0.251372,0.001 -0.503745,0.0171 -0.72931,0.14009 -0.303456,0.18948 -0.554512,0.44086 -0.773301,0.72333 -0.283935,0.36719 -0.539745,0.75566 -0.754396,1.1677 -0.144211,0.31493 -0.249986,0.6422 -0.335761,0.97767 -0.02503,0.0813 -0.06928,0.27448 -0.16188,0.30587 -0.323903,0.1098 -0.394923,-0.0699 -0.470884,-0.29167 -0.130975,-0.33177 -0.269992,-0.6609 -0.378765,-1.00092 -0.181774,-0.54076 -0.351107,-1.08658 -0.571645,-1.6133 -0.20011,-0.47192 -0.411898,-0.94335 -0.70303,-1.3674 -0.07898,-0.10036 -0.161173,-0.22708 -0.268568,-0.30252 -0.08413,-0.0591 -0.189166,-0.073 -0.286266,-0.0971 -0.281863,-0.0394 -0.568404,0.001 -0.844417,0.0632 -0.432867,0.12604 -0.838087,0.33107 -1.174282,0.63573 -0.189228,0.18325 -0.233199,0.21347 -0.398333,0.42509 -0.291343,0.37335 -0.506725,0.80012 -0.707218,1.22675 -0.224428,0.54304 -0.451011,1.10297 -0.365707,1.70228 0.06551,0.50387 0.196257,0.99172 0.407358,1.45563 0.256796,0.59717 0.532619,1.18743 0.921329,1.71263 0.465148,0.66536 0.962798,1.3083 1.463302,1.94726 0.133257,0.17199 0.422825,0.54803 0.564044,0.72151 0.115562,0.14196 0.300384,0.36205 0.437944,0.49734 0.09338,0.0918 0.223797,0.1951 0.326755,0.27923 0.225898,0.16726 0.452469,0.33413 0.696275,0.47493 0.29007,0.16575 0.05566,0.57597 -0.234411,0.41022 z"
       inkscape:connector-curvature="0" />
    <path
       style="fill:#ffffff;stroke:none;stroke-width:0.26458332px;stroke-linecap:butt;stroke-linejoin:miter;stroke-opacity:1;fill-opacity:1"
       d="m 89.153824,165.02518 2.221918,-2.20673 3.921503,-1.88988 1.654776,-1.28841 -0.167045,-1.73725 -1.102487,-1.921 -2.088041,-0.66817 -1.45328,1.01896 -1.186008,2.15487 -1.553503,-3.85871 -1.052375,-0.75169 -2.138156,0.85192 -1.302938,2.13815 -0.08352,2.03793 1.152602,2.37202 2.772921,3.65825 z"
       id="path914"
       inkscape:connector-curvature="0" />
    <circle
       style="opacity:1;fill:#ffff00;fill-opacity:1;stroke:#ffffff;stroke-width:0.96499997;stroke-linecap:butt;stroke-linejoin:miter;stroke-miterlimit:4;stroke-dasharray:none;stroke-opacity:1;paint-order:normal"
       id="path819-5-5"
       cx="116.98364"
       cy="159.41667"
       r="11.150297" />
    <rect
       style="opacity:1;fill:#000000;fill-opacity:1;stroke:none;stroke-width:1.22364354;stroke-linecap:butt;stroke-linejoin:miter;stroke-miterlimit:4;stroke-dasharray:none;stroke-opacity:1;paint-order:normal"
       id="rect951"
       width="16.521585"
       height="6.2273669"
       x="-29.528223"
       y="196.48842"
       transform="matrix(-0.86428418,0.50300384,0.50300384,0.86428418,0,0)"
       ry="3.1136835" />
    <circle
       style="opacity:1;fill:#ffffff;fill-opacity:1;stroke:#000000;stroke-width:0.565;stroke-linecap:butt;stroke-linejoin:miter;stroke-miterlimit:4;stroke-dasharray:none;stroke-opacity:1;paint-order:normal"
       id="path963"
       cx="111.84315"
       cy="158.01813"
       r="1.7008928" />
    <circle
       style="opacity:1;fill:#000000;fill-opacity:1;stroke:none;stroke-width:0.45569441;stroke-linecap:butt;stroke-linejoin:miter;stroke-miterlimit:4;stroke-dasharray:none;stroke-opacity:1;paint-order:normal"
       id="path963-4"
       cx="111.51244"
       cy="158.34886"
       r="0.80319935" />
    <circle
       style="opacity:1;fill:#ffffff;fill-opacity:1;stroke:#000000;stroke-width:0.56500006;stroke-linecap:butt;stroke-linejoin:miter;stroke-miterlimit:4;stroke-dasharray:none;stroke-opacity:1;paint-order:normal"
       id="path963-2"
       cx="24.796675"
       cy="-192.36226"
       r="1.7008928"
       transform="rotate(135.01083)" />
    <circle
       style="opacity:1;fill:#000000;fill-opacity:1;stroke:none;stroke-width:0.45569441;stroke-linecap:butt;stroke-linejoin:miter;stroke-miterlimit:4;stroke-dasharray:none;stroke-opacity:1;paint-order:normal"
       id="path963-4-8"
       cx="24.465963"
       cy="-192.03152"
       r="0.80319935"
       transform="rotate(135.01083)" />
    <rect
       style="opacity:1;fill:#000000;fill-opacity:1;stroke:#000000;stroke-width:0.58424282;stroke-linecap:butt;stroke-linejoin:miter;stroke-miterlimit:4;stroke-dasharray:none;stroke-opacity:1;paint-order:normal"
       id="rect1030"
       width="15.970461"
       height="3.4711037"
       x="17.775768"
       y="195.63091"
       ry="0"
       transform="rotate(-28.913335)" />
    <path
       style="opacity:1;fill:#00ffff;fill-opacity:1;stroke:none;stroke-width:0.56499994;stroke-linecap:butt;stroke-linejoin:miter;stroke-miterlimit:4;stroke-dasharray:none;stroke-opacity:1;paint-order:normal"
       id="path1036"
       d="m 110.90582,160.03406 c -0.27409,-0.0538 -0.55107,-0.0934 -0.82802,-0.12956 -0.20661,-0.0188 -0.41449,-0.0519 -0.62262,-0.0407 -0.1192,0.006 -0.16775,0.0187 -0.28655,0.0394 -0.36281,0.10672 -0.67224,0.33152 -0.97402,0.55151 -0.21605,0.16199 -0.4275,0.33227 -0.62521,0.51647 -0.0537,0.0535 -0.0713,0.0849 -0.0523,0.15624 0.0382,0.14471 0.13551,0.26198 0.22769,0.37614 0.0883,0.10201 0.19383,0.18728 0.31447,0.24751 0.0875,0.042 0.18285,0.0572 0.27865,0.0647 0.0782,0.007 0.15353,0.007 0.2282,-0.0183 0.0899,-0.0274 0.16281,-0.0909 0.23699,-0.14637 0.10587,-0.0926 0.22876,-0.16265 0.33446,-0.25511 0.0705,-0.059 0.14259,-0.11582 0.21399,-0.17371 0.0392,-0.0521 0.0858,-0.0991 0.12822,-0.14902 0.074,-0.10103 0.15404,-0.19737 0.23209,-0.29526 0.0714,-0.0967 0.14515,-0.19245 0.2253,-0.28206 0.0561,-0.0599 0.12008,-0.11157 0.17537,-0.17212 0.0646,-0.0554 0.12718,-0.11286 0.19415,-0.16541 0.0518,-0.058 0.12261,-0.0886 0.18853,-0.12637 0.0537,-0.0295 0.10624,-0.0611 0.15936,-0.0918 0.0402,-0.0247 0.0664,-0.0463 0.0863,-0.065 0.0118,-0.009 0.0237,-0.0184 0.0355,-0.0276 0.19079,-0.1393 0.38779,0.13053 0.19699,0.26983 v 0 c -0.001,1.9e-4 -0.002,2.6e-4 -0.003,5.3e-4 -0.0462,0.0435 -0.0967,0.0769 -0.14917,0.11182 -0.0541,0.0309 -0.10742,0.0629 -0.16182,0.0932 -0.0531,0.0297 -0.10558,0.0506 -0.14651,0.0983 -0.0528,0.0414 -0.10114,0.0879 -0.15431,0.12858 -0.0556,0.0601 -0.11756,0.11331 -0.17495,0.17165 -0.0778,0.0811 -0.14117,0.17647 -0.21043,0.26468 -0.0805,0.10098 -0.16261,0.20066 -0.23962,0.30438 -0.0559,0.0648 -0.11252,0.1295 -0.17151,0.19113 -0.0688,0.0558 -0.13839,0.11049 -0.20631,0.16729 -0.11289,0.0962 -0.23924,0.17407 -0.35272,0.26976 -0.10538,0.0786 -0.21099,0.16195 -0.33964,0.19827 -0.11602,0.0335 -0.23228,0.0444 -0.35274,0.0316 -0.13946,-0.0118 -0.27729,-0.0378 -0.40391,-0.10051 -0.16101,-0.0842 -0.30479,-0.19535 -0.42208,-0.3352 -0.1296,-0.16142 -0.25683,-0.33017 -0.29811,-0.53793 -0.004,-0.0338 -0.0106,-0.0673 -0.0109,-0.10128 -8e-4,-0.13662 0.0726,-0.25451 0.16643,-0.34748 0.20803,-0.1926 0.42866,-0.37237 0.65586,-0.54172 0.34346,-0.2499 0.69748,-0.50143 1.11429,-0.61073 0.14561,-0.0245 0.19421,-0.0373 0.34095,-0.0442 0.22337,-0.0105 0.44628,0.0223 0.66795,0.0436 0.28959,0.0379 0.57939,0.079 0.86572,0.13671 0.22919,0.0573 0.14816,0.38141 -0.081,0.32411 z"
       inkscape:connector-curvature="0" />
    <path
       style="fill:#00ffff;stroke:none;stroke-width:0.26458332px;stroke-linecap:butt;stroke-linejoin:miter;stroke-opacity:1"
       d="m 110.74087,159.87524 -1.2611,1.19802 -0.8299,0.91805 -0.87407,-0.24805 -0.58927,-0.56824 1.56964,-1.32164 1.52372,-0.12993 z"
       id="path1038"
       inkscape:connector-curvature="0" />
    <path
       style="opacity:1;fill:#00ffff;fill-opacity:1;stroke:none;stroke-width:0.5922268;stroke-linecap:butt;stroke-linejoin:miter;stroke-miterlimit:4;stroke-dasharray:none;stroke-opacity:1;paint-order:normal"
       id="path1036-3"
       d="m 120.67683,154.03852 c 0.20872,-0.22364 0.42849,-0.43783 0.65031,-0.64925 0.17037,-0.15118 0.33329,-0.31464 0.523,-0.44281 0.10839,-0.0737 0.1587,-0.0956 0.27556,-0.15728 0.38298,-0.15365 0.78985,-0.17764 1.18711,-0.20044 0.28709,-0.0127 0.57512,-0.0158 0.85941,0.001 0.0793,0.007 0.11358,0.021 0.13972,0.0905 0.0532,0.14099 0.038,0.29894 0.0254,0.45102 -0.0164,0.1398 -0.0581,0.27759 -0.12805,0.40527 -0.0517,0.0912 -0.12646,0.16625 -0.20619,0.23538 -0.0645,0.0571 -0.13079,0.10676 -0.21161,0.13571 -0.0955,0.0373 -0.19766,0.0345 -0.29614,0.039 -0.14862,-0.004 -0.29867,0.0206 -0.44705,0.0162 -0.0974,-7.4e-4 -0.19482,0.001 -0.29231,0.002 -0.0657,-0.0158 -0.1349,-0.0228 -0.20211,-0.0348 -0.12564,-0.0321 -0.25379,-0.0565 -0.38111,-0.0834 -0.12073,-0.0304 -0.24304,-0.0584 -0.36724,-0.0773 -0.0852,-0.011 -0.17249,-0.0102 -0.25741,-0.0222 -0.09,-0.002 -0.1795,-0.007 -0.26989,-0.004 -0.0803,-0.0123 -0.16094,0.01 -0.24155,0.0231 -0.0649,0.0118 -0.13005,0.0211 -0.19516,0.0315 -0.0502,0.007 -0.0862,0.007 -0.11484,0.005 -0.0158,6e-4 -0.0318,8.7e-4 -0.0478,0.001 -0.25128,0.0142 -0.26267,0.35997 -0.0114,0.34573 v 0 c 9.2e-4,-4.5e-4 0.002,-9.9e-4 0.003,-0.001 0.0667,0.004 0.13114,-0.002 0.19821,-0.009 0.0661,-0.0109 0.13217,-0.0205 0.19817,-0.032 0.0645,-0.0112 0.12317,-0.0291 0.18776,-0.0179 0.0713,-0.002 0.14164,0.004 0.21278,0.001 0.0849,0.0115 0.17131,0.0132 0.25675,0.0221 0.11706,0.0136 0.22996,0.0482 0.34374,0.0731 0.1313,0.0278 0.26331,0.0534 0.39322,0.0857 0.088,0.015 0.17659,0.0295 0.26541,0.0399 0.094,-6.9e-4 0.18794,-0.003 0.28172,-0.002 0.15694,0.003 0.31473,-0.0183 0.47189,-0.0165 0.13978,-0.007 0.28262,-0.009 0.41751,-0.0651 0.1221,-0.0496 0.23085,-0.11752 0.32909,-0.20714 0.11553,-0.10133 0.22112,-0.21295 0.29484,-0.34656 0.0911,-0.17346 0.15082,-0.35715 0.17007,-0.54634 0.0171,-0.21456 0.0278,-0.43343 -0.0605,-0.62689 -0.0171,-0.0294 -0.0311,-0.0608 -0.0511,-0.0882 -0.0812,-0.10986 -0.21649,-0.15581 -0.3547,-0.16841 -0.29841,-0.0171 -0.60019,-0.0155 -0.90151,-0.001 -0.45184,0.0263 -0.91394,0.0583 -1.34595,0.24548 -0.14271,0.0763 -0.19312,0.0981 -0.32627,0.18928 -0.20269,0.13877 -0.379,0.31189 -0.56112,0.475 -0.23188,0.22113 -0.46202,0.44497 -0.67916,0.67981 -0.16714,0.19687 0.0985,0.40284 0.26559,0.20598 z"
       inkscape:connector-curvature="0" />
    <path
       style="fill:#00ffff;stroke:none;stroke-width:0.27733335px;stroke-linecap:butt;stroke-linejoin:miter;stroke-opacity:1"
       d="m 120.72661,153.80275 1.82722,0.12775 1.28021,0.18783 0.61973,-0.77441 0.17732,-0.84299 -2.17263,-0.0234 -1.41758,0.89999 z"
       id="path1038-0"
       inkscape:connector-curvature="0" />
  </g>
</svg>
