<?xml version="1.0" encoding="UTF-8" standalone="no"?>
<!-- Created with Inkscape (http://www.inkscape.org/) -->

<svg
   xmlns:dc="http://purl.org/dc/elements/1.1/"
   xmlns:cc="http://creativecommons.org/ns#"
   xmlns:rdf="http://www.w3.org/1999/02/22-rdf-syntax-ns#"
   xmlns:svg="http://www.w3.org/2000/svg"
   xmlns="http://www.w3.org/2000/svg"
   xmlns:sodipodi="http://sodipodi.sourceforge.net/DTD/sodipodi-0.dtd"
   xmlns:inkscape="http://www.inkscape.org/namespaces/inkscape"
   width="210mm"
   height="297mm"
   viewBox="0 0 210 297"
   version="1.1"
   id="svg923"
   inkscape:export-filename="C:\Users\alexa\Documents\gitstuff\the-cake\src\img\like.png"
   inkscape:export-xdpi="96"
   inkscape:export-ydpi="96"
   inkscape:version="0.92.2 (5c3e80d, 2017-08-06)"
   sodipodi:docname="tummeupp.svg">
  <defs
     id="defs917" />
  <sodipodi:namedview
     id="base"
     pagecolor="#ffffff"
     bordercolor="#666666"
     borderopacity="1.0"
     inkscape:pageopacity="0.0"
     inkscape:pageshadow="2"
     inkscape:zoom="11.2"
     inkscape:cx="158.34978"
     inkscape:cy="793.01774"
     inkscape:document-units="mm"
     inkscape:current-layer="layer1"
     showgrid="false"
     inkscape:window-width="1920"
     inkscape:window-height="1001"
     inkscape:window-x="-9"
     inkscape:window-y="-9"
     inkscape:window-maximized="1" />
  <metadata
     id="metadata920">
    <rdf:RDF>
      <cc:Work
         rdf:about="">
        <dc:format>image/svg+xml</dc:format>
        <dc:type
           rdf:resource="http://purl.org/dc/dcmitype/StillImage" />
        <dc:title></dc:title>
      </cc:Work>
    </rdf:RDF>
  </metadata>
  <g
     inkscape:label="Layer 1"
     inkscape:groupmode="layer"
     id="layer1">
    <circle
       style="opacity:1;fill:#0000ff;fill-opacity:1;stroke:none;stroke-width:0.56499994;stroke-linecap:butt;stroke-linejoin:miter;stroke-miterlimit:4;stroke-dasharray:none;stroke-opacity:1;paint-order:normal"
       id="path1468"
       cx="46.680061"
       cy="87.601196"
       r="5.1026788"
       inkscape:export-xdpi="96"
       inkscape:export-ydpi="96" />
    <path
       style="opacity:1;fill:#ffffff;fill-opacity:1;stroke:none;stroke-width:0.56499994;stroke-linecap:butt;stroke-linejoin:miter;stroke-miterlimit:4;stroke-dasharray:none;stroke-opacity:1;paint-order:normal"
       id="path1514"
       d="m 45.366125,89.665663 c 0.264792,0.01413 0.528777,0.05106 0.786627,0.11276 0.151416,0.03747 0.296077,0.09557 0.448918,0.127202 0.154737,0.01842 0.308965,0.03925 0.4634,0.06095 0.143944,0.02037 0.289139,0.02775 0.434313,0.03164 0.132369,0.0026 0.264774,0.0021 0.397161,0.0021 0.05483,-0.01461 0.10554,-0.0395 0.150463,-0.07613 0.06846,-0.04678 0.08717,-0.105738 0.106482,-0.182634 0.01349,-0.118361 0.04881,-0.232447 0.0697,-0.349451 0.01127,-0.07989 0.02175,-0.159853 0.0052,-0.237464 -1.19e-4,0.0056 0.0038,0.02053 -2.65e-4,0.01677 -0.05114,-0.04647 0.01058,-0.02109 0.0047,0.0097 -0.0024,0.0131 -0.02289,-0.01392 -0.0353,-0.01873 -0.08459,-0.06617 -0.194488,-0.09192 -0.271584,-0.169061 -0.03226,-0.03228 -0.05791,-0.07055 -0.08686,-0.10582 -0.01812,-0.05849 -0.0518,-0.114284 -0.05434,-0.175459 -0.0088,-0.210997 0.135898,-0.343132 0.285298,-0.458486 0.07371,-0.07028 0.15494,-0.132048 0.222255,-0.209039 0.008,-0.04351 0.01111,-0.09023 0.01437,-0.134998 -0.0016,-0.0038 -0.0011,-0.01238 -0.0051,-0.0113 -0.0046,0.0013 -0.0044,0.009 -0.0041,0.01381 0.0035,0.05484 0.01013,0.04874 -0.05482,-0.0034 -0.136538,-0.05973 -0.208746,-0.100015 -0.32158,-0.21196 -0.195733,-0.302549 -0.06578,-0.544391 0.198414,-0.729311 0.0088,-0.01005 0.178781,-0.125942 0.157022,-0.149259 0.0108,-0.015 0.03577,-0.211148 0.01688,-0.165971 0.01326,0.09162 0.07505,0.0984 -0.06009,0.06161 -0.139811,-0.03778 -0.320614,-0.06155 -0.412435,-0.189772 -0.04226,-0.05902 -0.06615,-0.129239 -0.09923,-0.193858 -0.0016,-0.0489 -0.0066,-0.09781 -0.0047,-0.146701 0.0024,-0.06236 0.02747,-0.122467 0.03281,-0.184473 0.0016,-0.01722 -0.0044,0.0344 -0.0044,0.05169 -0.0016,-0.0021 -0.0056,-0.0093 -0.005,-0.0066 0.01053,0.0444 0.08274,0.0915 0.03644,0.08784 -0.115443,-0.0028 -0.226634,-0.0352 -0.339746,-0.05455 -0.119843,-0.01736 -0.241263,-0.01762 -0.362087,-0.01924 -0.211908,-0.0037 -0.423937,0.006 -0.635355,-0.01011 -0.311388,-0.05074 -0.460907,-0.226237 -0.524579,-0.52383 -0.02257,-0.171201 -0.01611,-0.344532 -0.01468,-0.51676 0.0016,-0.159356 0.0024,-0.31872 0.0029,-0.478084 0.0098,-0.137477 -0.0046,-0.270478 -0.02588,-0.40563 -0.0096,-0.05047 -0.0127,-0.171159 -0.08007,-0.190545 -0.04153,-0.03715 -0.110604,-0.05997 -0.167646,-0.06919 -0.161475,-0.01437 -0.05099,0.01389 0.04689,-0.04804 -0.02114,0.07878 -0.03023,0.159517 -0.03623,0.240778 -0.0067,0.146138 -0.0057,0.292495 -0.0053,0.438748 5.29e-4,0.138049 7.94e-4,0.276101 0.0011,0.414153 2.52e-4,0.146502 0.0046,0.29247 -0.01087,0.438226 -0.01651,0.128337 -0.05604,0.25009 -0.09355,0.37315 -0.02387,0.17322 -0.05121,0.271936 -0.146884,0.426815 -0.142303,0.165013 -0.3318,0.241951 -0.539858,0.285147 -0.06691,0.02072 -0.141002,0.0047 -0.207362,0.02707 -0.01519,0.0051 0.03243,-0.0043 0.04663,-0.01172 -0.04599,0.05344 -0.06315,0.114258 -0.08789,0.192286 -0.04612,0.101029 -0.07281,0.206135 -0.08577,0.315847 -0.01119,0.122092 -0.0108,0.244861 -0.01114,0.367347 2.9e-5,0.163759 5.29e-4,0.327517 7.94e-4,0.491273 0.0085,0.14637 -0.01402,0.295921 0.0065,0.441328 0.01254,0.13132 0.04474,0.257844 0.07461,0.385791 0.03144,0.136115 0.03607,0.275463 0.06357,0.41202 0.02508,0.105011 0.0562,0.21082 0.092,0.313222 0.02728,0.06117 0.07724,0.09405 0.124727,0.134159 0.03824,0.02508 0.08985,0.02249 0.134401,0.02633 0.06844,0.0037 0.03322,0.0021 0.105679,0.0044 0.472215,0.01556 0.450213,0.683369 -0.02201,0.667811 v 0 c -0.09903,-0.0034 -0.04901,-0.0011 -0.150061,-0.0074 -0.181049,-0.01939 -0.356783,-0.06057 -0.499708,-0.181192 -0.142515,-0.120976 -0.263565,-0.256056 -0.327832,-0.435616 -0.04113,-0.129034 -0.08356,-0.258831 -0.112453,-0.391009 -0.02574,-0.129976 -0.03564,-0.261136 -0.0591,-0.391345 -0.03601,-0.155366 -0.07285,-0.310081 -0.08853,-0.469276 -0.01469,-0.16914 -0.0092,-0.338619 -0.01,-0.508314 -2.36e-4,-0.164733 -7.94e-4,-0.329465 -7.94e-4,-0.494194 5.29e-4,-0.149911 5.29e-4,-0.300191 0.01646,-0.449443 0.02024,-0.153429 0.05283,-0.304612 0.116007,-0.446799 0.05332,-0.152178 0.114638,-0.307793 0.226449,-0.427104 0.03416,-0.03205 0.0647,-0.06846 0.102483,-0.09615 0.124921,-0.09157 0.274823,-0.113255 0.424254,-0.125158 0.03179,-0.0053 0.06366,-0.01011 0.0942,-0.02085 0.01572,-0.0055 0.03487,-0.03618 0.04453,-0.02262 0.0057,0.0079 -0.0096,0.01699 -0.01434,0.02551 -0.02294,0.104828 0.05298,-0.23477 0.0523,-0.236312 0.02772,-0.08827 0.05835,-0.172204 0.0696,-0.265097 0.02909,-0.08052 -0.01066,-0.25586 0.0048,-0.347202 -2.01e-4,-0.137837 -5.29e-4,-0.275672 -0.0011,-0.413507 -5.29e-4,-0.164309 -0.0016,-0.328771 0.0074,-0.492903 0.01654,-0.200832 0.0482,-0.400962 0.157475,-0.575013 0.0312,-0.03735 0.05696,-0.08001 0.09359,-0.112051 0.155202,-0.135779 0.3516,-0.143304 0.543285,-0.106717 0.182031,0.04169 0.343339,0.118514 0.488289,0.237717 0.155366,0.159848 0.261128,0.345255 0.280572,0.571725 0.0267,0.169773 0.0433,0.339148 0.03399,0.511326 -5.29e-4,0.16061 -0.0013,0.321215 -0.0029,0.481814 -0.0011,0.129926 -0.0045,0.260144 0.0036,0.389901 -3e-6,0.0054 0.0036,0.01222 -8e-6,0.01622 -0.0061,0.0067 -0.0857,-0.08131 -0.09328,-0.04633 -0.0016,0.0068 0.0123,0.0064 0.01847,0.0096 0.194337,0.0208 0.39169,-0.0021 0.586756,0.0077 0.156467,0.0021 0.313611,0.0041 0.468472,0.02921 0.117789,0.02101 0.232259,0.05168 0.352411,0.0569 0.224687,0.04923 0.414698,0.160502 0.483907,0.394603 0.02027,0.113252 0.02857,0.195595 0.0077,0.307676 -0.0039,0.02072 -0.008,0.08186 -0.01386,0.06164 -0.0063,-0.0217 -0.0077,-0.04454 -0.01154,-0.06681 -0.02769,-0.04231 -0.0512,-0.08768 -0.08307,-0.126939 -0.01183,-0.01455 -0.06553,-0.03487 -0.05162,-0.02231 0.04282,0.03875 0.125788,0.01521 0.173757,0.04543 0.249785,0.06935 0.429162,0.145198 0.528214,0.40831 0.0091,0.04378 0.02222,0.08691 0.02737,0.131326 0.0204,0.176358 -0.03422,0.358217 -0.09769,0.519676 -0.103312,0.175083 -0.206219,0.275797 -0.371218,0.390036 -0.01082,0.007 -0.01966,0.01945 -0.03244,0.02109 -0.0079,0.0011 0.01386,-0.01333 0.02143,-0.053 0.01577,-0.08249 4.5e-5,-0.167844 -0.06085,-0.228907 -0.01288,-0.0078 -0.07465,-0.03106 -0.0099,-0.0034 0.08642,0.03697 0.173398,0.071 0.246042,0.133172 0.196802,0.158398 0.319884,0.309269 0.311425,0.577295 -0.01736,0.194212 -0.05788,0.382391 -0.190288,0.533812 -0.09595,0.1011 -0.199533,0.19349 -0.30502,0.284483 -0.01463,0.01119 -0.03158,0.01939 -0.04521,0.03179 -0.01064,0.0097 -0.03211,0.04526 -0.02983,0.03108 0.004,-0.02514 0.02983,-0.04277 0.03569,-0.06756 0.03204,-0.13547 0.01252,-0.13112 -0.03706,-0.252992 -0.03293,-0.03171 -0.09446,-0.06718 -0.04271,-0.03996 0.057,0.02998 0.117046,0.05487 0.168222,0.09499 0.178403,0.106815 0.310748,0.245088 0.359331,0.453289 0.02755,0.159994 0.0232,0.31954 -0.0053,0.47943 -0.02633,0.139724 -0.06328,0.2768 -0.0859,0.417219 -0.06875,0.220192 -0.176861,0.414608 -0.372616,0.546748 -0.160075,0.103418 -0.329795,0.185746 -0.524454,0.191098 -0.138708,1.54e-4 -0.277431,5.3e-4 -0.416118,-0.0021 -0.170228,-0.0047 -0.340442,-0.01394 -0.509207,-0.03791 -0.1701,-0.02397 -0.340074,-0.04488 -0.51001,-0.0692 -0.159637,-0.03485 -0.31277,-0.0883 -0.469948,-0.132051 -0.204036,-0.05356 -0.416253,-0.07471 -0.625872,-0.09314 -0.472469,0 -0.472469,-0.668173 0,-0.668173 z"
       inkscape:connector-curvature="0"
       inkscape:export-xdpi="96"
       inkscape:export-ydpi="96" />
    <path
       style="fill:#ffffff;stroke:none;stroke-width:0.26458332px;stroke-linecap:butt;stroke-linejoin:miter;stroke-opacity:1;fill-opacity:1"
       d="m 45.629631,83.863917 -0.496911,2.024568 -0.909506,0.673269 0.165365,2.740327 0.48428,0.626023 2.669458,0.330729 0.968563,-0.212612 -0.28249,-0.891587 0.306115,-1.399892 -0.03544,-1.252045 -0.54334,-0.626026 -1.559153,-0.259858 -0.307104,-1.807199 -0.448848,-0.318915 z"
       id="path1516"
       inkscape:connector-curvature="0"
       inkscape:export-xdpi="96"
       inkscape:export-ydpi="96" />
  </g>
</svg>
