<?xml version="1.0" encoding="UTF-8" standalone="no"?>
<!-- Created with Inkscape (http://www.inkscape.org/) -->

<svg
   xmlns:dc="http://purl.org/dc/elements/1.1/"
   xmlns:cc="http://creativecommons.org/ns#"
   xmlns:rdf="http://www.w3.org/1999/02/22-rdf-syntax-ns#"
   xmlns:svg="http://www.w3.org/2000/svg"
   xmlns="http://www.w3.org/2000/svg"
   xmlns:sodipodi="http://sodipodi.sourceforge.net/DTD/sodipodi-0.dtd"
   xmlns:inkscape="http://www.inkscape.org/namespaces/inkscape"
   width="210mm"
   height="297mm"
   viewBox="0 0 210 297"
   version="1.1"
   id="svg8"
   sodipodi:docname="WelcomePictureEnterNameStupid.svg"
   inkscape:version="0.92.2 (5c3e80d, 2017-08-06)">
  <defs
     id="defs2" />
  <sodipodi:namedview
     id="base"
     pagecolor="#ffffff"
     bordercolor="#666666"
     borderopacity="1.0"
     inkscape:pageopacity="0.0"
     inkscape:pageshadow="2"
     inkscape:zoom="2.8"
     inkscape:cx="413.07121"
     inkscape:cy="771.00873"
     inkscape:document-units="mm"
     inkscape:current-layer="layer1"
     showgrid="false"
     inkscape:window-width="1920"
     inkscape:window-height="1001"
     inkscape:window-x="-9"
     inkscape:window-y="-9"
     inkscape:window-maximized="1" />
  <metadata
     id="metadata5">
    <rdf:RDF>
      <cc:Work
         rdf:about="">
        <dc:format>image/svg+xml</dc:format>
        <dc:type
           rdf:resource="http://purl.org/dc/dcmitype/StillImage" />
        <dc:title></dc:title>
      </cc:Work>
    </rdf:RDF>
  </metadata>
  <g
     inkscape:label="Layer 1"
     inkscape:groupmode="layer"
     id="layer1">
    <path
       style="fill:#ffffff;fill-opacity:1;stroke:none;stroke-width:0.1144159px;stroke-linecap:butt;stroke-linejoin:miter;stroke-opacity:1"
       d="m 60.811317,110.10606 c 6.49e-4,-0.33151 5.62e-4,-0.66302 5.62e-4,-0.99452 0,-0.0385 0.01723,-0.0811 0,-0.11559 -0.02437,-0.0487 -0.09121,-0.0668 -0.115577,-0.11557 -0.01723,-0.0345 0.02724,-0.0883 0,-0.11558 -0.02724,-0.0272 -0.08834,0.0272 -0.115578,0 -0.03168,-0.0317 0.02709,-0.49662 0,-0.57789 -0.02724,-0.0817 -0.08834,-0.14943 -0.115577,-0.23115 -0.03419,-0.10257 0.03784,-0.50221 0,-0.57789 -0.02437,-0.0487 -0.09121,-0.0669 -0.115578,-0.11558 -0.03632,-0.0726 0.03632,-0.38966 0,-0.4623 -0.02437,-0.0487 -0.09121,-0.0668 -0.115578,-0.11559 -0.01759,-0.0352 0,-0.29468 0,-0.34673 v -0.92462 -0.69346 -0.23116 0.23116 -0.69347 -0.92462 -0.11557 c 0,-0.0385 -0.03852,-0.11558 0,-0.11558 0.03853,0 0,0.1541 0,0.11558 v -0.92463 c 0,-0.0385 0.02724,-0.0883 0,-0.11557 -0.02724,-0.0272 -0.08833,0.0272 -0.115577,0 -0.02724,-0.0272 0.02724,-0.0883 0,-0.11558 -0.02724,-0.0272 -0.08834,0.0272 -0.115578,0 -0.02724,-0.0272 0.01723,-0.0811 0,-0.11558 -0.02437,-0.0487 -0.09121,-0.0668 -0.115577,-0.11557 -0.01723,-0.0345 0.02724,-0.0883 0,-0.11558 -0.02724,-0.0272 -0.08834,0.0272 -0.115578,0 -0.05448,-0.0545 0.05448,-0.17667 0,-0.23116 -0.02724,-0.0272 -0.08112,0.0172 -0.115577,0 -0.09746,-0.0487 -0.133691,-0.18242 -0.231155,-0.23115 -0.03446,-0.0172 -0.08834,0.0272 -0.115577,0 -0.02724,-0.0272 0.01723,-0.0811 0,-0.11558 -0.240503,-0.481 0.008,0.12356 -0.231155,-0.11558 -0.02724,-0.0272 0.02724,-0.0883 0,-0.11557 -0.05448,-0.0545 -0.176672,0.0545 -0.231155,0 -0.02724,-0.0272 0.02724,-0.0883 0,-0.11558 -0.02724,-0.0272 -0.07705,0 -0.115578,0 h -0.92462 l -1.84924,0.34673 c 0,0 -0.343016,-0.004 -0.346733,0 -0.02724,0.0272 0.02724,0.0883 0,0.11558 -0.02724,0.0272 -0.08112,-0.0172 -0.115577,0 -0.04873,0.0244 -0.06685,0.0912 -0.115578,0.11558 -0.03446,0.0172 -0.08112,-0.0172 -0.115577,0 -0.04873,0.0243 0.04873,-0.0243 0,0 -0.04583,0.0229 -0.92462,0.11557 -0.92462,0 -0.02724,0.0272 0.02724,0.0883 0,0.11557 -0.02724,0.0272 -0.08112,-0.0172 -0.115578,0 -0.04873,0.0243 0.164309,-0.13994 0.115578,-0.11557 -0.09246,0.0462 -0.254271,-0.0462 -0.346733,0 -0.481006,0.2405 0.123556,-0.008 -0.115577,0.23115 -0.02724,0.0272 -0.08834,-0.0272 -0.115578,0 -0.02724,0.0272 0.02724,0.0883 0,0.11558 -0.02724,0.0272 -0.08834,-0.0272 -0.115577,0 -0.239135,0.23913 0.365428,-0.009 -0.115578,0.23115 -0.03446,0.0173 -0.08834,-0.0272 -0.115578,0 -0.05779,0.0578 0.05779,0.28895 0,0.34673 -0.02724,0.0272 -0.07705,0 -0.115577,0 0,0.077 0.03446,0.16224 0,0.23116 -0.01723,0.0345 -0.08112,-0.0172 -0.115578,0 -0.04873,0.0243 -0.09121,0.0668 -0.115577,0.11558 -0.03135,0.0627 0.471922,0.38692 0.440297,0.41854 -0.02724,0.0272 -0.08834,-0.0272 -0.115577,0 -0.05448,0.0545 0.03446,0.16224 0,0.23116 -0.02437,0.0487 -0.09121,0.0669 -0.115578,0.11558 -0.01723,0.0345 0,0.077 0,0.11558 v 0.23115 l 0.120503,0.714 -0.214068,1.43905 v 1.0402 0.23115 c 0,0.077 -0.02437,0.15806 0,0.23116 0.01723,0.0517 0.09121,0.0668 0.115578,0.11558 0.01723,0.0345 0,0.077 0,0.11558 0,0.077 -0.313309,0.15806 -0.288944,0.23115 0.01723,0.0517 0.09121,0.0669 0.115578,0.11558 0.01723,0.0345 0,0.077 0,0.11558 v 0.11557 0.57789 l -0.05779,1.12688 v 0.23116 c 0,0.11557 -0.02803,0.2346 0,0.34673 0.01321,0.0529 0.07705,0.077 0.115577,0.11558 v 0.23115 0.92462 c 0,0.0385 -0.02724,0.0883 0,0.11558 0.02724,0.0272 0.07705,0 0.115578,0 h 0.92462 0.115578 c 0.03853,0 0.08834,0.0272 0.115577,0 0.02724,-0.0272 -0.02724,-0.0883 0,-0.11558 0.05448,-0.0545 0.176671,0.0545 0.231155,0 0.02724,-0.0272 -0.02724,-0.0883 0,-0.11557 0.02724,-0.0272 0.08112,0.0172 0.115578,0 0.04873,-0.0244 0.06685,-0.0912 0.115577,-0.11559 0.06892,-0.0345 0.158057,0.0243 0.231155,0 0.08173,-0.0272 0.14943,-0.0883 0.231155,-0.11557 0.09303,-0.031 0.388454,0.0369 0.46231,0 0.04873,-0.0243 0.06389,-0.0983 0.115578,-0.11558 0.06392,-0.0213 0.577072,0 0.693465,0 0.03853,0 0.08112,0.0172 0.115577,0 0.04873,-0.0244 0.06685,-0.0912 0.115578,-0.11558 0.09246,-0.0462 0.25427,0.0462 0.346732,0 0.04873,-0.0244 0.06685,-0.0912 0.115578,-0.11557 0.03039,-0.0152 0.401872,0 0.46231,0 h 1.38693 -0.115577 c -0.03853,0 -0.193581,-0.70023 0.115577,0 0.02724,-0.0272 -0.02724,-0.0883 0,-0.11558 0.02724,-0.0272 0.231155,-0.11558 0.115578,0 0.04873,-0.0244 0.06685,-0.0912 0.115577,-0.11558 0.06892,-0.0345 0,0 0.231155,0 0.04873,-0.0244 0.06685,-0.0912 0.115578,-0.11558 0.03446,-0.0172 0.07705,0 0.115577,0 h 0.115578 0.115577 -0.231155 c 0.115578,0 0.309081,0.10928 0.346733,0 0.03734,-0.10837 -0.184071,-0.13664 -0.276107,-0.20497"
       id="path1509"
       inkscape:connector-curvature="0"
       sodipodi:nodetypes="cscccccccsscsccccccsssssccccccsccccssccsscccscccccscccccsccccccccccccsccccsccsccscccscccscscsccccccccccsccccscscsccccsccccc"
       inkscape:export-xdpi="96"
       inkscape:export-ydpi="96" />
    <path
       style="fill:#ffffff;fill-opacity:1;stroke:#000000;stroke-width:0.1144159px;stroke-linecap:butt;stroke-linejoin:miter;stroke-opacity:1"
       d="m 137.66,93.553316 c 0.67638,-0.221206 1.34177,-0.479383 2.02911,-0.663745 0.0372,-0.01 0.0161,0.07541 0.0241,0.113043 0.0161,0.07541 0.0321,0.150716 0.0482,0.226075 0.0562,0.263769 0.1124,0.527529 0.1686,0.791288 0.12845,0.602877 0.25691,1.205755 0.38536,1.808642 0.0168,0.07863 0.13216,0.519965 0.12043,0.565203 -0.0136,0.05269 -0.0753,0.08434 -0.089,0.137119 -0.0194,0.07457 0.0901,0.161436 0.0482,0.226085 -0.0419,0.06466 -0.18415,-0.01649 -0.22608,0.04817 -0.021,0.03228 0.0338,0.07573 0.0241,0.113033 -0.0656,0.252983 -0.25459,0.09218 -0.31503,0.185297 -0.021,0.03228 0.045,0.08069 0.0241,0.113043 -0.18405,0.283713 -0.067,-0.359345 -0.20199,0.161212 -0.01,0.03734 0.045,0.08069 0.0241,0.113033 -0.0419,0.06466 -0.18415,-0.01649 -0.22608,0.04817 -0.021,0.03228 0.0337,0.07573 0.0241,0.113043 -0.0692,0.266945 -0.10869,0.0073 -0.17791,0.274255 -0.01,0.03734 0.045,0.08069 0.0241,0.113033 -0.021,0.03228 -0.0829,8.2e-5 -0.11304,0.02408 -0.22331,0.178228 -0.0201,0.0776 -0.0649,0.25017 -0.0717,0.276567 -0.0627,0.05006 -0.20199,0.161213 -0.42033,0.335456 0.11917,-0.03357 -0.0649,0.25016 -0.021,0.03228 -0.0829,8.2e-5 -0.11304,0.02408 -0.0852,0.06794 -0.0927,0.206285 -0.17791,0.274256 -0.0301,0.024 -0.0921,-0.0082 -0.11304,0.02408 -0.021,0.03228 0.045,0.08069 0.0241,0.113042 -0.021,0.03228 -0.0754,0.01606 -0.11304,0.02408 -0.11304,0.02409 -0.22608,0.04817 -0.33912,0.07226 -0.3768,0.08028 -0.7536,0.160567 -1.1304,0.24085 -0.26376,0.0562 -0.52752,0.112397 -0.79128,0.168596 -0.0385,0.0082 -0.38665,0.103648 -0.45216,0.09634 -0.87695,-0.09848 0.18516,-0.0054 -0.38729,-0.15383 -0.0679,-0.01764 -0.41465,0.120656 -0.45216,0.09634 -0.0323,-0.02093 0.008,-0.09204 -0.0241,-0.113043 -0.0323,-0.02093 -0.0807,0.04501 -0.11304,0.02409 -0.0323,-0.02093 0.008,-0.09204 -0.0241,-0.113033 -0.0323,-0.02093 -0.0758,0.03373 -0.11304,0.02408 -0.57246,-0.148446 0.48966,-0.05535 -0.38729,-0.15383 -0.0383,-0.0043 -0.0807,0.04501 -0.11304,0.02408 -0.0642,-0.301444 0.0457,0.02963 -0.13713,-0.08896 -0.0323,-0.02093 0.0132,-0.103323 -0.0241,-0.113042 -0.0746,-0.01938 -0.14953,0.0567 -0.22608,0.04817 -0.1083,-0.0122 -0.16877,-0.150555 -0.27425,-0.177905 -0.13348,-0.03464 -0.0926,0.08281 -0.22608,0.04817 -0.10547,-0.02732 -0.16877,-0.150555 -0.27426,-0.177915 -0.0373,-0.0096 -0.0757,0.03373 -0.11304,0.02408 -0.0527,-0.01361 -0.0844,-0.07527 -0.13712,-0.08895 -0.0373,-0.0096 -0.0807,0.04501 -0.11304,0.02408 -0.28372,-0.184057 0.35928,-0.06735 -0.16121,-0.201999 -0.0746,-0.01938 -0.16144,0.09012 -0.22608,0.04817 -0.28372,-0.184047 0.35928,-0.06735 -0.16121,-0.20199 -0.0373,-0.0096 -0.0807,0.04501 -0.11304,0.02408 -0.0646,-0.04195 -1.1e-4,-0.165859 -0.0482,-0.226085 -0.33546,-0.420332 0.0336,0.119181 -0.25017,-0.06486 -0.28371,-0.184057 0.35929,-0.06735 -0.16121,-0.202 -0.0373,-0.0097 -0.0807,0.04501 -0.11304,0.02409 -0.0323,-0.02093 -5e-5,-0.08291 -0.0241,-0.113043 -0.034,-0.04255 -0.10313,-0.04633 -0.13713,-0.08895 -0.024,-0.03015 -4e-5,-0.08291 -0.0241,-0.113042 -0.034,-0.04256 -0.10313,-0.04633 -0.13713,-0.08896 -0.024,-0.03015 0.008,-0.09204 -0.0241,-0.113042 -0.0323,-0.02093 -0.0807,0.04501 -0.11304,0.02408 -0.0646,-0.04195 0.0165,-0.184145 -0.0482,-0.226076 -0.0323,-0.02093 -0.0807,0.04501 -0.11304,0.02409 -0.0323,-0.02093 -0.0161,-0.07531 -0.0241,-0.113043 -0.0401,-0.188401 -0.0803,-0.376802 -0.12042,-0.565203 -0.0803,-0.376802 -0.16057,-0.753604 -0.24085,-1.130396 -0.0126,-0.05907 -0.10488,-0.41927 -0.0963,-0.452161 0.0273,-0.105514 0.15055,-0.16878 0.17791,-0.274255 0.0259,-0.100103 -0.0982,-0.239054 -0.0723,-0.339118 0.0273,-0.105514 0.15056,-0.16877 0.17791,-0.274255 0.01,-0.03733 -0.0338,-0.07573 -0.0241,-0.113033 0.29502,-0.454795 -0.0306,0.117931 0.0649,-0.250171 0.13498,-0.520567 0.0179,0.122515 0.20199,-0.161212 0.0419,-0.06466 -0.0675,-0.151497 -0.0482,-0.226075 0.0137,-0.05271 0.0753,-0.08434 0.089,-0.137128 0.01,-0.03733 -0.045,-0.08069 -0.0241,-0.113033 0.021,-0.03228 0.0921,0.0082 0.11304,-0.02408 0.021,-0.03228 -0.0337,-0.07573 -0.0241,-0.113043 0.0137,-0.05271 0.0753,-0.08444 0.089,-0.137127 0.0194,-0.07457 -0.0901,-0.161438 -0.0482,-0.226085 0.021,-0.03228 0.0754,-0.01606 0.11304,-0.02408 -0.008,-0.03766 -0.045,-0.08069 -0.0241,-0.113033 0.021,-0.03228 0.0921,0.0082 0.11304,-0.02408 0.0445,-0.06857 -0.11674,-0.270564 -0.0723,-0.339128 0.0419,-0.06466 0.18415,0.01649 0.22608,-0.04817 0.0419,-0.06466 -0.0901,-0.161438 -0.0482,-0.226075 0.0419,-0.06466 0.16587,-6.6e-5 0.22608,-0.04817 0.0426,-0.03392 0.0464,-0.103129 0.089,-0.137128 0.0808,-0.06445 0.25831,-0.0078 0.33912,-0.07225 0.0426,-0.03392 0.0464,-0.103127 0.089,-0.137128 0.0301,-0.024 0.0921,0.0082 0.11304,-0.02408 0.021,-0.03228 -0.045,-0.08068 -0.0241,-0.113033 0.004,-0.006 0.5119,-0.109069 0.5652,-0.120425 0.7536,-0.160567 1.5072,-0.321134 2.2608,-0.481701 0.22608,-0.04817 0.45216,-0.09634 0.67824,-0.144511 0.0377,-0.008 0.0754,-0.01606 0.11304,-0.02408 0.0377,-0.008 0.0758,-0.03373 0.11304,-0.02408 0.0528,0.01371 0.0844,0.07527 0.13713,0.08895 0.0373,0.0097 0.0807,-0.04501 0.11304,-0.02408 0.0323,0.02093 -0.008,0.09204 0.0241,0.113043 0.0323,0.02093 0.0758,-0.03373 0.11304,-0.02408 0.27656,0.07171 0.05,0.06266 0.16121,0.202 0.33546,0.420321 -0.0336,-0.11918 0.25017,0.06486 0.0647,0.04195 9e-5,0.165862 0.0482,0.226085 0.034,0.04256 0.10312,0.04633 0.13712,0.08896 0.0241,0.03015 -0.008,0.09204 0.0241,0.113033 0.0323,0.02093 0.0807,-0.04501 0.11304,-0.02408 0.0323,0.02093 6e-5,0.0829 0.0241,0.113042 0.45479,0.295025 -0.076,-0.09522 0.16121,0.202 0.034,0.04256 0.10313,0.04633 0.13713,0.08896 0.024,0.03016 7e-5,0.0829 0.0241,0.113032 0.034,0.04256 0.10315,0.04642 0.13713,0.08896 0.024,0.03016 -0.008,0.09204 0.0241,0.113042 0.0323,0.02093 0.0807,-0.04501 0.11304,-0.02408 0.0323,0.02093 0.005,0.07981 0.0241,0.113033 0.0538,0.06738 0.10747,0.13467 0.16121,0.202 0.0377,-0.008 0.0807,-0.04501 0.11304,-0.02408 0.0354,0.166326 -0.008,0.09204 0.16121,0.20199 0.0457,0.02963 0.0914,0.05925 0.13713,0.08896 0.008,0.03765 -0.008,0.09204 0.0241,0.113042 0.0323,0.02093 0.0807,-0.04501 0.11304,-0.02408 0.0323,0.02093 -0.008,0.09204 0.0241,0.113043 0.0646,0.04195 0.16143,-0.09012 0.22608,-0.04817 0.0323,0.02093 7e-5,0.08291 0.0241,0.113033 0.33546,0.420332 -0.0336,-0.11917 0.25017,0.06487 0.0323,0.02093 -0.008,0.09204 0.0241,0.113043 0.0323,0.02093 0.0807,-0.04501 0.11304,-0.02408 0.0323,0.02093 -0.008,0.09204 0.0241,0.113043 0.0323,0.02093 0.0807,-0.04501 0.11304,-0.02408 0.0323,0.02093 -0.008,0.09204 0.0241,0.113033 0.0323,0.02093 0.15121,-0.02915 0.11304,-0.02409 -0.51248,0.06482 -1.02411,0.136102 -1.53616,0.204202"
       id="path1505"
       inkscape:connector-curvature="0"
       inkscape:export-xdpi="96"
       inkscape:export-ydpi="96" />
    <path
       style="fill:#ffffff;fill-opacity:1;stroke:#717171;stroke-width:0.1144159px;stroke-linecap:butt;stroke-linejoin:miter;stroke-opacity:1"
       d="m 77.234458,98.122589 c 0.03501,-0.112551 -0.0075,-0.372662 0.105028,-0.337652 0.11255,0.03503 -0.0091,0.269141 -0.105028,0.337652 -0.201772,0.144123 -0.489073,0.116611 -0.704015,0.240237 -0.07468,0.04294 -0.06389,0.162237 -0.115577,0.231155 -0.193798,0.258395 -0.145027,0.231155 -0.346733,0.231155 -0.03853,0 -0.08834,-0.02724 -0.115577,0 -0.02724,0.02724 0.02724,0.08834 0,0.115578 -0.02724,0.02724 -0.08834,-0.02724 -0.115578,0 0,0.308203 0.03852,-0.03853 -0.115578,0.115578 -0.02724,0.02724 0.02724,0.08833 0,0.115578 -0.05448,0.05448 -0.162237,-0.03447 -0.231154,0 -0.04873,0.02435 -0.06685,0.09121 -0.115579,0.115577 -0.03446,0.01721 -0.08112,-0.01725 -0.115577,0 -0.04873,0.02435 -0.06685,0.09121 -0.115577,0.115574 -0.07291,0.03645 -0.504974,-0.03646 -0.577887,0 -0.04873,0.02439 -0.06685,0.09121 -0.115579,0.115582 -0.07264,0.03633 -0.389666,-0.03632 -0.46231,0 -0.04873,0.02435 -0.06684,0.09121 -0.115577,0.115573 -0.03446,0.01725 -0.07903,-0.0122 -0.115577,0 -0.08173,0.02724 -0.14943,0.08834 -0.231156,0.115578 -0.102567,0.03421 -0.502205,-0.03784 -0.577887,0 -0.04873,0.02439 -0.09121,0.06685 -0.115577,0.115578 -0.01723,0.03446 0.03446,0.09835 0,0.115577 -0.06892,0.03447 -0.156404,-0.01868 -0.231156,0 -0.08357,0.02089 -0.149429,0.08834 -0.231154,0.115581 -0.04498,0.015 -0.328797,-0.0179 -0.346733,0 -0.02724,0.0272 0.02724,0.0883 0,0.11557 -0.02724,0.0272 -0.08112,-0.0172 -0.115577,0 -0.04873,0.0244 -0.06685,0.0912 -0.115577,0.11558 -0.09246,0.0462 -0.254271,-0.0462 -0.346733,0 -0.03446,0.0172 0.02724,0.0883 0,0.11558 -0.02724,0.0272 -0.07903,-0.0122 -0.115577,0 -0.163453,0.0545 -0.298859,0.17667 -0.46231,0.23116 -0.03655,0.0122 -0.08112,-0.0172 -0.115579,0 -0.04873,0.0244 -0.06389,0.0983 -0.115577,0.11557 -0.0731,0.0243 -0.154104,0 -0.231156,0 -0.03853,0 -0.08112,-0.0172 -0.115577,0 -0.04873,0.0243 -0.06389,0.0983 -0.115577,0.11558 -0.06214,0.0207 -0.364456,0 -0.46231,0 -0.346733,0 -0.693466,0 -1.040198,0 -0.03853,0 -0.07705,0 -0.115578,0 -0.03853,0 -0.08833,0.0272 -0.115577,0 -0.02724,-0.0272 0.02724,-0.0883 0,-0.11558 -0.02724,-0.0272 -0.08112,0.0172 -0.115577,0 -0.04873,-0.0244 -0.06685,-0.0912 -0.115578,-0.11557 -0.03446,-0.0172 -0.08112,0.0172 -0.115578,0 -0.184344,-0.0922 -0.04681,-0.13899 -0.231154,-0.23116 -0.03446,-0.0172 -0.08112,0.0172 -0.115578,0 -0.04873,-0.0243 -0.06685,-0.0912 -0.115578,-0.11558 -0.03446,-0.0172 -0.08112,0.0172 -0.115577,0 -0.04873,-0.0244 -0.06685,-0.0912 -0.115577,-0.11558 -0.03446,-0.0172 -0.08112,0.0173 -0.115578,0 -0.04873,-0.0243 -0.06685,-0.0912 -0.115578,-0.11557 -0.03446,-0.0172 -0.08112,0.0172 -0.115577,0 -0.09746,-0.0487 -0.133692,-0.182427 -0.231155,-0.231158 -0.03446,-0.01721 -0.08834,0.02724 -0.115578,0 -0.02724,-0.02724 0.02724,-0.08834 0,-0.115578 -0.03579,-0.03581 -0.542099,0.03581 -0.577887,0 -0.02724,-0.02724 0.02724,-0.08833 0,-0.115578 -0.05448,-0.05448 -0.162238,0.03446 -0.231155,0 -0.04873,-0.02435 -0.06685,-0.09121 -0.115578,-0.115573 -0.07983,-0.03991 -0.537318,0.04056 -0.577887,0 -0.02724,-0.02724 0.02724,-0.08834 0,-0.115582 -0.02724,-0.02724 -0.07705,0 -0.115578,0 -0.03852,0 -0.07705,0 -0.115577,0 -0.115578,0 -0.243356,0.05169 -0.346733,0 -0.03446,-0.01721 0.02724,-0.08833 0,-0.115574 -0.291938,-0.291939 -0.133236,-0.04442 -0.346732,-0.115577 -0.837177,-0.279061 0.18222,0.0333 -0.346733,-0.231156 -0.03446,-0.01721 -0.08112,0.01721 -0.115577,0 -0.04873,-0.02435 -0.06389,-0.09835 -0.115578,-0.115578 -5.62e-4,-2.29e-4 -0.346622,1.09e-4 -0.346732,0 -0.239134,-0.239133 0.365428,0.0093 -0.115578,-0.231155 -0.0627,-0.03135 -0.430685,0.03161 -0.46231,0 -0.05448,-0.05448 0.03446,-0.162238 0,-0.231155 -0.240503,-0.481006 0.008,0.123556 -0.231155,-0.115578 -0.02724,-0.02724 0.02724,-0.08833 0,-0.115578 -0.02724,-0.02724 -0.08834,0.02724 -0.115578,0 -0.02781,-0.02781 0.02781,-0.434496 0,-0.462311 -0.02724,-0.02724 -0.08834,0.02724 -0.115577,0 -0.02724,-0.02724 0.01723,-0.08112 0,-0.115577 -0.02437,-0.04873 -0.09121,-0.06685 -0.115578,-0.115578 -0.03646,-0.07291 0.03646,-0.504971 0,-0.577884 -0.02437,-0.04874 -0.09121,-0.06685 -0.115577,-0.115583 -0.03632,-0.07264 0.03632,-0.389664 0,-0.462307 -0.02437,-0.04873 -0.09835,-0.06389 -0.115578,-0.115578 -0.02437,-0.0731 0.03446,-0.162238 0,-0.231154 -0.01723,-0.03446 -0.08834,0.02724 -0.115577,0 -0.02724,-0.02724 0,-0.07705 0,-0.115578 0,-0.231155 0,-0.46231 0,-0.693465 0,-0.03853 0.02724,-0.08834 0,-0.115577 -0.02724,-0.02724 -0.08834,0.02724 -0.115578,0 -0.02724,-0.02724 0,-0.07705 0,-0.115578 0,-0.03853 0,-0.07705 0,-0.115578 0,-0.26968 0,-0.539361 0,-0.809042 0,-0.03853 0.02724,-0.08834 0,-0.115578 -0.02724,-0.02724 -0.08833,0.02724 -0.115577,0 -0.02724,-0.02724 0,-0.07705 0,-0.115577 0,-0.308207 0,-0.616414 0,-0.92462 0,-0.500836 0,-1.001672 0,-1.502509 0,-0.03853 0,-0.07705 0,-0.115577 0,-0.03853 -0.02724,-0.08834 0,-0.115577 0.02724,-0.02724 0.08834,0.02724 0.115577,0 0.05779,-0.05779 -0.05779,-0.288944 0,-0.346733 0.02724,-0.02724 0.08834,0.02724 0.115578,0 0.05448,-0.05448 -0.05448,-0.176671 0,-0.231155 0.02724,-0.02724 0.08833,0.02724 0.115577,0 0.02724,-0.02724 -0.02724,-0.08834 0,-0.115578 0.02724,-0.02724 0.08834,0.02724 0.115578,0 0.07708,-0.07708 -0.07708,-0.154074 0,-0.231154 0.02724,-0.02724 0.08834,0.02724 0.115577,0 0.02724,-0.02724 -0.01723,-0.08112 0,-0.115578 0.04873,-0.09746 0.170711,-0.140488 0.231155,-0.231155 0.0554,-0.08311 0.175751,-0.379203 0.231155,-0.46231 0.03022,-0.04533 0.09121,-0.06685 0.115578,-0.115577 0.03446,-0.06892 -0.05448,-0.176672 0,-0.231156 0.02724,-0.02724 0.08834,0.02724 0.115577,0 0.02724,-0.02724 -0.02724,-0.08834 0,-0.115577 0.06091,-0.06092 0.170241,-0.05466 0.231155,-0.115577 0.02724,-0.02724 -0.02724,-0.08834 0,-0.115578 0.140771,-0.140771 0.258225,-0.05414 0.346733,-0.231155 0.01723,-0.03446 -0.02724,-0.08834 0,-0.115577 0.02724,-0.02724 0.08112,0.01723 0.115577,0 0.138694,-0.06935 0.20804,-0.277387 0.346733,-0.346733 0.03446,-0.01723 0.08834,0.02724 0.115577,0 0.02724,-0.02724 -0.01723,-0.08112 0,-0.115577 0.02437,-0.04873 0.07705,-0.07705 0.115578,-0.115578 0.03853,-0.03853 0.06684,-0.09121 0.115578,-0.115578 0.03446,-0.01723 0.08834,0.02724 0.115577,0 0.02724,-0.02724 -0.02724,-0.08834 0,-0.115577 0.02724,-0.02724 0.08112,0.01723 0.115578,0 0.04873,-0.02437 0.06685,-0.09121 0.115577,-0.115577 0.03446,-0.01723 0.08112,0.01723 0.115578,0 0.04873,-0.02437 0.06685,-0.09121 0.115577,-0.115578 0.06892,-0.03446 0.162238,0.03446 0.231155,0 0.04873,-0.02437 0.06685,-0.09121 0.115578,-0.115578 0.06892,-0.03446 0.162238,0.03446 0.231155,0 0.21278,-0.106389 0.01837,-0.240342 0.231155,-0.346732 0.06892,-0.03446 0.162238,0.03446 0.231155,0 0.09746,-0.04873 0.133692,-0.182423 0.231155,-0.231155 0.06892,-0.03446 0.162238,0.03446 0.231155,0 0.21278,-0.10639 0.01837,-0.240342 0.231155,-0.346733 0.03446,-0.01723 0.07705,0 0.115577,0 0.07705,-0.03853 0.159478,-0.06779 0.231156,-0.115577 0.09067,-0.06044 0.140487,-0.170711 0.231154,-0.231156 0.07168,-0.04778 0.14943,-0.08834 0.231156,-0.115577 0.03655,-0.01218 0.08833,0.02724 0.115577,0 0.05448,-0.05448 -0.05448,-0.176671 0,-0.231154 0.05448,-0.05448 0.162238,0.03446 0.231155,0 0.481006,-0.240504 -0.123556,0.008 0.115578,-0.231156 0.05448,-0.05448 0.17667,0.05448 0.231154,0 0.02724,-0.02724 -0.02724,-0.08834 0,-0.115577 0.02724,-0.02724 0.08112,0.01723 0.115578,0 0.04873,-0.02437 0.06685,-0.09121 0.115578,-0.115577 0.03446,-0.01723 0.08834,0.02724 0.115577,0 0.02724,-0.02724 -0.02724,-0.08834 0,-0.115579 0.02724,-0.02724 0.07705,0 0.115577,0 0.03853,0 0.07705,0 0.115578,0 0.116392,0 0.629549,0.02131 0.693465,0 0.05169,-0.01723 0.06685,-0.09121 0.115577,-0.115577 0.06892,-0.03446 0.158058,0.02437 0.231156,0 0.08173,-0.02724 0.149429,-0.08834 0.231154,-0.115577 0.03655,-0.01218 0.07705,0 0.115579,0 0.133784,0 0.474701,0.0258 0.577887,0 0.08357,-0.0209 0.146681,-0.09868 0.231156,-0.115577 0.113332,-0.02267 0.233399,0.02266 0.346731,0 0.08447,-0.0169 0.147581,-0.09468 0.231156,-0.115579 0.07475,-0.01869 0.154103,0 0.231154,0 0.07705,-0.03853 0.14943,-0.08834 0.231156,-0.115577 0.06521,-0.02173 0.270786,0 0.346733,0 0.192628,0 0.385257,0 0.577887,0 0.04244,0 0.457659,-0.0047 0.46231,0 0.02724,0.02724 -0.02724,0.08834 0,0.115577 0.02363,0.02363 0.300907,-0.02291 0.346733,0 0.383321,0.383323 -0.108968,-0.05448 0.231154,0.115579 0.04873,0.02437 0.06685,0.09121 0.115577,0.115577 0.03446,0.01723 0.08834,-0.02724 0.115579,0 0.02724,0.02724 -0.02724,0.08834 0,0.115577 0.05779,0.05779 0.288943,-0.05779 0.346731,0 0.02724,0.02724 -0.02724,0.08834 0,0.115577 0.02724,0.02724 0.08112,-0.01723 0.115579,0 0.04873,0.02437 0.06684,0.09121 0.115577,0.115579 0.03517,0.01759 0.294681,0 0.346733,0 0.308206,0 0.616413,0 0.92462,0 0.02803,0 0.343015,-0.0037 0.346732,0 0.02724,0.02724 -0.02724,0.08833 0,0.115577 0.02724,0.02724 0.08112,-0.01723 0.115578,0 0.04873,0.02437 0.06685,0.09121 0.115577,0.115577 0.06892,0.03446 0.176671,-0.05448 0.231155,0 0.02724,0.02724 -0.02724,0.08834 0,0.115577 0.03579,0.03579 0.5421,-0.03579 0.577888,0 0.02724,0.02724 -0.02724,0.08834 0,0.115579 0.02724,0.02724 0.08112,-0.01723 0.115577,0 0.04873,0.02436 0.06685,0.09121 0.115577,0.115577 0.07264,0.03632 0.389668,-0.03632 0.46231,0 0.184346,0.09217 0.04681,0.138982 0.231156,0.231154 0.06892,0.03446 0.162237,-0.03446 0.231154,0 0.04873,0.02437 0.06685,0.09121 0.115579,0.115579 0.09246,0.04623 0.25427,-0.04623 0.346731,0 0.481007,0.240502 -0.123556,-0.008 0.115579,0.231154 0.05448,0.05448 0.162237,-0.03446 0.231154,0 0.04873,0.02436 0.06685,0.09121 0.115577,0.115578 0.03446,0.01723 0.08834,-0.02724 0.115579,0 0.02724,0.02724 -0.01723,0.08112 0,0.115578 0.02436,0.04873 0.07705,0.07705 0.115577,0.115577 0.03853,0.03853 0.07024,0.08535 0.115577,0.115577 0.838004,0.419002 -0.182744,-0.121829 0.346733,0.231156 0.02153,0.01435 0.454904,0.223748 0.46231,0.231154 0.239134,0.239134 -0.365428,-0.0093 0.115578,0.231156 0.06892,0.03446 0.176671,-0.05448 0.231155,0 0.239134,0.239134 -0.365428,-0.0094 0.115577,0.231154 0.06892,0.03446 0.162238,-0.03446 0.231155,0 0.04873,0.02436 0.06685,0.09121 0.115578,0.115578 0.03446,0.01723 0.08834,-0.02724 0.115577,0 0.05448,0.05448 -0.05448,0.176671 0,0.231155 0.239134,0.239134 -0.0093,-0.365428 0.231155,0.115577 0.01759,0.03518 0,0.294682 0,0.346733 0,0.231155 0,0.46231 0,0.693465 0,0.423785 0,0.847568 0,1.271352 0,0.133785 0.0258,0.474703 0,0.577889 0.06966,0.209188 -0.187228,0.214953 -0.231155,0.346731 -0.02437,0.0731 0.03446,0.162239 0,0.231156 -0.04873,0.09746 -0.165775,0.143981 -0.231155,0.231154 -0.05169,0.06892 -0.06779,0.159478 -0.115577,0.231156 -0.06044,0.09067 -0.196696,0.12778 -0.231155,0.231154 -0.02437,0.0731 0.03446,0.162239 0,0.231156 -0.119567,0 -0.159745,-0.02724 -0.231155,0.115577 -0.03446,0.06892 0.02436,0.158058 0,0.231156 -0.02724,0.08172 -0.09469,0.14758 -0.115578,0.231154 -0.04532,0.181299 0.04532,0.39659 0,0.577889 -0.139529,0.558117 -0.05493,-0.0057 -0.231155,0.346732 -0.01723,0.03446 0.01218,0.07903 0,0.115578 -0.02724,0.08172 -0.08834,0.149429 -0.115578,0.231154 -0.01218,0.03655 0.01723,0.08112 0,0.115578 -0.02437,0.04873 -0.09121,0.06685 -0.115577,0.115578 -0.03446,0.06892 0.03446,0.162237 0,0.231154 -0.04873,0.09746 -0.182423,0.133692 -0.231156,0.231156 -0.01723,0.03446 0.02724,0.08834 0,0.115577 -0.02724,0.02724 -0.08833,-0.02724 -0.115577,0 -0.05448,0.05448 0.03446,0.162238 0,0.231155 -0.240503,0.481006 0.008,-0.123557 -0.231154,0.115578 -0.05448,0.05448 0.05448,0.176671 0,0.231154 -0.239135,0.239134 0.0093,-0.365428 -0.231156,0.115578 -0.01723,0.03446 0.01723,0.08112 0,0.115578 -0.383322,0.383322 0.05448,-0.108968 -0.115577,0.231154 -0.01106,0.02212 -0.440186,0.45125 -0.46231,0.462312 -0.03446,0.01721 -0.08834,-0.02724 -0.115577,0 -0.05448,0.05448 0.05448,0.176668 0,0.231156 -0.02724,0.02724 -0.08834,-0.02724 -0.115579,0 -0.02724,0.02724 0.02724,0.08833 0,0.115577 -0.02724,0.02724 -0.08833,-0.02724 -0.115577,0 -0.02724,0.02724 0.02724,0.08833 0,0.115574 -0.02724,0.02724 -0.08112,-0.01721 -0.115577,0 -0.04873,0.02435 -0.06685,0.09121 -0.115577,0.115577 -0.03446,0.01726 -0.08834,-0.02724 -0.115579,0 -0.02724,0.02724 0.01723,0.08112 0,0.115578 -0.240502,0.48101 0.008,-0.123556 -0.231154,0.115578 -0.02724,0.02724 0.02724,0.08834 0,0.115578 -0.02724,0.02724 -0.08834,-0.02724 -0.115577,0 -0.02724,0.02724 0.02724,0.08834 0,0.115577 -0.02724,0.02724 -0.07705,0 -0.115579,0 -0.112061,0.151077 -0.224122,0.302153 -0.336182,0.45323 z"
       id="path1503"
       inkscape:connector-curvature="0"
       inkscape:export-xdpi="96"
       inkscape:export-ydpi="96" />
    <path
       style="opacity:1;fill:#000000;fill-opacity:1;stroke:none;stroke-width:0.24432747;stroke-linecap:butt;stroke-linejoin:miter;stroke-miterlimit:4;stroke-dasharray:none;stroke-opacity:1;paint-order:normal"
       id="path815"
       d="m 78.25171,86.815543 c -1.134726,-0.527901 -2.363482,-0.774387 -3.583263,-1.01437 -1.493752,-0.26991 -3.00674,-0.434256 -4.524423,-0.464613 -0.86884,-0.03876 -1.651705,0.262747 -2.427959,0.611069 -0.820555,0.366378 -1.554653,0.88211 -2.283926,1.399789 -0.400954,0.304665 -0.806959,0.605983 -1.137735,0.989566 -0.124456,0.144324 -0.378956,0.494501 -0.48742,0.641019 -0.503003,0.725844 -0.847503,1.538629 -1.183313,2.350306 -0.284063,0.701523 -0.488756,1.425881 -0.597636,2.174103 -0.09555,0.688681 -0.05712,1.36827 0.08788,2.045369 0.177042,0.763525 0.571195,1.341819 1.097533,1.907543 0.636276,0.599035 1.339045,1.118726 2.07859,1.581746 0.540296,0.36647 1.147545,0.569512 1.774362,0.726098 0.713528,0.154791 1.444842,0.186597 2.172181,0.209283 0.652231,0.01492 1.304683,0.01293 1.957036,0.01159 0.511471,-0.01539 0.99764,-0.210005 1.464722,-0.403875 0.649389,-0.273617 1.285676,-0.576038 1.916882,-0.888795 0.561999,-0.314209 1.095194,-0.684943 1.59808,-1.086773 0.541137,-0.462782 1.002752,-1.006979 1.510059,-1.505505 0.546932,-0.52535 1.041786,-1.098607 1.516187,-1.689115 0.421449,-0.494375 0.77456,-1.036751 1.099484,-1.597568 0.313823,-0.625654 0.629458,-1.251874 0.903938,-1.896046 0.123063,-0.270201 0.247892,-0.541821 0.283667,-0.838828 0.02296,-0.268408 0.02677,-0.535964 -0.01006,-0.802669 -0.03216,-0.143892 -0.09778,-0.255464 -0.174188,-0.376195 -0.149376,-0.139328 -0.279147,-0.296884 -0.411322,-0.452122 -0.135234,-0.183549 -0.286017,-0.360281 -0.462623,-0.505425 -0.173022,-0.164001 -0.36915,-0.297345 -0.550874,-0.450549 -0.137332,-0.114212 -0.295913,-0.192447 -0.452814,-0.27563 -0.194543,-0.110515 -0.399065,-0.196202 -0.589484,-0.31481 -0.08578,-0.06878 -0.180321,-0.0738 -0.285444,-0.08424 -0.811907,-0.09334 -0.679898,-1.241557 0.13201,-1.148212 v 0 c 0.281337,0.03454 0.556643,0.09904 0.790782,0.26829 0.120529,0.122384 0.368257,0.139875 0.49765,0.260032 0.228513,0.123148 0.458746,0.244412 0.656883,0.414828 0.180491,0.156626 0.380407,0.289447 0.554707,0.453829 0.216598,0.190224 0.421429,0.397264 0.589227,0.63263 0.167558,0.196808 0.347944,0.380827 0.508013,0.583435 0.165391,0.261499 0.287458,0.534601 0.343137,0.841556 0.04812,0.370828 0.04813,0.743741 0.0089,1.115915 -0.0597,0.396763 -0.189806,0.771305 -0.365405,1.132301 -0.29421,0.686835 -0.627767,1.356669 -0.967152,2.022089 -0.35515,0.610899 -0.740463,1.202426 -1.198843,1.742215 -0.503747,0.624437 -1.02699,1.232641 -1.606566,1.78887 -0.536383,0.526502 -1.021745,1.104572 -1.601031,1.585915 -0.568865,0.449688 -1.166215,0.870645 -1.803834,1.217399 -0.655098,0.324592 -1.315668,0.638122 -1.989743,0.921802 -0.607768,0.24886 -1.237407,0.48281 -1.902595,0.49102 -0.665257,0.001 -1.33062,0.004 -1.995749,-0.0121 -0.810032,-0.0256 -1.624118,-0.0652 -2.417598,-0.24358 -0.743464,-0.18785 -1.464096,-0.43747 -2.106848,-0.86795 -0.826275,-0.519297 -1.61303,-1.101194 -2.316643,-1.780122 -0.119167,-0.131673 -0.24502,-0.257586 -0.357501,-0.395011 -0.489533,-0.598092 -0.842009,-1.306296 -1.019243,-2.057464 -0.171114,-0.839679 -0.215517,-1.598529 -0.09979,-2.449868 0.125671,-0.841479 0.351457,-1.658415 0.673084,-2.447301 0.37216,-0.899073 0.760071,-1.796516 1.322831,-2.596722 0.178311,-0.240154 0.385245,-0.528483 0.581923,-0.7529 0.381613,-0.435435 0.842596,-0.785191 1.302713,-1.131834 0.791158,-0.561432 1.590635,-1.115951 2.480969,-1.512324 0.944863,-0.421391 1.869278,-0.751223 2.923929,-0.711545 1.584582,0.03422 3.164406,0.201655 4.723851,0.486178 1.304214,0.257495 2.615978,0.528028 3.82917,1.092169 0.746818,0.331919 0.277413,1.38808 -0.469405,1.056161 z"
       inkscape:connector-curvature="0"
       inkscape:export-xdpi="96"
       inkscape:export-ydpi="96" />
    <path
       style="opacity:1;fill:#000000;fill-opacity:1;stroke:none;stroke-width:0.24432747;stroke-linecap:butt;stroke-linejoin:miter;stroke-miterlimit:4;stroke-dasharray:none;stroke-opacity:1;paint-order:normal"
       id="path821"
       d="m 77.234458,98.122589 c 0.892162,0.736113 1.823002,1.422855 2.735279,2.133421 0.91604,0.69262 1.749608,1.49874 2.371043,2.47213 0.175676,0.27517 0.324985,0.56631 0.487476,0.84946 0.677448,1.21903 1.216471,2.50858 1.605222,3.84782 0.235516,0.81135 0.315451,1.24349 0.497303,2.07291 0.352539,1.92971 0.582675,3.87916 0.845769,5.82249 0.07204,0.71092 0.224727,1.40978 0.308476,2.11893 0.03491,0.33214 0.04038,0.66622 0.04151,0.99987 -4.75e-4,0.3242 -0.0018,0.6484 -0.0024,0.9726 -3.44e-4,0.15814 -4.76e-4,0.31629 -5.63e-4,0.47444 -6.92e-4,0.81725 -1.156476,0.81626 -1.155776,-8.7e-4 v 0 c 1.15e-4,-0.1586 2.3e-4,-0.31719 5.63e-4,-0.47579 6.92e-4,-0.32216 0.0019,-0.64433 0.0024,-0.96649 -9.08e-4,-0.28992 -0.0046,-0.58024 -0.03364,-0.86898 -0.08176,-0.70241 -0.237174,-1.39413 -0.305902,-2.09852 -0.258919,-1.91249 -0.485947,-3.83085 -0.829505,-5.73049 -0.170901,-0.78268 -0.249279,-1.20536 -0.469548,-1.96934 -0.36397,-1.26241 -0.870121,-2.4778 -1.508211,-3.62643 -0.140719,-0.2492 -0.269659,-0.50542 -0.422156,-0.74759 -0.557086,-0.88465 -1.312307,-1.6094 -2.142313,-2.23423 -0.926454,-0.72172 -1.872095,-1.418868 -2.777202,-2.167682 -0.620507,-0.531864 0.131662,-1.409394 0.752169,-0.877534 z"
       inkscape:connector-curvature="0"
       inkscape:export-xdpi="96"
       inkscape:export-ydpi="96" />
    <path
       style="opacity:1;fill:#000000;fill-opacity:1;stroke:none;stroke-width:0.24432747;stroke-linecap:butt;stroke-linejoin:miter;stroke-miterlimit:4;stroke-dasharray:none;stroke-opacity:1;paint-order:normal"
       id="path823"
       d="m 76.18371,127.94182 c -0.01333,-0.53101 0.08586,-1.05523 0.199977,-1.57122 0.11246,-0.51354 0.302371,-1.00099 0.526549,-1.47486 0.177524,-0.35852 0.34554,-0.71827 0.548302,-1.06326 0.158212,-0.27782 0.391133,-0.49542 0.626885,-0.70565 0.204659,-0.2347 0.460124,-0.4159 0.699497,-0.61253 0.231615,-0.1723 0.459275,-0.34949 0.683743,-0.53098 0.198248,-0.1653 0.407133,-0.30963 0.63643,-0.42888 0.187896,-0.12555 0.382202,-0.23372 0.589082,-0.32774 0.161452,-0.10633 0.319221,-0.21927 0.47899,-0.32884 0.259404,-0.126 0.485939,-0.30353 0.731169,-0.45237 0.251233,-0.17224 0.515664,-0.30561 0.80773,-0.39241 0.274767,-0.0693 0.558662,-0.0761 0.840338,-0.0798 0.245181,-8.6e-4 0.490363,8.7e-4 0.735542,0.001 0.211325,-0.0308 0.475334,0.0475 0.679525,-0.008 0.211891,-0.0494 0.427474,-0.0754 0.644089,-0.0918 0.2444,-0.0148 0.48936,-0.0148 0.734109,-0.0154 0.398875,-0.0153 0.788735,0.0673 1.176232,0.14907 0.416434,0.0998 0.675436,0.25367 0.957208,0.58018 0.292051,0.3644 0.531991,0.76935 0.776547,1.16666 0.250156,0.43906 0.510703,0.87487 0.729839,1.33045 0.245475,0.51043 0.398469,1.05087 0.536225,1.59762 0.152419,0.77917 0.277073,1.56445 0.407616,2.3478 0.183723,1.12256 0.437788,2.23126 0.669365,3.3444 0.166438,0.80012 -0.965116,1.0355 -1.131554,0.23537 v 0 c -0.234655,-1.12827 -0.491903,-2.25206 -0.677873,-3.38987 -0.125308,-0.75236 -0.246879,-1.50611 -0.388304,-2.25536 -0.11946,-0.47414 -0.246347,-0.94378 -0.460541,-1.38639 -0.193005,-0.42038 -0.447242,-0.81295 -0.669133,-1.21837 -0.214275,-0.34838 -0.423431,-0.70469 -0.675374,-1.02682 -0.01853,-0.023 -0.03985,-0.044 -0.05561,-0.069 -0.01676,-0.0266 0.03939,-3.5e-4 -0.0087,-0.0306 -0.07565,-0.0475 -0.167047,-0.0611 -0.24842,-0.0953 -0.308225,-0.0651 -0.617191,-0.13899 -0.934924,-0.12416 -0.217236,4.4e-4 -0.434649,2.3e-4 -0.651627,0.0122 -0.196271,0.0139 -0.389423,0.0446 -0.581934,0.0856 -0.276074,0.0281 -0.552924,0.017 -0.830255,0.0175 -0.239204,-8.6e-4 -0.478408,-0.003 -0.717612,-0.002 -0.180615,0.002 -0.362806,0.003 -0.540892,0.0364 -0.198071,0.0483 -0.358412,0.16713 -0.530076,0.27301 -0.227089,0.13049 -0.426846,0.30753 -0.669147,0.41269 -0.215196,0.14748 -0.424231,0.30461 -0.654877,0.42804 -0.191821,0.087 -0.36504,0.19367 -0.544052,0.30612 -0.163041,0.0779 -0.297507,0.18792 -0.437783,0.30109 -0.222188,0.17604 -0.442909,0.35391 -0.67178,0.52129 -0.228022,0.18703 -0.469623,0.35896 -0.664503,0.58262 -0.146052,0.12971 -0.299492,0.25576 -0.398807,0.42793 -0.185702,0.31581 -0.337297,0.64624 -0.501016,0.97414 -0.188993,0.39432 -0.347758,0.80008 -0.441802,1.22835 -0.09639,0.43384 -0.185616,0.87429 -0.172592,1.32112 0,0.81726 -1.155775,0.81726 -1.155775,0 z"
       inkscape:connector-curvature="0"
       inkscape:export-xdpi="96"
       inkscape:export-ydpi="96" />
    <path
       style="opacity:1;fill:#000000;fill-opacity:1;stroke:none;stroke-width:0.24432747;stroke-linecap:butt;stroke-linejoin:miter;stroke-miterlimit:4;stroke-dasharray:none;stroke-opacity:1;paint-order:normal"
       id="path825"
       d="m 68.002086,94.483075 c 0.369478,0.09879 0.753146,0.130578 1.133478,0.156652 0.287082,0.02802 0.567946,0.02727 0.851589,-0.01883 0.15167,-0.06114 0.273432,-0.185156 0.402203,-0.283356 0.203489,-0.174358 0.405752,-0.349974 0.609079,-0.52538 0.277908,-0.256607 0.592478,-0.469254 0.894074,-0.696708 0.370133,-0.257225 0.745508,-0.507387 1.12034,-0.757889 0.119618,-0.109582 0.320516,-0.204316 0.402272,-0.327704 0.114273,-0.127931 0.07579,-0.166593 0.117184,-0.364867 0.05577,-0.231594 0.08424,-0.467598 0.09925,-0.704899 0.01106,-0.222518 0.01056,-0.445391 0.01066,-0.66812 -2.28e-4,-0.23062 -6.92e-4,-0.46124 -10e-4,-0.69186 -0.02867,-0.217909 0.0099,-0.107037 -0.0058,-0.08636 -0.0011,0.0015 -0.03683,-0.06645 -0.06972,-0.127582 -0.08284,-0.159733 -0.211702,-0.280919 -0.334456,-0.408401 -0.06117,-0.05263 -0.03197,-0.0349 -0.08275,-0.06044 -0.671974,-0.465143 -0.01417,-1.41546 0.657811,-0.950317 v 0 c 0.186935,0.136713 0.101222,0.06575 0.258979,0.21064 0.173349,0.181607 0.350087,0.360852 0.47237,0.583125 0.1532,0.256236 0.282486,0.530042 0.259357,0.838122 2.28e-4,0.231218 6.92e-4,0.462438 0.001,0.693657 -1.14e-4,0.247598 1.15e-4,0.495363 -0.01311,0.742687 -0.01948,0.292371 -0.05432,0.583418 -0.121853,0.869045 -0.0634,0.294072 -0.109911,0.597475 -0.327918,0.825159 -0.194068,0.234382 -0.432133,0.415831 -0.681141,0.589769 -0.356778,0.237177 -0.712182,0.47699 -1.065553,0.719015 -0.283326,0.213669 -0.579643,0.41225 -0.840372,0.65364 -0.221707,0.18734 -0.436653,0.38038 -0.659586,0.566031 -0.282489,0.213479 -0.554819,0.444662 -0.917463,0.504055 -0.37087,0.05934 -0.741046,0.0657 -1.11553,0.03077 -0.460621,-0.03236 -0.924275,-0.07502 -1.370903,-0.198345 -0.785812,-0.224518 -0.468296,-1.335822 0.317515,-1.111305 z"
       inkscape:connector-curvature="0"
       inkscape:export-xdpi="96"
       inkscape:export-ydpi="96" />
    <path
       style="opacity:1;fill:#ff0000;fill-opacity:1;stroke:none;stroke-width:0.24432747;stroke-linecap:butt;stroke-linejoin:miter;stroke-miterlimit:4;stroke-dasharray:none;stroke-opacity:1;paint-order:normal"
       id="path827"
       d="m 65.847427,91.452552 c -0.03312,0.225235 0.0508,0.138607 -0.05275,-0.0096 -0.08284,-0.04483 -0.102441,-0.08924 -0.157448,-0.07946 -0.03074,0.0055 -0.05859,0.02763 -0.0898,0.02665 -0.0157,-4.75e-4 0.02514,-0.01885 0.03771,-0.02828 -0.05464,0.01241 -0.08618,0.09555 0.02283,-0.06628 0.03828,-0.05682 0.0728,-0.117112 0.104311,-0.178 0.08278,-0.236841 -0.01608,-0.174694 0.07511,0.07882 0.185738,0.202224 0.09392,0.120491 -0.116801,0.113544 -0.0035,0.0028 -0.01514,0.0079 -0.01065,0.0083 0.0889,0.009 0.154482,-0.04467 0.218034,-0.09724 -0.454139,0.679459 -1.41504,0.03721 -0.9609,-0.642251 v 0 c 0.250452,-0.305353 0.391522,-0.405455 0.796115,-0.423825 0.379031,0.015 0.736856,0.06003 1.007517,0.359717 0.04544,0.08416 0.104513,0.162285 0.13632,0.252487 0.106889,0.303142 -0.0042,0.62831 -0.130209,0.904094 -0.12767,0.22869 -0.265954,0.459423 -0.468261,0.629938 -0.375542,0.264274 -0.720463,0.290837 -1.130515,0.08589 -0.06449,-0.05424 -0.137316,-0.09989 -0.193482,-0.162709 -0.271413,-0.30358 -0.287983,-0.712892 -0.198429,-1.089363 0.224517,-0.785812 1.335823,-0.468296 1.111305,0.317515 z"
       inkscape:connector-curvature="0"
       inkscape:export-xdpi="96"
       inkscape:export-ydpi="96" />
    <path
       style="opacity:1;fill:#ff0000;fill-opacity:1;stroke:none;stroke-width:0.24432747;stroke-linecap:butt;stroke-linejoin:miter;stroke-miterlimit:4;stroke-dasharray:none;stroke-opacity:1;paint-order:normal"
       id="path829"
       d="m 71.0101,88.863153 c -0.07476,0.268609 0.04239,0.139353 -0.09342,-0.06089 -0.06364,-0.06167 -0.025,-0.02513 0.01824,-0.03649 0.0068,-0.0018 -0.01116,-0.01003 -0.01813,-0.0105 -0.09329,-0.0064 -0.09726,0.0094 -0.190708,0.04773 -0.115006,0.07579 -0.07986,0.12734 -0.09591,0.0209 -9.08e-4,-0.0061 -0.0094,0.0096 -0.0098,0.01572 -0.0015,0.02714 0.0029,0.0543 0.0043,0.08145 0.03325,0.15777 0.216026,0.214555 0.06498,0.201438 -0.809901,-0.109394 -0.655195,-1.254769 0.154707,-1.145374 v 0 c 0.377428,0.05696 0.693584,0.188357 0.868806,0.55534 0.02037,0.08021 0.04967,0.158671 0.0611,0.240634 0.04797,0.343895 -0.09554,0.686244 -0.325768,0.932072 -0.07781,0.04826 -0.149281,0.108706 -0.233437,0.144784 -0.337246,0.144575 -0.713802,0.0359 -1.012212,-0.138702 -0.06453,-0.06262 -0.13992,-0.115734 -0.193605,-0.187878 -0.248078,-0.333377 -0.199211,-0.751646 -0.06147,-1.115502 0.321933,-0.751177 1.384258,-0.295894 1.062325,0.455283 z"
       inkscape:connector-curvature="0"
       inkscape:export-xdpi="96"
       inkscape:export-ydpi="96" />
    <path
       style="opacity:1;fill:#000000;fill-opacity:1;stroke:none;stroke-width:0.24432747;stroke-linecap:butt;stroke-linejoin:miter;stroke-miterlimit:4;stroke-dasharray:none;stroke-opacity:1;paint-order:normal"
       id="path831"
       d="m 60.586322,105.14386 c 1.902682,0.69342 3.793654,1.41816 5.69304,2.12051 2.167238,0.75954 4.366488,1.43001 6.605242,1.94345 1.008993,0.22638 2.0358,0.34022 3.067795,0.37356 0.694049,0.024 1.349091,-0.18023 1.988323,-0.42643 0.79416,-0.31393 1.497796,-0.8068 2.183973,-1.30649 0.940443,-0.72625 1.776707,-1.57102 2.631191,-2.39311 0.832111,-0.80317 1.608231,-1.66297 2.308207,-2.58329 1.124486,-1.49491 1.762605,-3.263956 2.38306,-5.008886 0.159701,-0.505572 0.332581,-1.00717 0.479107,-1.516716 0.317156,-1.102921 0.81458,-3.123484 1.073346,-4.199177 0.352488,-1.465296 0.732111,-3.092865 1.026902,-4.572644 0.143346,-0.719563 0.264609,-1.44335 0.396912,-2.165025 0.420436,-2.654432 0.775429,-5.330893 0.841622,-8.021184 0.0086,-0.350743 0.0034,-0.701692 0.005,-1.052538 -0.05207,-0.986486 -0.03979,-2.020047 -0.359223,-2.968679 -0.01574,-0.02579 -0.03147,-0.05158 -0.04721,-0.07737 -0.36968,-0.728867 0.661092,-1.251672 1.030772,-0.522808 v 0 c 0.03876,0.08166 0.07752,0.16332 0.116281,0.24498 0.337135,1.073369 0.382266,2.213341 0.41514,3.329827 -0.002,0.364988 0.0031,0.730084 -0.006,1.094963 -0.06889,2.744012 -0.429319,5.474008 -0.859579,8.181354 -0.134547,0.732952 -0.257965,1.468034 -0.403642,2.198854 -0.296797,1.48896 -0.680071,3.132722 -1.034888,4.607278 -0.270709,1.125019 -0.763795,3.126592 -1.093419,4.27056 -0.150619,0.522727 -0.328195,1.037307 -0.492291,1.55596 -0.661944,1.857141 -1.351346,3.733941 -2.552766,5.321981 -0.737881,0.96574 -1.549958,1.87238 -2.426041,2.71548 -0.892593,0.85867 -1.7673,1.74002 -2.752691,2.4949 -0.769053,0.55863 -1.560041,1.10346 -2.450859,1.45128 -0.784114,0.29814 -1.5902,0.53346 -2.43915,0.50207 -1.106233,-0.0368 -2.207034,-0.1589 -3.288504,-0.40223 -2.286754,-0.52559 -4.533963,-1.20844 -6.74747,-1.98589 -1.871985,-0.69224 -3.736848,-1.40333 -5.609697,-2.09324 -0.785812,-0.22452 -0.468296,-1.33582 0.317516,-1.11131 z"
       inkscape:connector-curvature="0"
       inkscape:export-xdpi="96"
       inkscape:export-ydpi="96" />
    <path
       style="opacity:1;fill:#000000;fill-opacity:1;stroke:none;stroke-width:0.24432747;stroke-linecap:butt;stroke-linejoin:miter;stroke-miterlimit:4;stroke-dasharray:none;stroke-opacity:1;paint-order:normal"
       id="path833"
       d="m 116.75142,125.99083 c -0.005,-0.53052 -0.004,-1.05966 0.0345,-1.5889 0.0907,-0.82647 0.50782,-1.31407 1.05884,-1.89534 0.79843,-0.76279 1.75742,-1.32021 2.72612,-1.83571 0.72733,-0.38392 1.49817,-0.66632 2.30389,-0.82669 0.57725,-0.0939 1.16302,-0.10349 1.74643,-0.10688 0.42364,3.4e-4 0.84729,0.004 1.27093,0.006 0.4175,0.0119 0.77591,0.0894 1.14794,0.27948 0.50977,0.28466 0.89363,0.73367 1.28431,1.15727 0.46116,0.52084 0.77659,1.14052 1.05733,1.771 0.26117,0.59295 0.45044,1.21183 0.56738,1.84835 0.0723,0.43955 0.091,0.88508 0.0975,1.32969 -0.007,0.20783 -0.0463,0.4122 -0.0767,0.61731 -0.12015,0.80837 -1.26337,0.63845 -1.14321,-0.16992 v 0 c 0.0214,-0.14368 0.0458,-0.28691 0.0643,-0.43101 -0.005,-0.38134 -0.0194,-0.7636 -0.0792,-1.14092 -0.0962,-0.54637 -0.26498,-1.07523 -0.48614,-1.58412 -0.22862,-0.51556 -0.47846,-1.02718 -0.85085,-1.4569 -0.30433,-0.33012 -0.59724,-0.69158 -0.98637,-0.92518 -0.17982,-0.11764 -0.39271,-0.11642 -0.6012,-0.13929 -0.41979,-0.002 -0.83957,-0.005 -1.25937,-0.006 -0.51137,0.003 -1.02482,0.009 -1.53156,0.0855 -0.69494,0.13222 -1.35589,0.38633 -1.98302,0.71299 -0.85999,0.45612 -1.71423,0.94556 -2.43141,1.61207 -0.33544,0.35039 -0.68265,0.67836 -0.7432,1.18337 -0.0373,0.50088 -0.0356,1.00171 -0.0314,1.50384 0,0.81726 -1.15578,0.81726 -1.15578,0 z"
       inkscape:connector-curvature="0"
       inkscape:export-xdpi="96"
       inkscape:export-ydpi="96" />
    <path
       style="opacity:1;fill:#000000;fill-opacity:1;stroke:none;stroke-width:0.24432747;stroke-linecap:butt;stroke-linejoin:miter;stroke-miterlimit:4;stroke-dasharray:none;stroke-opacity:1;paint-order:normal"
       id="path835"
       d="m 123.35805,119.94034 c -0.61477,-0.94884 -1.28296,-1.86138 -1.91427,-2.79931 -0.55236,-0.87811 -1.15923,-1.72494 -1.63369,-2.64919 -0.24018,-0.54796 -0.38663,-1.13164 -0.52073,-1.71313 -0.13186,-0.60739 -0.10846,-1.22998 -0.0636,-1.84533 0.0621,-0.65513 0.1955,-1.30003 0.35817,-1.93677 0.10277,-0.46906 0.2793,-0.91904 0.48021,-1.35395 0.19577,-0.48767 0.38322,-0.97484 0.6203,-1.44437 0.43223,-0.7797 0.90582,-1.535 1.34339,-2.31202 0.27486,-0.46823 0.53279,-0.94955 0.83835,-1.39917 0.33815,-0.49757 0.72393,-0.96593 1.09294,-1.44056 0.50025,-0.62963 0.97248,-1.281076 1.52428,-1.867302 0.39816,-0.392173 0.83675,-0.738085 1.29204,-1.060753 0.48592,-0.352039 1.03722,-0.577867 1.60844,-0.748049 0.35377,-0.08344 0.69242,-0.216184 1.04285,-0.310499 0.26879,-0.06773 0.54593,-0.07966 0.82165,-0.0852 0.2613,-0.0026 0.52262,-8.65e-4 0.78392,6.9e-5 0.81726,0.0026 0.81388,1.15816 -0.004,1.155773 v 0 c -0.25271,-8.65e-4 -0.50543,-0.0026 -0.75813,-2.29e-4 -0.18341,0.0035 -0.36836,0.0064 -0.54817,0.0469 -0.34079,0.08802 -0.66791,0.22437 -1.01204,0.301885 -0.45128,0.131111 -0.8861,0.305595 -1.26899,0.583891 -0.394,0.276254 -0.77037,0.575916 -1.1177,0.909611 -0.52815,0.557713 -0.97176,1.185473 -1.45234,1.783373 -0.34484,0.44354 -0.70956,0.88036 -1.02609,1.345 -0.2959,0.43437 -0.54475,0.90011 -0.81068,1.35264 -0.43,0.76289 -0.89288,1.50592 -1.32068,2.26968 -0.23461,0.4546 -0.40292,0.93478 -0.60145,1.40562 -0.17261,0.37053 -0.32428,0.75449 -0.40929,1.15525 -0.14743,0.57038 -0.26626,1.14866 -0.32505,1.73547 -0.0385,0.4995 -0.0639,1.00594 0.0375,1.5003 0.11197,0.48946 0.23473,0.98032 0.42365,1.44633 0.449,0.88502 1.04168,1.6873 1.56321,2.52951 0.63839,0.94883 1.31526,1.8712 1.9355,2.83203 0.43314,0.69304 -0.54695,1.30559 -0.9801,0.61256 z"
       inkscape:connector-curvature="0"
       inkscape:export-xdpi="96"
       inkscape:export-ydpi="96" />
    <path
       style="opacity:1;fill:#000000;fill-opacity:1;stroke:none;stroke-width:0.24432747;stroke-linecap:butt;stroke-linejoin:miter;stroke-miterlimit:4;stroke-dasharray:none;stroke-opacity:1;paint-order:normal"
       id="path837"
       d="m 132.0873,92.018039 c -0.19517,0.404093 -0.38691,0.809234 -0.53557,1.232976 -0.16944,0.554369 -0.18618,1.14205 -0.20138,1.717583 0.001,0.55652 -0.0332,1.113404 -0.0148,1.669792 0.0112,0.27912 0.0562,0.554793 0.1094,0.828459 0.0448,0.135442 0.0423,0.410462 0.15691,0.509098 0.28896,0.216118 0.60679,0.382325 0.93727,0.52688 0.69706,0.273709 1.43732,0.404275 2.17488,0.512982 0.56959,0.04619 1.13533,0.167641 1.70757,0.176241 0.40447,-0.02115 0.80265,-0.104252 1.1986,-0.184936 0.29269,-0.09017 0.62899,-0.08013 0.90171,-0.228522 0.20506,-0.124466 0.32873,-0.332207 0.45529,-0.529125 0.21552,-0.364114 0.43168,-0.738141 0.57907,-1.136012 0.13264,-0.31066 0.19136,-0.631133 0.18857,-0.966686 -0.0296,-0.389808 -0.11433,-0.77272 -0.19401,-1.154631 -0.0596,-0.386129 -0.16535,-0.745846 -0.37268,-1.077237 -0.22429,-0.332848 -0.45736,-0.658877 -0.71495,-0.966889 -0.21279,-0.235865 -0.45539,-0.446096 -0.70881,-0.637232 -0.221,-0.158915 -0.43968,-0.325552 -0.68972,-0.436625 -0.28889,-0.08818 -0.559,-0.218753 -0.85512,-0.28089 -0.38832,-0.07807 -0.7797,-0.152313 -1.17402,-0.193485 -0.35589,-0.01261 -0.7118,8.29e-4 -1.06611,0.03558 -0.30479,0.03263 -0.60645,0.0875 -0.90684,0.147513 -0.24062,0.0301 -0.45577,0.102221 -0.66981,0.210707 -0.0568,0.04686 -0.12336,0.07894 -0.17098,0.135813 -0.59977,0.555143 -1.38487,-0.293064 -0.78509,-0.848197 v 0 c 0.13735,-0.120673 0.27596,-0.233342 0.43805,-0.320808 0.30645,-0.152612 0.62159,-0.26176 0.96154,-0.31089 0.33846,-0.06803 0.67867,-0.128651 1.02227,-0.164543 0.43209,-0.04104 0.86678,-0.05854 1.30049,-0.03429 0.43679,0.04799 0.87091,0.126143 1.30112,0.214368 0.37981,0.08728 0.73657,0.234167 1.10254,0.366202 0.31767,0.157039 0.61379,0.347604 0.89538,0.562727 0.31845,0.247113 0.62894,0.508805 0.89329,0.814521 0.29336,0.353549 0.56244,0.725021 0.81571,1.108285 0.26528,0.447729 0.43789,0.922993 0.51519,1.439484 0.0959,0.459658 0.19667,0.921393 0.21834,1.391886 -0.003,0.476635 -0.0805,0.939277 -0.26606,1.381474 -0.18548,0.468854 -0.42225,0.919253 -0.68714,1.348005 -0.24926,0.382901 -0.52388,0.743299 -0.94372,0.951592 -0.3691,0.159314 -0.75977,0.231404 -1.1527,0.310524 -0.47998,0.0972 -0.96331,0.19605 -1.45446,0.20796 -0.62085,-0.0164 -1.23462,-0.12862 -1.85207,-0.18847 -0.84028,-0.12539 -1.68268,-0.278752 -2.47376,-0.599685 -0.53591,-0.240124 -1.07838,-0.511211 -1.4534,-0.978182 -0.15741,-0.281612 -0.26181,-0.573524 -0.30695,-0.894411 -0.0646,-0.334409 -0.11737,-0.671506 -0.12997,-1.012475 -0.0171,-0.579187 0.0133,-1.158556 0.0147,-1.737823 0.0202,-0.69625 0.0491,-1.404161 0.26729,-2.071487 0.1697,-0.475207 0.3796,-0.933028 0.6024,-1.385624 0.38088,-0.723075 1.40346,-0.184435 1.02259,0.538639 z"
       inkscape:connector-curvature="0"
       inkscape:export-xdpi="96"
       inkscape:export-ydpi="96" />
    <path
       style="opacity:1;fill:#000000;fill-opacity:1;stroke:none;stroke-width:0.24432747;stroke-linecap:butt;stroke-linejoin:miter;stroke-miterlimit:4;stroke-dasharray:none;stroke-opacity:1;paint-order:normal"
       id="path839"
       d="m 134.57581,96.807029 c 0.17434,0.173753 0.35043,0.37603 0.60207,0.426847 0.15302,0.01382 0.30538,-0.01824 0.45491,-0.04693 0.14135,-0.04515 0.37153,-0.04634 0.47045,-0.121912 0.1353,-0.125245 -0.0189,0.02305 -0.0234,0.02002 -0.006,-0.0038 -0.003,-0.01457 -0.005,-0.0218 -0.0184,-0.176211 -0.0574,-0.349436 -0.0944,-0.522441 -0.008,-0.03702 -0.0162,-0.07416 -0.0243,-0.111155 -0.17402,-0.798526 0.95531,-1.044568 1.12935,-0.245738 v 0 c 0.008,0.03849 0.0168,0.077 0.0251,0.115593 0.0563,0.263462 0.1157,0.528644 0.11939,0.799268 -0.0257,0.424712 -0.1637,0.738935 -0.54228,0.963476 -0.26623,0.139135 -0.54494,0.210891 -0.84056,0.260687 -0.32915,0.06195 -0.66292,0.104334 -0.99345,0.02075 -0.41358,-0.131646 -0.76754,-0.357156 -1.05812,-0.683321 -0.60318,-0.551431 0.17668,-1.404451 0.77985,-0.853011 z"
       inkscape:connector-curvature="0"
       inkscape:export-xdpi="96"
       inkscape:export-ydpi="96" />
    <path
       style="opacity:1;fill:#ff0000;fill-opacity:1;stroke:none;stroke-width:0.24432747;stroke-linecap:butt;stroke-linejoin:miter;stroke-miterlimit:4;stroke-dasharray:none;stroke-opacity:1;paint-order:normal"
       id="path841"
       d="m 133.18933,94.022484 c 0.12652,0.112005 0.21787,0.353642 0.40679,0.375688 0.18015,0.0043 0.2398,-0.08719 0.0382,0.01976 -0.13265,0.135692 -0.0828,0.162051 -0.12686,0.0022 -0.0423,0.02056 0.0807,0.114795 0.0503,0.114206 -0.0343,-8.62e-4 -0.10873,-0.06926 -0.0959,-0.03745 -0.0956,7.35e-4 -0.19026,0.01201 -0.28489,0.0243 -0.81113,0.09982 -0.9523,-1.047303 -0.14116,-1.147116 v 0 c 0.22333,-0.02652 0.44807,-0.04701 0.67161,-0.0066 0.39784,0.108488 0.74265,0.303064 0.90334,0.708653 0.10691,0.404962 0.11857,0.802294 -0.15222,1.151827 -0.0707,0.05769 -0.13407,0.125598 -0.21192,0.173134 -0.32205,0.1967 -0.73204,0.156208 -1.07865,0.0706 -0.41095,-0.181282 -0.65791,-0.426798 -0.92293,-0.782643 -0.47141,-0.667601 0.47272,-1.334263 0.94412,-0.666661 z"
       inkscape:connector-curvature="0"
       inkscape:export-xdpi="96"
       inkscape:export-ydpi="96" />
    <path
       style="opacity:1;fill:#ff0000;fill-opacity:1;stroke:none;stroke-width:0.24432747;stroke-linecap:butt;stroke-linejoin:miter;stroke-miterlimit:4;stroke-dasharray:none;stroke-opacity:1;paint-order:normal"
       id="path843"
       d="m 136.8999,93.197542 c 0.005,0.0536 0.01,0.107321 0.0155,0.160934 0.005,0.05112 0.0334,0.314386 0.0416,0.364642 0.009,0.05404 0.003,0.129193 0.0505,0.156249 0.008,0.0045 7.3e-4,-0.01815 0.001,-0.02731 -0.0566,-0.111005 -0.14545,-0.160136 -0.26176,-0.130273 -0.0485,0.02158 -0.16066,0.118788 -0.1713,0.149386 -0.005,0.01491 -4.1e-4,0.0326 -0.007,0.04701 -0.002,0.0045 -0.006,-0.0079 -0.009,-0.01221 0.0272,0.106492 0.0166,0.03655 -0.0132,0.01784 -0.008,-0.0054 0.0207,0.03177 0.0125,0.02648 -0.0535,-0.03431 -0.0988,-0.07986 -0.14906,-0.118773 -0.024,-0.01011 -0.0235,-0.01401 -0.011,0.0044 -0.7563,-0.309704 -0.31833,-1.379275 0.43798,-1.069581 v 0 c 0.20776,0.09618 0.1136,0.04297 0.28504,0.155114 0.22314,0.17765 0.4344,0.354714 0.53842,0.632159 0.1275,0.442342 0.0616,0.864604 -0.32055,1.160814 -0.069,0.03382 -0.13499,0.07447 -0.20691,0.101444 -0.39564,0.148611 -0.80116,-0.0046 -1.07329,-0.304022 -0.0433,-0.07195 -0.0939,-0.139969 -0.12997,-0.215824 -0.14732,-0.310099 -0.13744,-0.666645 -0.18092,-0.999286 -0.0698,-0.814271 1.08169,-0.913049 1.15154,-0.09878 z"
       inkscape:connector-curvature="0"
       inkscape:export-xdpi="96"
       inkscape:export-ydpi="96" />
    <path
       style="opacity:1;fill:#000000;fill-opacity:1;stroke:none;stroke-width:0.24432747;stroke-linecap:butt;stroke-linejoin:miter;stroke-miterlimit:4;stroke-dasharray:none;stroke-opacity:1;paint-order:normal"
       id="path845"
       d="m 137.14336,111.64171 c -0.48106,-0.28419 -1.03016,-0.41395 -1.56443,-0.55799 -0.66881,-0.1762 -1.34506,-0.30808 -2.02737,-0.41728 -0.58172,-0.0574 -1.16361,-0.11443 -1.74661,-0.15741 -0.73783,-0.0428 -1.47543,-0.0793 -2.21089,-0.15401 -0.71234,-0.0768 -1.42746,-0.10092 -2.14313,-0.1182 -0.99475,-0.0163 -1.98015,-0.13693 -2.96702,-0.24857 -0.80387,-0.0684 -1.59889,-0.21059 -2.40242,-0.28072 -0.31714,-0.0498 -0.63831,-0.0268 -0.95644,-0.0548 -0.37737,-0.0516 -0.65496,-0.25569 -0.87518,-0.55493 -0.23646,-0.45709 -0.17211,-0.9372 -0.0459,-1.41515 0.20023,-0.58113 0.56871,-1.07893 0.92986,-1.56858 0.69339,-0.88423 1.74532,-1.35979 2.74933,-1.79882 1.9505,-0.74658 4.28521,0.84963 6.27303,0.21121 2.37644,-0.80254 5.36648,-1.16568 7.78046,-1.84738 1.961,-0.55711 3.00884,-3.63209 4.99596,-4.08437 0.66185,-0.16506 1.3288,-0.30804 1.99364,-0.45991 0.79681,-0.18168 1.05375,0.94516 0.25695,1.12685 v 0 c -0.66511,0.15141 -1.33199,0.29536 -1.99409,0.46001 -1.96784,0.44788 -2.99649,3.51798 -4.93845,4.06973 -2.4009,0.67755 -5.37749,1.03771 -7.74105,1.83548 -1.95141,0.62673 -4.24899,-0.97977 -6.16552,-0.25173 -0.53915,0.23302 -1.05704,0.46566 -1.5497,0.7878 -0.1171,0.0765 -0.42274,0.29128 -0.53733,0.40565 -0.0712,0.0711 -0.12917,0.15442 -0.19297,0.23224 -0.27777,0.37588 -0.56612,0.75438 -0.74553,1.18944 -0.0345,0.11616 -0.072,0.23752 -0.0817,0.35926 -0.002,0.0275 -2.8e-4,0.055 0.001,0.0824 0.001,0.0193 0.0202,0.0439 0.007,0.0577 -0.0109,0.0106 -0.021,-0.0216 -0.0321,-0.0316 -0.0549,-0.0123 0.0365,0.005 -0.002,0.0142 -0.0438,0.0106 -0.0511,-0.0275 0.0362,0.0311 0.29311,0.0482 0.64054,-0.0182 0.93672,0.0529 0.81304,0.0721 1.61785,0.21223 2.43107,0.2836 0.95295,0.10799 1.90426,0.22608 2.86491,0.24157 0.74548,0.018 1.49041,0.0441 2.23244,0.12382 0.72483,0.0742 1.45198,0.10789 2.17912,0.15122 0.61546,0.0459 1.23006,0.10419 1.84381,0.16877 0.72216,0.11558 1.43786,0.25629 2.14567,0.44262 0.64347,0.17361 1.29882,0.34192 1.87363,0.6923 0.69405,0.43147 0.0839,1.41304 -0.61016,0.9816 z"
       inkscape:connector-curvature="0"
       inkscape:export-xdpi="96"
       inkscape:export-ydpi="96"
       sodipodi:nodetypes="ccccccccccccccccccccccccccccccccccccccccccc" />
    <path
       style="opacity:1;fill:#000000;fill-opacity:1;stroke:#000000;stroke-width:0.06004715;stroke-linecap:butt;stroke-linejoin:miter;stroke-miterlimit:4;stroke-dasharray:none;stroke-opacity:1;paint-order:normal"
       id="path865-1"
       d="m 58.778741,100.37377 c 0.114534,0.16405 0.242745,0.31818 0.369106,0.47317 0.142254,0.17977 0.296529,0.34931 0.446402,0.52261 0.130455,0.15183 0.264637,0.29989 0.413717,0.43364 0.05619,0.0565 0.128124,0.0948 0.182243,0.15313 0.0174,0.0228 0.02529,0.0299 0.03545,0.0594 0.01178,0.0343 0.01785,0.0853 0.02098,0.1195 0.0084,0.0922 0.0079,0.14763 0.01043,0.24478 0.0072,0.41266 0.01799,0.82522 0.02302,1.23791 -0.0033,0.33372 5.63e-4,0.66707 0.01754,1.00038 0.01737,0.27677 0.01699,0.55404 0.0088,0.8311 -0.02453,0.31924 -0.01669,0.63919 -0.0076,0.95884 0.0064,0.30561 0.02329,0.61097 0.05041,0.91542 0.02168,0.22889 0.05781,0.45591 0.09981,0.68184 0.0193,0.12184 0.05153,0.24093 0.08004,0.36081 0.04658,0.20631 0.08542,0.4145 0.119495,0.62324 0.03227,0.1926 0.06205,0.38561 0.09362,0.57833 0.02299,0.12293 0.0357,0.24734 0.04902,0.37157 0.0044,0.0558 0.02064,0.11048 0.02012,0.16658 -0.04548,0.18358 -0.132288,0.23781 -0.272192,0.28505 -0.08919,0.0323 -0.179596,0.0608 -0.270066,0.0892 -0.08905,0.0293 -0.175314,0.0662 -0.262693,0.1 -0.09135,0.0321 -0.186057,0.0543 -0.280862,0.0736 -0.09216,0.0191 -0.185986,0.0266 -0.279471,0.0358 -0.106814,0.01 -0.213581,0.0193 -0.319989,0.0328 -0.116838,0.0144 -0.233628,0.0304 -0.350871,0.0413 -0.104789,0.008 -0.207916,0.0279 -0.312703,0.0359 -0.178455,0.0153 -0.354599,0.0499 -0.530104,0.0846 -0.23057,0.0431 -0.458433,0.0986 -0.686494,0.15302 -0.162398,0.0395 -0.321884,0.0884 -0.480068,0.14197 -0.151583,0.0534 -0.306737,0.0937 -0.463991,0.12609 -0.194231,0.039 -0.389528,0.0721 -0.584125,0.10936 -0.131799,0.026 -0.264311,0.048 -0.395822,0.0754 -0.100838,0.022 -0.202845,0.038 -0.305456,0.0489 -0.09886,0.0109 -0.19801,0.0188 -0.296696,0.0311 -0.102551,0.0132 -0.204583,0.0299 -0.305746,0.0512 -0.06614,0.0147 -0.129835,0.0379 -0.191763,0.065 -0.03493,0.016 -0.06918,0.0333 -0.103801,0.05 -0.05224,0.0251 -0.104453,0.0504 -0.15672,0.0754 -0.05826,0.0325 -0.122195,0.0477 -0.186812,0.0609 -0.05009,0.0137 -0.100722,0.0183 -0.15232,0.0183 -0.04834,8.6e-4 -0.08772,-0.0168 -0.126534,-0.0438 -0.03622,-0.0204 -0.06455,-0.048 -0.08824,-0.0818 -0.02036,-0.0311 -0.0367,-0.0645 -0.05297,-0.0979 -0.02411,-0.0478 -0.04474,-0.0971 -0.06413,-0.14699 -0.02324,-0.06 -0.03328,-0.12369 -0.05073,-0.18535 -0.01094,-0.0406 -0.01481,-0.0827 -0.02108,-0.12416 -0.0064,-0.0322 -0.0032,-0.0648 -0.0033,-0.0972 -0.0049,-0.0449 -0.01604,-0.0888 -0.02278,-0.13341 -0.0032,-0.039 -0.0136,-0.0768 -0.02116,-0.11502 -0.0073,-0.0322 -0.0045,-0.0651 -0.0069,-0.0977 -0.0038,-0.0303 6.91e-4,-0.0604 0.0099,-0.0893 0.013,-0.0245 0.0151,-0.0515 0.01786,-0.0785 0.006,-0.0244 0.0028,-0.0494 0.0029,-0.0742 4e-4,-0.004 8.64e-4,-0.008 0.0013,-0.0119 0,0 0.160111,-0.18869 0.160111,-0.18869 v 0 c -3.61e-4,0.004 -6.92e-4,0.008 -9.95e-4,0.0121 -0.0063,0.0252 0.0019,0.05 -0.0016,0.0755 -0.0079,0.0271 -0.0022,0.0563 -0.01405,0.0825 -0.01423,0.025 -0.01904,0.0522 -0.01973,0.0807 0.0054,0.0324 7.35e-4,0.0644 0.0052,0.097 0.0075,0.0389 0.01808,0.0772 0.0218,0.11678 0.0048,0.0452 0.01539,0.0893 0.02516,0.13366 0.0028,0.0322 -0.0034,0.0643 0.0016,0.0963 0.0041,0.041 0.01113,0.0821 0.01737,0.12276 0.01786,0.0614 0.02641,0.12506 0.0475,0.18554 0.01978,0.0486 0.04078,0.0965 0.06489,0.14311 0.01558,0.0325 0.03097,0.0652 0.04984,0.0959 0.02118,0.032 0.0469,0.0579 0.08054,0.0772 0.03504,0.0244 0.07084,0.0371 0.114173,0.0354 0.04985,4e-5 0.09859,-0.008 0.147101,-0.0194 0.06312,-0.0134 0.124268,-0.0322 0.181267,-0.0633 0.05263,-0.0258 0.105289,-0.0514 0.157648,-0.0777 0.03449,-0.0172 0.06921,-0.034 0.104787,-0.0488 0.06297,-0.0251 0.127592,-0.0461 0.194148,-0.0595 0.101776,-0.0197 0.204135,-0.0362 0.306935,-0.0496 0.09899,-0.0121 0.198399,-0.0204 0.297489,-0.0316 0.101629,-0.0108 0.202579,-0.0271 0.302535,-0.0485 0.130785,-0.0264 0.26276,-0.0463 0.39387,-0.071 0.194627,-0.0346 0.389817,-0.0668 0.583037,-0.10867 0.157393,-0.0342 0.312218,-0.0774 0.463971,-0.13166 0.15712,-0.0523 0.317087,-0.0941 0.477887,-0.13361 0.228737,-0.0533 0.456974,-0.10897 0.687654,-0.15352 0.177519,-0.0364 0.355731,-0.0719 0.536204,-0.09 0.104641,-0.0108 0.208192,-0.0306 0.313307,-0.037 0.116833,-0.0104 0.233277,-0.0262 0.349614,-0.0409 0.106979,-0.0136 0.214271,-0.0244 0.321646,-0.0343 0.09276,-0.009 0.185928,-0.0171 0.277227,-0.037 0.09366,-0.0198 0.187368,-0.0417 0.277209,-0.0753 0.08765,-0.0343 0.174251,-0.0716 0.264255,-0.0994 0.0907,-0.028 0.180871,-0.0577 0.269785,-0.091 0.03103,-0.0122 0.064,-0.0234 0.09105,-0.0436 0.0062,-0.004 0.02081,-0.022 0.01677,-0.0155 -0.107452,0.17109 -0.178441,0.24278 -0.112471,0.17475 0.01288,-0.0549 -0.01237,-0.11203 -0.01277,-0.16729 -0.01138,-0.12523 -0.02243,-0.25063 -0.04488,-0.3745 -0.02945,-0.19439 -0.05661,-0.38914 -0.08974,-0.58296 -0.03355,-0.20708 -0.07301,-0.41341 -0.121612,-0.6175 -0.03117,-0.11981 -0.06801,-0.23844 -0.08126,-0.36203 -0.03671,-0.22941 -0.07209,-0.4591 -0.09536,-0.69035 -0.02744,-0.3067 -0.04127,-0.61434 -0.04655,-0.92222 -0.0094,-0.31712 -0.02374,-0.63498 -4.9e-5,-0.95182 0.0096,-0.27846 0.01377,-0.55722 -0.0026,-0.83554 -0.01718,-0.33452 -0.02423,-0.66905 -0.01579,-1.00401 -9.52e-4,-0.41057 -0.0082,-0.82107 -0.02761,-1.23123 -0.0055,-0.0995 -0.006,-0.14147 -0.01642,-0.234 -0.0018,-0.0164 -0.01163,-0.0889 -0.01833,-0.11094 -0.008,-0.0262 -0.01549,-0.0333 -0.03052,-0.0538 -0.05249,-0.0589 -0.12202,-0.1004 -0.176362,-0.1578 -0.146219,-0.13864 -0.278612,-0.29015 -0.411261,-0.44156 -0.152015,-0.17204 -0.306035,-0.34239 -0.445889,-0.52471 -0.125051,-0.1539 -0.25177,-0.30634 -0.379957,-0.45762 0,0 0.144234,-0.2002 0.144234,-0.2002 z"
       inkscape:connector-curvature="0"
       inkscape:transform-center-x="-0.88677139"
       inkscape:transform-center-y="0.369107"
       inkscape:export-xdpi="96"
       inkscape:export-ydpi="96" />
    <path
       style="opacity:1;fill:#000000;fill-opacity:1;stroke:#000000;stroke-width:0.06004715;stroke-linecap:butt;stroke-linejoin:miter;stroke-miterlimit:4;stroke-dasharray:none;stroke-opacity:1;paint-order:normal"
       id="path871-7"
       d="m 53.785587,104.30103 c 0.04762,-0.15027 0.09085,-0.30238 0.165252,-0.44174 0.03499,-0.0632 0.0858,-0.11384 0.137977,-0.16276 0.06033,-0.0591 0.126218,-0.10981 0.198666,-0.15297 0.07718,-0.0477 0.163964,-0.071 0.249456,-0.098 0.08075,-0.0279 0.164698,-0.0397 0.249321,-0.0476 0.100488,-0.001 0.197976,0.0188 0.295599,0.0395 0.08333,0.0174 0.164035,0.0479 0.23683,0.0919 0.06423,0.0441 0.118435,0.10058 0.171725,0.15695 0,0 -0.09029,0.22698 -0.09029,0.22698 v 0 c -0.05055,-0.0563 -0.102596,-0.1122 -0.164933,-0.15579 -0.07008,-0.0433 -0.148041,-0.0734 -0.228633,-0.0907 -0.0951,-0.0208 -0.190594,-0.0403 -0.288659,-0.0364 -0.08307,0.009 -0.165572,0.0211 -0.244725,0.0492 -0.08421,0.0255 -0.16832,0.0512 -0.243397,0.0988 -0.0705,0.0446 -0.134675,0.0969 -0.194017,0.15566 -0.05026,0.049 -0.09777,0.10078 -0.130031,0.16383 -0.0059,0.0118 -0.01217,0.0234 -0.01783,0.0353 -0.006,0.0127 -0.01182,0.0256 -0.01727,0.0385 -0.0052,0.0125 -0.01892,0.0506 -0.01472,0.0377 0.02075,-0.0633 0.04284,-0.12616 0.06437,-0.1892 0.0039,-0.0115 -0.0078,0.023 -0.01153,0.0345 -0.003,0.009 -0.0059,0.0187 -0.0089,0.028 0,0 -0.114289,0.21825 -0.114289,0.21825 z"
       inkscape:connector-curvature="0"
       inkscape:transform-center-x="1.4626341"
       inkscape:transform-center-y="-1.9136421"
       inkscape:export-xdpi="96"
       inkscape:export-ydpi="96" />
    <path
       style="opacity:1;fill:#000000;fill-opacity:1;stroke:#000000;stroke-width:0.06004715;stroke-linecap:butt;stroke-linejoin:miter;stroke-miterlimit:4;stroke-dasharray:none;stroke-opacity:1;paint-order:normal"
       id="path873-9"
       d="m 56.432433,103.11339 c 0.103105,-0.0766 0.216273,-0.13652 0.33082,-0.19384 0.241976,-0.11519 0.504251,-0.17894 0.768589,-0.21826 0.135901,-0.0186 0.272051,-0.005 0.403751,0.031 0.103313,0.0349 0.187959,0.10178 0.262559,0.17926 0.03294,0.043 0.07161,0.082 0.100917,0.12776 0,0 -0.238731,0.0622 -0.238731,0.0622 v 0 c -0.02864,-0.0437 -0.06272,-0.0836 -0.0952,-0.12438 -0.07243,-0.0744 -0.154987,-0.1374 -0.256082,-0.16739 -0.130377,-0.0316 -0.263919,-0.0439 -0.397358,-0.023 -0.02633,0.004 -0.104414,0.0209 -0.079,0.0128 0.04594,-0.0147 0.0935,-0.0242 0.14097,-0.0327 0.03122,-0.006 -0.06167,0.015 -0.09211,0.0239 -0.0583,0.017 -0.136433,0.0444 -0.192474,0.0673 -0.03148,0.0128 -0.06211,0.0277 -0.09326,0.0413 -0.110594,0.055 -0.222276,0.11142 -0.318114,0.19037 0,0 -0.245291,0.0237 -0.245291,0.0237 z"
       inkscape:connector-curvature="0"
       inkscape:transform-center-x="-1.2651199"
       inkscape:transform-center-y="-2.8598556"
       inkscape:export-xdpi="96"
       inkscape:export-ydpi="96" />
    <path
       style="opacity:1;fill:#ff0000;fill-opacity:1;stroke:#000000;stroke-width:0.06004715;stroke-linecap:butt;stroke-linejoin:miter;stroke-miterlimit:4;stroke-dasharray:none;stroke-opacity:1;paint-order:normal"
       id="path895-1"
       d="m 54.971075,104.13245 c -0.02616,0.1553 -0.03518,0.313 -0.05044,0.46966 -0.01584,0.15053 -0.02575,0.30196 -0.05297,0.45099 -0.01098,0.0657 -0.02951,0.12972 -0.04399,0.19463 -0.0065,0.0227 -0.0036,0.0111 -0.0085,0.0348 0,0 -0.76563,0.29997 -0.76563,0.29997 v 0 c 0.01009,-0.0201 0.0057,-0.009 0.0121,-0.0344 0.01721,-0.0419 -3.87e-4,0.003 0.01573,-0.0478 0.01553,-0.0493 0.03681,-0.097 0.04546,-0.14841 0.01202,-0.0384 0.02297,-0.0705 0.0313,-0.11035 0.02347,-0.11218 0.0366,-0.22684 0.05154,-0.34032 0.01378,-0.14933 0.02567,-0.29975 0.0073,-0.44927 0,0 0.758124,-0.31951 0.758124,-0.31951 z"
       inkscape:connector-curvature="0"
       inkscape:transform-center-x="1.5903246"
       inkscape:transform-center-y="-0.90561672"
       inkscape:export-xdpi="96"
       inkscape:export-ydpi="96" />
    <path
       style="opacity:1;fill:#ff0000;fill-opacity:1;stroke:#000000;stroke-width:0.06004715;stroke-linecap:butt;stroke-linejoin:miter;stroke-miterlimit:4;stroke-dasharray:none;stroke-opacity:1;paint-order:normal"
       id="path897-3"
       d="m 57.635213,103.37911 c -0.01785,0.19705 0.01478,0.39389 0.04875,0.58738 0.016,0.0889 0.03307,0.17764 0.05033,0.26633 0,0 -0.735447,0.32673 -0.735447,0.32673 v 0 c -0.0054,-0.0927 -0.0121,-0.18526 -0.02077,-0.27773 -0.0223,-0.19272 -0.04928,-0.38488 -0.09377,-0.57392 0,0 0.750905,-0.32878 0.750905,-0.32878 z"
       inkscape:connector-curvature="0"
       inkscape:transform-center-x="-1.2086797"
       inkscape:transform-center-y="-1.7937487"
       inkscape:export-xdpi="96"
       inkscape:export-ydpi="96" />
    <path
       style="opacity:1;fill:#000000;fill-opacity:1;stroke:#000000;stroke-width:0.06004715;stroke-linecap:butt;stroke-linejoin:miter;stroke-miterlimit:4;stroke-dasharray:none;stroke-opacity:1;paint-order:normal"
       id="path905-9"
       d="m 54.232396,107.22386 c 0.169007,0.0802 0.355378,0.11722 0.54057,0.13574 0.09607,0.01 0.192617,0.017 0.289166,0.0167 0.112276,-3e-4 0.224218,-0.0123 0.336325,-0.0184 0.123412,-0.02 0.248341,-0.0322 0.370224,-0.06 0.07198,-0.0164 -0.281589,0.0664 -0.220002,0.0257 0.100427,-0.0664 0.230662,-0.0694 0.344651,-0.10814 0.161154,-0.0548 0.392883,-0.14517 0.55196,-0.21591 0.06913,-0.0306 0.136264,-0.0655 0.204489,-0.098 0.207679,-0.10483 0.408561,-0.2244 0.586805,-0.37451 0.05551,-0.0485 0.101825,-0.10564 0.1464,-0.16392 0.0037,-0.006 0.0074,-0.0114 0.01111,-0.017 0,0 0.815225,-0.091 0.815225,-0.091 v 0 c -0.0045,0.005 -0.009,0.0103 -0.01354,0.0155 -0.04773,0.0692 -0.109288,0.12831 -0.16869,0.18732 -0.206873,0.16394 -0.440075,0.2893 -0.679043,0.40011 -0.07666,0.0342 -0.152261,0.0708 -0.229721,0.10315 -0.166354,0.0696 -0.430309,0.16753 -0.596875,0.22347 -0.118253,0.0397 -0.235665,0.0831 -0.356852,0.11264 -0.324044,0.0789 -0.650672,0.14717 -0.977748,0.2124 -0.129206,0.0258 -0.260401,0.0404 -0.390603,0.0605 -0.120903,0.007 -0.241627,0.0191 -0.362714,0.0203 -0.192573,0.002 -0.393415,-0.0169 -0.584179,-0.0445 -0.112883,-0.0164 -0.231701,-0.0389 -0.342317,-0.0707 -0.02167,-0.006 -0.0424,-0.0153 -0.06361,-0.023 0,0 0.789048,-0.22837 0.789048,-0.22837 z"
       inkscape:connector-curvature="0"
       inkscape:transform-center-x="0.27424277"
       inkscape:transform-center-y="1.159853"
       inkscape:export-xdpi="96"
       inkscape:export-ydpi="96" />
    <path
       style="opacity:1;fill:#000000;fill-opacity:1;stroke:#000000;stroke-width:0.06004715;stroke-linecap:butt;stroke-linejoin:miter;stroke-miterlimit:4;stroke-dasharray:none;stroke-opacity:1;paint-order:normal"
       id="path907-5"
       d="m 56.016361,104.8538 c -0.0034,0.0117 -0.0073,0.0233 -0.01018,0.0352 -0.01241,0.0504 -0.0065,0.0396 -0.01858,0.094 -0.01508,0.0679 -0.03503,0.13488 -0.0536,0.20183 -0.03703,0.11528 -0.06727,0.23255 -0.103348,0.3481 -0.01184,0.0425 -0.02344,0.0845 -0.0423,0.12439 -0.0089,0.0378 0.03153,0.10811 0.04831,0.14245 0.01794,0.035 0.0091,0.0179 0.02653,0.051 0,0 -0.734739,0.35588 -0.734739,0.35588 v 0 c -0.01563,-0.0345 -0.0076,-0.0168 -0.0241,-0.0533 -0.02746,-0.0597 -0.05984,-0.11838 -0.07695,-0.18203 1.58e-4,-0.0182 -0.0012,-0.0241 0.0045,-0.0416 0.01149,-0.0352 0.04203,-0.0656 0.04652,-0.10423 0.0466,-0.11391 0.08399,-0.23053 0.119677,-0.34829 0.02918,-0.1026 0.05503,-0.20712 0.05817,-0.31424 0,0 0.760076,-0.30923 0.760076,-0.30923 z"
       inkscape:connector-curvature="0"
       inkscape:transform-center-x="0.57875203"
       inkscape:transform-center-y="-0.23286222"
       inkscape:export-xdpi="96"
       inkscape:export-ydpi="96" />
    <path
       style="opacity:1;fill:#000000;fill-opacity:1;stroke:#000000;stroke-width:0.06004715;stroke-linecap:butt;stroke-linejoin:miter;stroke-miterlimit:4;stroke-dasharray:none;stroke-opacity:1;paint-order:normal"
       id="path921-4"
       d="m 54.458984,110.6751 c 0.05659,0.0319 0.217832,-0.15463 0.314318,-0.10158 0.01859,0.0102 0.0094,0.0472 -0.0042,0.0635 -0.01845,0.0221 -0.04998,0.0331 -0.07862,0.0356 -0.01377,0.001 0.01445,-0.0262 0.02739,-0.0312 0.04338,-0.0167 0.09066,-0.0206 0.13599,-0.0309 0.873688,-0.35903 -0.466732,0.17688 0.435062,-0.13331 0.03616,-0.0125 0.06391,-0.042 0.09569,-0.0633 0.0049,-0.003 0.0089,-0.009 0.01456,-0.0104 0.05758,-0.0185 0.07355,-0.0143 0.135792,-0.0164 0.450589,-0.22456 -0.117427,0.0272 0.323221,-0.0761 0.04928,-0.0115 0.08547,-0.0559 0.132992,-0.0733 0.110875,-0.0406 0.157672,-0.0241 0.268249,-0.0294 0.02746,-0.001 0.05471,-0.006 0.08206,-0.009 0.04008,-0.0135 0.08014,-0.027 0.120215,-0.0405 0.06074,-0.0171 0.122325,-0.0314 0.182185,-0.0513 0.06676,-0.0223 0.128912,-0.0585 0.197285,-0.0752 0.17969,-0.0437 0.121682,0.0125 0.297882,0.0167 0.06266,0.001 0.12478,-0.0122 0.187171,-0.0182 0.700349,-0.20216 -0.156189,0.0601 0.654284,-0.24673 0.08667,-0.0328 0.177434,-0.054 0.267527,-0.0757 0.02598,-0.006 0.0574,-0.0228 0.07973,-0.008 0.01252,0.0775 -0.01042,0.0595 0.03909,0.0783 0.0662,-0.0148 0.13209,-0.0311 0.198627,-0.0443 0.08485,-0.0168 0.171829,-0.0235 0.255435,-0.0457 0.06624,-0.0176 0.129859,-0.0445 0.192164,-0.073 0.0053,-0.003 0.01004,-0.0175 0.0043,-0.0168 -0.0168,0.002 -0.04403,0.0384 -0.04583,0.0217 -0.0023,-0.0213 0.02867,-0.0318 0.043,-0.0478 0.41117,0.031 -0.214136,-0.002 0.326625,-0.036 0.04296,-0.003 0.08337,0.0264 0.126409,0.0264 0.01043,-1e-5 -0.0065,-0.0253 -0.01689,-0.0264 -0.315073,-0.0307 0.119507,0.0673 -0.153357,-8.7e-4 0.01133,0.002 0.02267,0.004 0.034,0.005 0.04333,-0.008 0.08595,-0.0272 0.129989,-0.0247 0.03321,0.002 0.06102,0.0268 0.09261,0.0372 0.0061,0.002 -0.0092,-0.0135 -0.01542,-0.0117 -0.02226,0.006 -0.04054,0.0225 -0.06081,0.0338 -0.0053,-0.004 0.052,-0.0786 0.05728,-0.0745 v 0 c 0.01094,0.021 0.08312,0.1072 -0.0028,0.12389 -0.03329,0.006 -0.06571,-0.0168 -0.09837,-0.0259 -0.04205,-0.0118 -0.09257,-0.008 -0.125768,-0.0367 -0.0183,-0.0157 -0.0011,-0.0481 -0.0016,-0.0722 0.03121,-0.006 0.06288,-0.0276 0.09362,-0.0193 0.03874,0.0105 0.152893,0.0723 0.06653,0.12309 -0.14802,0.087 -0.301227,0.0285 -0.460272,0.0339 -0.0065,-0.0184 -0.03894,-0.054 -0.01943,-0.0554 0.0367,-0.003 0.08854,0.0146 0.09836,0.05 0.0085,0.0307 -0.03653,0.0559 -0.06518,0.0698 -0.06271,0.0306 -0.132488,0.0445 -0.200572,0.0597 -0.223317,0.0498 -0.259759,0.0429 -0.474793,0.0525 -0.02419,-0.0202 -0.06094,-0.0311 -0.07255,-0.0604 -0.0078,-0.0198 0.0711,0.008 0.05859,0.0252 -0.01452,0.0199 -0.05104,-0.0135 -0.0739,-0.004 -0.09062,0.0368 -0.170481,0.0962 -0.258387,0.13904 -0.44101,0.21536 -0.262323,0.17888 -0.678476,0.15578 -0.06241,0.004 -0.124703,0.0106 -0.187216,0.0127 -0.04699,0.002 -0.09429,-0.007 -0.141016,-0.002 -0.128174,0.0141 -0.218126,0.0676 -0.343461,0.1036 -0.06174,0.0177 -0.125439,0.0277 -0.188236,0.0412 -0.04035,0.009 -0.08079,0.017 -0.121181,0.0255 -0.168689,0.0535 0.01156,4.4e-4 -0.204938,0.0475 -0.09331,0.0203 -0.181582,0.0483 -0.272991,0.0755 -0.459416,0.10128 0.147991,-0.0612 -0.329626,0.0721 -0.02672,8.7e-4 -0.05344,0.004 -0.08015,0.003 -0.002,0 1.67e-4,-0.004 2.32e-4,-0.006 -0.01188,0.005 -0.02375,0.01 -0.03562,0.0144 -0.0416,0.0264 -0.07574,0.0653 -0.120873,0.0851 -0.03081,0.0135 -0.402533,0.11689 -0.44167,0.12789 -0.05049,0.009 -0.100534,0.0347 -0.151442,0.0281 -0.02376,-0.003 -0.05897,-0.033 -0.04741,-0.054 0.01468,-0.0266 0.05873,-0.0166 0.08881,-0.0211 0.01021,-0.002 0.04051,-4.3e-4 0.03086,0.004 -0.03173,0.0125 -0.06856,0.009 -0.09955,0.0235 -0.07227,0.033 -0.138345,0.0783 -0.207526,0.11735 -0.0059,4.4e-4 -0.01365,-0.0817 -0.0078,-0.0823 z"
       inkscape:connector-curvature="0"
       inkscape:transform-center-x="-0.91480821"
       inkscape:transform-center-y="4.3504021"
       inkscape:export-xdpi="96"
       inkscape:export-ydpi="96" />
    <path
       style="opacity:1;fill:#000000;fill-opacity:1;stroke:#000000;stroke-width:0.06004715;stroke-linecap:butt;stroke-linejoin:miter;stroke-miterlimit:4;stroke-dasharray:none;stroke-opacity:1;paint-order:normal"
       id="path923-7"
       d="m 59.923424,108.99563 c 0.01069,-0.21068 -0.01519,-0.45747 0.05575,-0.66041 0.01071,-0.0306 0.03675,-0.0541 0.04874,-0.0842 0.01598,-0.0402 0.0138,-0.20518 0.01393,-0.2103 0.0085,-0.37646 0.01135,-8.6e-4 -0.01882,-0.3099 -0.0042,-0.0427 -0.0014,-0.0858 -0.0027,-0.12868 -0.0015,-0.0519 0.0065,-0.10524 -0.0056,-0.15575 -0.08854,-0.36861 -0.06742,0.12325 -0.06291,-0.3174 -0.0154,-0.0497 -0.03913,-0.0975 -0.04621,-0.14908 -0.007,-0.051 0.0011,-0.10306 0.0045,-0.15447 0.0077,-0.11763 0.03546,-0.26918 0.0302,-0.38314 -0.02905,-0.62873 -0.06534,0.0307 -0.01649,-0.55424 -0.01206,-0.0414 -0.02414,-0.0828 -0.03621,-0.12419 -0.0028,-0.0153 -0.0047,-0.0309 -0.0085,-0.0461 -0.01017,-0.0402 -0.03108,-0.0785 -0.03344,-0.11989 -0.0048,-0.0845 0.01227,-0.16897 0.01221,-0.2536 -1.91e-4,-0.25896 -0.01331,-0.28622 -0.05066,-0.53414 -0.0207,-0.0847 -0.0027,-0.17345 -0.01675,-0.25873 -0.03182,-0.19302 -0.04616,-0.0486 -0.03673,-0.25705 0.0027,-0.0601 0.01357,-0.11951 0.01797,-0.17948 0.0056,-0.0763 0.008,-0.1528 0.01201,-0.2292 -0.0016,-0.038 0.0019,-0.27727 -0.03941,-0.33718 -0.0179,-0.026 -0.07145,-0.0119 -0.08584,-0.04 -0.016,-0.0312 0.0086,-0.0695 0.01187,-0.10437 0.01681,-0.17917 -0.0087,-0.0321 0.04417,-0.26045 -0.02762,-0.0833 0.01697,-0.18109 -0.0079,-0.26635 -0.0048,-0.0163 -0.033,-0.0213 -0.03365,-0.0383 -6.48e-4,-0.0175 0.02071,-0.0281 0.03056,-0.0426 0.03504,-0.0513 0.02487,-0.0252 0.002,-0.0996 0.006,-0.0402 0.02051,-0.0799 0.01816,-0.12045 -0.0019,-0.0323 -0.03677,-0.0604 -0.03044,-0.0921 0.0038,-0.0189 0.0381,-0.0344 0.05333,-0.0224 0.02118,0.0166 0.01101,0.0527 0.01839,0.0785 0.0048,0.017 0.03067,0.0373 0.01821,0.0499 -0.01337,0.0135 -0.03708,-0.008 -0.05565,-0.0122 -0.02811,-0.10571 -0.02802,-0.0529 -6.49e-4,-0.15833 4.76e-4,-0.005 0.06381,0.003 0.06326,0.008 v 0 c -0.06111,0.085 -0.05276,0.0391 -0.03056,0.13669 -0.03702,0.0339 -0.02057,0.0276 -0.01693,-0.0165 0.0013,-0.0154 -0.006,-0.0323 3.4e-4,-0.0464 0.0058,-0.0131 0.03013,-0.042 0.0327,-0.0279 0.006,0.0329 -0.01649,0.0649 -0.01991,0.0981 -0.0041,0.0395 -0.0016,0.0794 -0.0025,0.11909 0.0022,0.01 0.03165,0.10221 0.01543,0.13001 -0.02223,0.0381 -0.05418,-0.0296 -0.03744,0.053 0.04766,0.23511 0.05761,-0.0831 0.01635,0.26972 0.0032,0.0562 0.01549,0.11258 0.0094,0.16852 -0.0037,0.0341 -0.02555,0.0637 -0.03809,0.0956 -0.01017,0.0259 -0.03977,0.0518 -0.03001,0.0778 0.01127,0.0301 0.05993,0.0289 0.07952,0.0543 0.08935,0.11598 0.06187,0.19549 0.06503,0.34134 6.92e-4,0.0105 0.02733,0.35511 0.01593,0.40699 -0.01089,0.0495 -0.06557,0.0859 -0.06662,0.1366 -8.64e-4,0.0413 0.04694,0.069 0.06152,0.10763 0.03241,0.0859 0.01889,0.18509 0.06107,0.26861 0.01183,0.35387 0.01884,0.17343 -0.02468,0.54116 -5.62e-4,0.0805 0.02128,0.15959 0.02984,0.23963 0.0038,0.0359 0.0024,0.0724 0.0073,0.10824 0.009,0.0658 0.04757,0.12607 0.0394,0.1954 0.0012,0.0866 -0.0056,0.17365 0.0037,0.25974 0.0107,0.0989 0.05836,0.19361 0.05614,0.29304 -0.0018,0.0803 -0.06338,0.15109 -0.06784,0.23132 -0.0028,0.051 0.03861,0.0955 0.04689,0.14589 0.08722,0.53089 -0.122252,-0.33273 0.04156,0.29781 0.09494,0.56098 -0.0025,-0.14023 0.0051,0.33172 7.79e-4,0.0495 0.02448,0.0961 0.0308,0.14514 0.0057,0.0444 0.0068,0.0894 0.0052,0.13409 -0.0091,0.25473 -0.03999,0.0174 0.02112,0.31074 3.04e-4,0.006 0.01366,0.19974 0.0038,0.23907 -0.03186,0.12795 -0.07086,0.0386 -0.09056,0.2121 -0.01865,0.16526 0.04477,0.3337 -8.22e-4,0.49893 7.79e-4,0.006 -0.08805,0.0173 -0.08882,0.011 z"
       inkscape:connector-curvature="0"
       inkscape:transform-center-x="-3.7795638"
       inkscape:transform-center-y="-0.055072272"
       inkscape:export-xdpi="96"
       inkscape:export-ydpi="96" />
    <path
       style="opacity:1;fill:#000000;fill-opacity:1;stroke:#000000;stroke-width:0.06004715;stroke-linecap:butt;stroke-linejoin:miter;stroke-miterlimit:4;stroke-dasharray:none;stroke-opacity:1;paint-order:normal"
       id="path925-5"
       d="m 54.642634,111.18149 c 0.134709,-0.0146 0.830339,-0.0918 0.961273,-0.0996 0.11016,-0.007 0.220749,-0.004 0.331062,-8.7e-4 0.03267,8.7e-4 0.07014,-0.006 0.09721,0.0126 0.0174,0.0118 -0.06944,0.0307 -0.06198,0.0112 0.01347,-0.0358 0.05747,-0.0504 0.08622,-0.0757 0.130161,-0.0371 0.249529,-0.0798 0.388112,-0.0797 0.05393,4e-5 0.107669,0.0134 0.158946,0.0301 0.0107,0.003 0.0274,0.0202 0.01911,0.0279 -0.07165,0.0658 -0.07745,0.0275 -0.108088,-0.0171 0.0099,-0.018 0.0099,-0.0483 0.02961,-0.054 0.04503,-0.0128 0.09356,0.003 0.140316,0.006 0.04421,0.002 0.17427,0.0155 0.233096,4.3e-4 0.01009,-0.003 -0.02019,-0.005 -0.03046,-0.006 -0.01681,-0.003 -0.0338,-0.004 -0.05069,-0.006 0.01402,-0.0229 0.01981,-0.0537 0.04203,-0.0688 0.102924,-0.0701 0.261121,-0.0552 0.379386,-0.065 0.0019,5e-5 -0.003,-0.002 -0.0048,-0.003 -0.01025,-0.004 -0.02071,-0.006 -0.03107,-0.009 -0.0033,-0.0195 -0.02291,-0.0437 -0.0098,-0.0585 0.08355,-0.0948 0.162124,-0.0704 0.2706,-0.0908 0.03818,-0.007 0.07403,-0.0248 0.112402,-0.0308 0.0068,-8.6e-4 0.02125,0.004 0.01769,0.0104 -0.0042,0.007 -0.01631,4.4e-4 -0.02447,8.7e-4 -0.0043,-0.0344 -0.01632,-0.0673 0.03712,-0.087 0.02934,-0.0109 0.06296,0.01 0.09375,0.004 0.03449,-0.006 0.06457,-0.0274 0.09772,-0.0388 0.105649,-0.0362 0.04761,0.004 0.115749,-0.0546 0.01116,-0.0195 0.01354,-0.0482 0.03347,-0.0586 0.03603,-0.0189 0.07981,-0.016 0.120031,-0.0221 0.0504,-0.008 0.10133,-0.0116 0.151732,-0.0193 0.04642,-0.007 0.092,-0.0193 0.138581,-0.0252 0.03368,-0.004 0.07033,0.008 0.101695,-0.005 0.01067,-0.004 -0.0111,-0.0201 -0.01667,-0.0301 0.05016,0.0322 0.02152,0.0204 0.127834,0.004 0.310311,-0.048 0.01058,-0.0213 0.363981,-0.0477 0.03923,-0.003 0.07989,0.004 0.117807,-0.007 0.0078,-0.002 -0.0057,-0.0154 -0.0085,-0.0232 -0.009,0.005 -0.03542,0.0191 -0.02705,0.0135 0.05661,-0.037 0.133336,-0.0864 0.204711,-0.0832 0.01014,4.3e-4 0.179968,0.0991 0.19597,0.01 0.02474,-0.007 -0.01767,0.002 0.02192,0.0236 0.02412,0.0132 0.05423,0.002 0.06434,-0.0234 0.0039,-0.01 -0.0022,-0.0208 -0.0034,-0.0312 0.0023,-0.004 0.06121,0.0268 0.05902,0.0309 v 0 c -0.0226,0.016 -0.06687,0.0538 -0.09963,0.0543 -0.05346,8.6e-4 -0.07312,-0.0344 -0.01605,-0.0735 0.0095,-0.007 9.95e-4,0.0229 0.0015,0.0343 -0.03155,0.0367 -0.05692,0.0767 -0.118129,0.0746 -0.04024,-0.001 -0.07471,-0.0301 -0.112072,-0.0451 -0.03726,0.005 -0.0741,0.0173 -0.111749,0.0164 -0.0086,-1.7e-4 -0.01259,-0.0267 -0.0171,-0.0194 -0.0083,0.0134 -4.9e-5,0.0314 -7.4e-5,0.0472 -0.07768,0.0519 0.0015,0.007 -0.152052,0.0369 -0.119295,0.0231 -0.244316,0.0741 -0.369876,0.0648 -0.02741,-0.002 -0.04845,-0.0329 -0.07593,-0.0321 -0.01144,3e-4 0.0033,0.0227 0.0049,0.034 -0.01221,0.003 -0.02416,0.006 -0.03654,0.008 -0.0332,0.003 -0.06741,-2.9e-4 -0.09994,0.007 -0.04942,0.0115 -0.09395,0.0411 -0.143943,0.0496 -0.01384,0.002 -0.187185,-0.0112 -0.225648,0.009 -0.0199,0.0101 -0.02713,0.0355 -0.0407,0.0532 -0.02237,0.0128 -0.04477,0.0255 -0.06691,0.0387 -0.02675,0.0158 -0.05028,0.0384 -0.07971,0.0484 -0.03152,0.0109 -0.06661,0.006 -0.09937,0.0125 -0.02806,0.005 -0.05415,0.0204 -0.08261,0.0232 -0.0051,4.3e-4 0.0061,-0.0162 0.001,-0.0154 -0.0061,8.6e-4 -0.0057,0.011 -0.0086,0.0166 0.0034,0.0172 0.01705,0.0355 0.01027,0.0517 -0.01431,0.0341 -0.121927,0.0412 -0.156986,0.0495 -0.04561,0.0106 -0.09011,0.0257 -0.135735,0.0362 -0.02201,0.005 -0.0452,0.005 -0.06695,0.0106 -0.0069,0.002 -0.0113,0.009 -0.01705,0.0131 0.01149,0.0204 0.03589,0.0377 0.03451,0.0611 -9.52e-4,0.0163 -0.02451,0.0228 -0.03979,0.0284 -0.03599,0.0136 -0.221621,0.0543 -0.254104,0.0574 -0.0309,0.003 -0.062,-0.008 -0.09293,-0.005 -0.01904,0.002 -0.03644,0.0115 -0.05466,0.0172 0.01423,8.6e-4 0.156333,-0.0112 0.05991,0.0805 -0.03215,0.0305 -0.229288,0.019 -0.241085,0.0193 -0.03917,8.6e-4 -0.07955,0.0173 -0.117335,0.007 -0.01742,-0.005 -0.01834,-0.0311 -0.0275,-0.0467 0.01361,0.003 0.02927,-9e-5 0.04083,0.008 0.03106,0.0205 0.08103,0.0624 0.01127,0.0706 -0.05046,0.006 -0.101797,0.006 -0.152428,0.002 -0.295414,-0.0247 -0.0976,-0.0577 -0.334182,0.005 -0.02147,0.0102 -0.04296,0.0203 -0.06435,0.0307 -0.0024,0.022 0.01131,0.054 -0.0073,0.0661 -0.02919,0.019 -0.06949,0.007 -0.104329,0.007 -0.107236,-0.002 -0.214204,-0.0144 -0.321452,-0.0139 -0.513724,0.003 -0.454458,0.0133 -0.960233,0.0963 -0.0041,-4.3e-4 0.0013,-0.0571 0.0053,-0.0567 z"
       inkscape:connector-curvature="0"
       inkscape:transform-center-x="-1.0063955"
       inkscape:transform-center-y="4.9128538"
       inkscape:export-xdpi="96"
       inkscape:export-ydpi="96" />
    <path
       style="opacity:1;fill:#000000;fill-opacity:1;stroke:#000000;stroke-width:0.06004715;stroke-linecap:butt;stroke-linejoin:miter;stroke-miterlimit:4;stroke-dasharray:none;stroke-opacity:1;paint-order:normal"
       id="path931-8"
       d="m 59.730234,108.80479 c 0.0063,-0.25241 -0.08719,-0.49194 -0.107206,-0.74056 -0.0041,-0.0511 -0.0028,-0.10618 0.01885,-0.15269 0.01041,-0.0224 0.04333,-0.0393 0.06686,-0.0319 0.02282,0.007 0.05412,0.0756 0.03342,0.0636 -0.02998,-0.0174 -0.043,-0.0545 -0.0645,-0.0817 -0.01306,-0.0898 -0.02612,-0.17963 -0.03918,-0.26944 -0.0054,-0.0993 -0.0035,-0.19933 -0.0163,-0.29798 -0.0079,-0.0611 -0.02612,-0.12064 -0.04565,-0.17907 -0.0053,-0.0158 -0.03369,-0.0257 -0.02803,-0.0414 0.0049,-0.0136 0.03052,-0.008 0.04348,-0.001 0.0077,0.004 0.0029,0.0169 0.0044,0.0254 -0.01147,-0.0107 -0.02971,-0.0172 -0.03438,-0.0322 -0.01691,-0.0542 -1.04e-4,-0.16965 0.0031,-0.21969 0.0012,-0.0192 -0.01059,-0.0427 0.0016,-0.0575 0.0076,-0.009 0.0395,0.0256 0.02856,0.0212 -0.02992,-0.0124 -0.05739,-0.03 -0.08609,-0.0449 0.05198,-0.0442 -0.0234,-0.0934 -0.0094,-0.13708 0.0054,-0.0168 0.02947,-0.022 0.03654,-0.0381 0.0057,-0.0131 -0.0097,-0.0315 -0.0011,-0.0428 0.02189,-0.0288 0.03866,0.0488 0.02068,-0.0119 -0.06179,-0.0221 -0.08085,-0.008 -0.07154,-0.0894 0.0018,-0.0158 0.01853,-0.0266 0.02227,-0.042 0.01823,-0.0752 -0.01693,0.005 -0.02528,-0.0203 -0.0053,-0.0159 0.0031,-0.0333 0.0046,-0.05 -0.07184,-0.067 -0.0403,-0.0126 -0.03505,-0.091 6.49e-4,-0.01 -0.0091,-0.0192 -0.006,-0.0285 0.0038,-0.0116 0.02782,-0.0159 0.02427,-0.0273 -0.0042,-0.0134 -0.02554,-0.0117 -0.03831,-0.0175 -0.0042,-0.0269 -0.0085,-0.0538 -0.01276,-0.0807 -0.0049,-0.0221 -0.034,-0.14923 -0.03546,-0.16885 -0.0093,-0.12533 0.0274,-0.049 -0.01787,-0.17194 -0.01838,-0.0499 -0.01012,-0.0483 -0.03483,-0.0448 -0.0025,-0.009 -0.0081,-0.0176 -0.0077,-0.0269 7.79e-4,-0.0171 0.01321,-0.0332 0.01111,-0.0503 -0.0075,-0.06 -0.02803,-0.0838 -0.05877,-0.12827 -5.62e-4,-8.7e-4 2.75e-4,0.003 0.0013,0.003 0.01386,2.5e-4 0.0277,-0.001 0.04155,-0.002 0.01936,-0.0108 0.0074,-0.002 -0.01015,-0.0465 -0.01447,-0.0371 -0.01861,-0.0805 -0.04403,-0.11118 -0.02474,-0.0299 -0.07403,-0.0315 -0.09884,-0.0613 -0.06395,-0.0768 0.06506,-0.0702 0.0802,-0.0727 0.05149,-0.0387 0.07275,-0.0639 0.03445,-0.13356 -0.0097,-0.0177 -0.03363,-0.024 -0.04472,-0.0409 -0.02615,-0.0398 0.0028,-0.0308 0.01902,-0.0298 0.0063,-0.0323 0.05504,-0.0482 0.05614,-0.081 0.0011,-0.0332 -0.03213,-0.0607 -0.03353,-0.094 -0.0012,-0.0278 0.02492,-0.0514 0.02618,-0.0791 4.76e-4,-0.0108 -0.02934,-0.0167 -0.02148,-0.024 0.01107,-0.0103 0.03022,0.001 0.04535,0.002 -0.01082,0.0117 -0.06249,0.0754 -0.06138,-0.0254 3.48e-4,-0.032 0.0474,-0.049 0.05211,-0.0807 0.0055,-0.0367 -0.01736,-0.0722 -0.02388,-0.10877 -0.02168,-0.12165 -0.01695,-0.11275 -0.01876,-0.23167 -0.0067,-0.004 -0.02232,-0.005 -0.02006,-0.0122 0.01416,-0.0469 0.06231,-0.0797 0.07348,-0.12739 0.01619,-0.0692 0.02266,-0.14379 -0.02952,-0.20037 0.02982,0.0575 -0.04981,-0.004 -0.05121,-0.0224 -0.0038,-0.0505 0.02781,-0.0973 0.0417,-0.14596 0.0064,-0.0813 0.02955,-0.16303 0.01914,-0.24392 -0.01362,-0.10576 -0.06568,-0.20315 -0.09005,-0.30696 -0.02324,-0.099 -0.03503,-0.20027 -0.05255,-0.30041 -0.01424,-0.0748 -0.03671,-0.14853 -0.0427,-0.22444 -0.05168,-0.18011 0.0509,-0.0162 0.05453,-0.038 0.0046,-0.0274 -0.01879,-0.0524 -0.02627,-0.0791 -0.0324,-0.11587 -0.03294,-0.1456 -0.05367,-0.27376 -0.0086,-0.0333 -0.03655,-0.0673 -0.0259,-0.10002 0.0057,-0.0176 0.04331,1.8e-4 0.05334,0.0158 0.02375,0.0369 -0.0039,0.12066 -0.02883,0.11623 -0.09495,-0.0169 -0.07404,-0.14752 -0.07847,-0.2003 -0.02321,-0.0336 -0.04326,-0.0696 -0.06962,-0.10075 -0.0072,-0.008 -0.04027,-0.0169 -0.02919,-0.0161 0.0099,8.7e-4 0.101191,0.0156 0.07344,0.0629 -0.006,0.0103 -0.02167,-0.0139 -0.02542,-0.0252 -0.0083,-0.025 -0.0059,-0.0524 -0.0089,-0.0786 -0.001,-0.0232 3.2e-5,-0.0465 -0.0031,-0.0695 -6.92e-4,-0.005 -0.01302,-0.0126 -0.0081,-0.0123 0.01806,8.7e-4 0.03958,0.002 0.05218,0.0149 0.0077,0.008 -0.0042,0.0216 -0.0063,0.0324 9.52e-4,0.003 -0.03373,0.016 -0.03475,0.0135 v 0 c -0.0074,-0.0237 -0.02835,-0.0592 0.0073,-0.0793 0.03379,-0.0192 -0.112075,0.27696 0.06185,0.0988 -0.0024,0.028 0.0074,0.0599 -0.0072,0.0838 -0.003,0.005 -0.130605,0.10064 -0.09337,-0.0243 0.05391,-0.18077 0.132074,0.0742 0.131199,0.0882 0.0075,0.0427 0.02261,0.0848 0.02244,0.12824 -1.03e-4,0.0253 -0.01418,0.0487 -0.02326,0.0723 -0.0044,0.0114 0.01079,-0.0234 0.0091,-0.0354 -0.0039,-0.028 -0.03899,-0.0562 -0.02543,-0.081 0.01254,-0.023 0.05522,-0.0277 0.07728,-0.0139 0.03055,0.0192 0.03453,0.0634 0.05172,0.0952 -1.6e-4,0.0553 -0.0043,0.11075 -4.76e-4,0.16593 0.0029,0.0418 0.02569,0.0825 0.02055,0.12407 -0.0029,0.023 -0.03296,0.0339 -0.04264,0.0549 -0.0041,0.009 0.01747,-0.0226 0.02481,-0.0159 0.01617,0.0147 0.01913,0.0396 0.02457,0.0607 0.01888,0.0732 0.03216,0.14765 0.04825,0.22148 0.02699,0.0993 0.06537,0.19627 0.08098,0.29803 0.01904,0.12407 0.01555,0.4338 0.01089,0.57383 -0.0016,0.0493 0.0113,0.1029 -0.0095,0.14756 -0.0097,0.0208 -0.04785,0.0291 -0.06696,0.0164 -0.01712,-0.0114 0.03826,-0.0151 0.05737,-0.0227 0.01019,0.008 0.02512,0.0117 0.03059,0.0233 0.04189,0.0886 0.02187,0.11354 7.35e-4,0.20827 -0.0091,0.0408 -0.0062,0.087 -0.02915,0.12197 -0.0082,0.0126 -0.04161,-0.0318 -0.02716,-0.036 0.01682,-0.005 0.02775,0.0212 0.04163,0.0318 0.07731,0.19005 0.0299,0.0223 0.02449,0.24978 -0.0017,0.0703 0.04153,0.13342 -0.02014,0.19199 -0.02029,0.0193 -0.05244,0.02 -0.0772,0.033 -0.008,0.004 0.0177,-0.004 0.02661,-0.006 0.0075,-0.009 0.01112,-0.0293 0.02259,-0.0269 0.01357,0.003 0.01434,0.0238 0.02095,0.0359 0.01626,0.0301 0.04877,0.0565 0.04769,0.0907 -0.0011,0.0362 -0.03785,0.0618 -0.05349,0.0943 -0.04841,0.10077 0.0094,0.054 -0.08911,0.10313 0.0036,-0.0188 -0.0048,-0.0455 0.01095,-0.0563 0.01113,-0.008 0.0182,0.0201 0.02698,0.0304 0.01751,0.0206 0.04238,0.037 0.05187,0.0623 0.02521,0.0672 0.01387,0.11756 -0.04489,0.15765 -0.01271,0.009 -0.03053,0.003 -0.0458,0.004 0.0029,-0.006 0.0061,-0.0239 0.0086,-0.0178 0.0037,0.009 -0.0027,0.0193 -0.0041,0.029 0.01384,0.0309 0.02769,0.0618 0.0415,0.0927 0.02822,0.042 0.08802,0.066 0.09844,0.11548 0.03078,0.14613 -0.05607,0.0708 -0.07496,0.0561 -0.0042,-0.0197 -9.08e-4,-0.0427 -0.01273,-0.0589 -0.0081,-0.0111 -0.0093,0.0311 -1.45e-4,0.0413 0.01927,0.0213 0.06175,0.0166 0.07534,0.042 0.0068,0.0127 0.0026,0.14965 -0.01208,0.1726 -0.0052,0.008 -0.01746,-0.008 -0.02621,-0.0114 0.04045,-0.007 0.08011,-0.0245 0.09947,0.0438 0.0089,0.0315 -0.01188,0.0644 -0.01469,0.097 -0.0024,0.0279 -0.0067,0.0567 -9.51e-4,0.0841 0.0059,0.0283 0.02338,0.0529 0.03502,0.0793 0.0038,0.0257 0.0075,0.0514 0.01133,0.0771 0.01295,0.0278 0.02971,0.054 0.03878,0.0833 0.03006,0.0966 0.0039,0.0228 -0.01524,0.066 -0.0023,0.005 0.0038,0.0104 0.0046,0.0158 0.0089,0.0626 -0.02194,-0.0326 0.02599,0.0845 0.0474,0.0811 0.02969,0.0281 0.03303,0.0996 1.77e-4,0.004 0.0049,-0.0159 0.002,-0.0127 -0.0066,0.007 -0.01676,0.0164 -0.01373,0.0255 0.0046,0.0139 0.0214,0.0199 0.0321,0.0299 0.005,0.0187 0.01008,0.0374 0.01513,0.0562 0.0053,0.0147 0.02094,0.0462 0.01173,0.064 -0.0047,0.009 -0.01839,0.0103 -0.02537,0.018 -0.03616,0.0401 0.01437,0.1022 0.02635,0.13757 -0.01412,0.0214 -0.03245,0.0405 -0.04237,0.0642 -0.0032,0.008 0.01358,-0.0169 0.02104,-0.0131 0.02128,0.0106 0.04663,0.0261 0.05146,0.0494 0.0084,0.0405 -0.01488,0.0817 -0.01574,0.123 -0.0029,0.14117 0.05119,0.0781 -0.04808,0.14694 3.94e-4,-0.0108 -0.0042,-0.023 0.0012,-0.0323 0.03078,-0.0537 0.05379,-0.0217 0.07021,0.0258 0.0867,0.25106 0.03843,0.49894 0.07608,0.75756 -0.0063,0.0366 -0.0067,0.0747 -0.01888,0.10985 -0.02019,0.0582 -0.0083,-0.17896 0.01576,-0.0636 0.0099,0.0472 -0.0095,0.0968 -0.0036,0.14467 0.141011,1.14334 -0.0042,-0.51762 0.09533,0.73962 0.0011,0.005 -0.06523,0.0204 -0.06635,0.0158 z"
       inkscape:connector-curvature="0"
       inkscape:transform-center-x="-3.255671"
       inkscape:transform-center-y="-0.42236185"
       inkscape:export-xdpi="96"
       inkscape:export-ydpi="96" />
    <path
       style="opacity:1;fill:#000000;fill-opacity:1;stroke:#000000;stroke-width:0.06004715;stroke-linecap:butt;stroke-linejoin:miter;stroke-miterlimit:4;stroke-dasharray:none;stroke-opacity:1;paint-order:normal"
       id="path861-4"
       d="m 53.433445,103.33166 c -0.0097,0.32487 -0.0319,0.64893 -0.06031,0.97265 -0.105758,0.89577 -0.139692,1.79824 -0.169874,2.69915 -0.02185,0.56786 -0.01734,1.13624 0.0051,1.70395 0.0061,0.27452 0.03277,0.54772 0.05577,0.82113 0.01428,0.19626 0.02456,0.39272 0.04055,0.58888 0.0072,0.0848 0.01977,0.169 0.03244,0.25312 0.0014,0.005 0.0013,0.0115 0.0042,0.0164 0.01412,0.0238 0.09721,0.0104 0.105398,0.01 0.158201,-0.0116 0.133064,-0.0132 0.321883,-0.048 0.606122,-0.12175 1.19208,-0.32236 1.78062,-0.50759 0.575434,-0.1811 0.568802,-0.17614 1.144014,-0.34495 0.480896,-0.13712 0.964707,-0.26549 1.454335,-0.36789 0.30788,-0.0644 0.617898,-0.11382 0.929144,-0.15813 0.118359,-0.0244 0.241786,-0.0189 0.360307,-0.043 0.03654,-0.007 0.07642,-0.0121 0.10662,-0.0339 0.02549,-0.0185 0.07802,-0.0647 0.05044,-0.0799 -0.199809,-0.11023 -0.07358,0.42021 -0.135313,-0.17415 -0.0189,-0.0977 -0.03634,-0.19559 -0.05671,-0.29294 -0.06091,-0.29108 -0.126646,-0.56315 -0.195525,-0.85348 -0.111021,-0.46796 -0.223749,-0.93549 -0.333312,-1.4038 -0.140863,-0.61307 -0.254887,-1.23166 -0.347566,-1.85371 -0.0092,-0.0701 -0.01908,-0.14012 -0.0276,-0.21031 -0.01671,-0.13767 -0.02711,-0.23963 -0.03625,-0.37731 -0.01293,-0.19495 -0.01542,-0.39045 -0.02091,-0.58569 -0.0086,-0.36688 -0.01,-0.73373 -0.0028,-1.10062 -0.0026,-0.15261 0.01175,-0.30427 0.02662,-0.45588 0.01381,-0.12089 0.0109,-0.24265 0.0124,-0.36408 0.0054,-0.12777 0.0012,-0.25528 -0.0048,-0.3829 -0.0047,-0.0573 0.0016,-0.11464 -4.33e-4,-0.17188 -6.48e-4,-0.004 -4.4e-5,-0.008 -0.002,-0.0122 -6.05e-4,-0.001 -0.0028,4.1e-4 -0.0041,8.7e-4 -0.0079,0.002 -0.01591,0.004 -0.02389,0.006 -0.09135,0.0187 -0.182289,0.0384 -0.273285,0.0589 -0.368477,0.0844 -0.736139,0.173 -1.108172,0.24079 -0.102731,0.0187 -0.205916,0.0349 -0.308874,0.0524 -0.598548,0.104 -1.197491,0.20751 -1.792905,0.32839 -0.385751,0.0873 -0.77067,0.17819 -1.151669,0.28449 -0.188687,0.0549 -0.377493,0.1097 -0.563914,0.17192 -0.04384,0.015 -0.0872,0.0314 -0.129892,0.0493 -0.01595,0.007 -0.03943,0.0147 -0.05169,0.0288 -0.006,0.007 -0.0089,0.0164 -0.0134,0.0246 0.04144,-0.0549 0.07354,-0.11828 0.124305,-0.16468 0.01396,-0.0128 -0.005,0.0375 -0.0059,0.0564 -0.0012,0.0262 -0.0011,0.0524 -2.98e-4,0.0786 0.0033,0.10396 0.01851,0.20658 0.03274,0.30944 0.03015,0.18352 0.05631,0.36763 0.0828,0.55171 0.01799,0.1163 0.03425,0.23273 0.04604,0.34981 0.0053,0.0553 0.01125,0.1105 0.01692,0.16577 0.006,0.0971 0.01327,0.19421 0.02155,0.29118 0.009,0.10565 0.0065,0.21166 0.01185,0.31748 0.0068,0.11352 0.01439,0.22697 0.01799,0.34065 1.88e-4,0.0391 4.75e-4,0.0781 0.0017,0.1171 0,0 -0.155485,0.18798 -0.155485,0.18798 v 0 c -0.001,-0.0398 -9.95e-4,-0.0796 1.25e-4,-0.11937 -0.0023,-0.11371 -0.0086,-0.22723 -0.01709,-0.34064 -0.0063,-0.10555 -0.0038,-0.21116 -0.01155,-0.31664 -0.0085,-0.096 -0.01539,-0.19224 -0.02357,-0.28832 -0.0024,-0.0259 -0.0079,-0.0513 -0.01011,-0.0772 -9.08e-4,-0.0103 -0.0012,-0.0449 -0.0018,-0.0536 -8.65e-4,-0.0123 -0.0025,-0.0244 -0.0038,-0.0367 -0.0096,-0.11844 -0.02341,-0.23623 -0.04148,-0.35371 -0.02397,-0.18556 -0.0503,-0.3708 -0.07946,-0.55561 -0.01499,-0.10213 -0.03095,-0.2041 -0.03828,-0.30715 -0.0018,-0.0257 -0.003,-0.0514 -0.0035,-0.0772 -3.18e-4,-0.0188 -0.0069,-0.0395 0.0012,-0.0565 0.03995,-0.0836 0.09362,-0.15985 0.140431,-0.23977 0.0072,-0.007 0.01337,-0.015 0.02139,-0.0209 0.01317,-0.01 0.04031,-0.0195 0.0548,-0.0251 0.04262,-0.0163 0.08569,-0.0314 0.129274,-0.0449 0.184971,-0.0563 0.37134,-0.10794 0.557857,-0.15888 0.379208,-0.0988 0.761428,-0.18538 1.144353,-0.26852 0.594742,-0.11413 1.193052,-0.20921 1.788477,-0.31979 0.103589,-0.0189 0.207429,-0.0365 0.310757,-0.0567 0.376527,-0.0739 0.748976,-0.16716 1.120221,-0.26368 0.07434,-0.0192 0.148464,-0.0392 0.222985,-0.0577 0.02938,-0.007 0.09067,-0.032 0.119535,-0.003 0.0038,0.004 0.0034,0.0103 0.0052,0.0155 0.0056,0.0587 -0.0069,0.11758 -0.0025,0.17653 0.0036,0.12856 0.0095,0.25702 0.004,0.38569 -0.0012,0.12143 0.0034,0.24317 -0.0097,0.36415 -0.01608,0.15452 -0.03549,0.30884 -0.03605,0.4645 -0.01502,0.36952 -0.01731,0.73918 -0.0058,1.10888 0.01338,0.39272 0.02314,0.78616 0.07977,1.17575 0.08442,0.63059 0.189511,1.25825 0.324295,1.88019 0.103938,0.47051 0.212469,0.93947 0.330616,1.40667 0.0303,0.11981 0.178198,0.68431 0.214253,0.83088 0.02322,0.0944 0.04394,0.18941 0.06591,0.28411 0.04768,0.30078 0.06886,0.20052 -0.09949,0.55112 -0.0136,0.0284 -0.03533,0.055 -0.06267,0.0705 -0.03164,0.0182 -0.0703,0.0204 -0.106381,0.0257 -0.116335,0.0172 -0.235563,0.009 -0.351588,0.0291 -0.241634,0.0278 -0.298808,0.032 -0.551456,0.0718 -0.608964,0.0958 -1.209375,0.2384 -1.802063,0.40714 -0.552571,0.16081 -0.592091,0.16804 -1.144137,0.34613 -0.601842,0.19415 -1.198269,0.4083 -1.812746,0.56074 -0.167321,0.0384 -0.188369,0.0494 -0.336393,0.0662 -0.03827,0.004 -0.105847,0.0166 -0.13657,-0.0208 -0.0043,-0.005 -0.0046,-0.0129 -0.0069,-0.0192 -0.01249,-0.0869 -0.01929,-0.17467 -0.02739,-0.26201 -0.01367,-0.19699 -0.02376,-0.3942 -0.03867,-0.59109 -0.02014,-0.2783 -0.0426,-0.55655 -0.04501,-0.83576 -0.01634,-0.57761 -0.01258,-1.15562 0.01708,-1.73281 0.02093,-0.47198 0.04325,-0.94389 0.06757,-1.41571 0.01344,-0.26081 0.03413,-0.66226 0.05357,-0.92858 0.0081,-0.11091 0.01915,-0.22159 0.02873,-0.33238 0.02378,-0.31392 0.04453,-0.62825 0.03868,-0.94329 0,0 0.15618,-0.18844 0.15618,-0.18844 z"
       inkscape:connector-curvature="0"
       inkscape:transform-center-x="-0.21748204"
       inkscape:transform-center-y="-0.27606856"
       inkscape:export-xdpi="96"
       inkscape:export-ydpi="96" />
    <text
       xml:space="preserve"
       style="font-style:normal;font-weight:normal;font-size:10.58333302px;line-height:1.25;font-family:sans-serif;letter-spacing:0px;word-spacing:0px;fill:#ff0000;fill-opacity:1;stroke:#000000;stroke-width:0.26458332;stroke-opacity:1;"
       x="1.1212623"
       y="141.84433"
       id="text911"
       transform="rotate(-27.928374)"><tspan
         sodipodi:role="line"
         id="tspan909"
         x="1.1212623"
         y="141.84433"
         style="font-style:normal;font-variant:normal;font-weight:normal;font-stretch:normal;font-family:'AR DARLING';-inkscape-font-specification:'AR DARLING';stroke-width:0.26458332;stroke:#000000;stroke-opacity:1;fill:#ff0000;">Give us your name</tspan></text>
    <text
       xml:space="preserve"
       style="font-style:normal;font-weight:normal;font-size:3.11473131px;line-height:1.25;font-family:sans-serif;letter-spacing:0px;word-spacing:0px;fill:#000000;fill-opacity:1;stroke:none;stroke-width:0.07786828"
       x="141.21179"
       y="97.201912"
       id="text915"><tspan
         sodipodi:role="line"
         id="tspan913"
         x="141.21179"
         y="97.201912"
         style="font-style:normal;font-variant:normal;font-weight:normal;font-stretch:normal;font-family:'AR DARLING';-inkscape-font-specification:'AR DARLING';stroke-width:0.07786828">here</tspan></text>
  </g>
</svg>
